<svg width="73" height="57" viewBox="0 0 73 57" fill="none" xmlns="http://www.w3.org/2000/svg">
<path d="M70.2702 56.1089H2.72365C2.00129 56.1089 1.30852 55.7995 0.797739 55.2486C0.286955 54.6978 0 53.9508 0 53.1718L0 3.82834C0 3.04938 0.286955 2.30231 0.797739 1.7515C1.30852 1.20068 2.00129 0.891235 2.72365 0.891235H70.2702C70.9925 0.891235 71.6853 1.20068 72.1961 1.7515C72.7069 2.30231 72.9938 3.04938 72.9938 3.82834V53.1718C72.9938 53.9508 72.7069 54.6978 72.1961 55.2486C71.6853 55.7995 70.9925 56.1089 70.2702 56.1089ZM5.4473 50.2347H67.5465V6.76545H5.4473V50.2347Z" fill="#64DFDF"/>
<path d="M36.4966 42.4029C35.7845 42.4028 35.1008 42.1019 34.5918 41.5648L0.818602 5.92789C0.302358 5.38261 0.00812639 4.63851 0.000634899 3.85929C-0.00685659 3.08008 0.273006 2.32956 0.778655 1.77286C1.2843 1.21615 1.97432 0.898862 2.69691 0.890783C3.4195 0.882704 4.11547 1.1845 4.63171 1.72978L36.4966 35.3538L68.3651 1.72978C68.6207 1.45978 68.9231 1.24673 69.2551 1.10277C69.5871 0.958817 69.9421 0.886783 70.2999 0.890783C70.6577 0.894783 71.0112 0.974739 71.3404 1.12609C71.6695 1.27743 71.9678 1.49721 72.2181 1.77286C72.4685 2.04851 72.6661 2.37464 72.7996 2.73263C72.9331 3.09062 72.9999 3.47346 72.9962 3.85929C72.9925 4.24513 72.9183 4.62639 72.778 4.98132C72.6376 5.33625 72.4338 5.65789 72.1782 5.92789L38.405 41.5648C37.8952 42.1029 37.2099 42.4038 36.4966 42.4029V42.4029Z" fill="#64DFDF"/>
<path d="M2.72376 56.1094C2.17418 56.1072 1.63808 55.9257 1.1859 55.5889C0.733714 55.252 0.386602 54.7756 0.19017 54.2221C-0.00626151 53.6686 -0.0428219 53.0639 0.0852916 52.4876C0.213405 51.9113 0.500199 51.3902 0.907991 50.9929L25.2157 27.3081C25.4794 27.0391 25.7903 26.8297 26.1301 26.6921C26.4699 26.5545 26.8318 26.4916 27.1945 26.507C27.5572 26.5224 27.9134 26.6158 28.2421 26.7818C28.5709 26.9478 28.8655 27.1829 29.1088 27.4734C29.3521 27.764 29.539 28.104 29.6587 28.4735C29.7783 28.8431 29.8283 29.2347 29.8056 29.6254C29.7829 30.016 29.6881 30.3979 29.5266 30.7484C29.3651 31.099 29.1403 31.4112 28.8653 31.6667L4.5486 55.3594C4.04719 55.8441 3.39709 56.1112 2.72376 56.1094V56.1094ZM70.2684 56.1094C69.597 56.1082 68.9499 55.8381 68.4527 55.3516L44.1359 31.6589C43.6191 31.1317 43.3141 30.4074 43.286 29.6408C43.258 28.8742 43.5093 28.1262 43.9861 27.5568C44.4629 26.9874 45.1274 26.6417 45.8374 26.5938C46.5475 26.5458 47.2467 26.7994 47.7856 27.3002L72.1024 50.9929C72.5113 51.3914 72.7985 51.9142 72.9261 52.4924C73.0537 53.0705 73.0156 53.6769 72.8169 54.2312C72.6182 54.7855 72.2683 55.2619 71.8132 55.5972C71.3582 55.9325 70.8196 56.1111 70.2684 56.1094V56.1094Z" fill="#64DFDF"/>
</svg>
