<svg width="82" height="64" viewBox="0 0 82 64" fill="none" xmlns="http://www.w3.org/2000/svg">
<path d="M78.9336 62.9995H3.05944C2.24803 62.9995 1.46985 62.6521 0.89609 62.0336C0.322333 61.4152 0 60.5764 0 59.7017V4.29857C0 3.42394 0.322333 2.58513 0.89609 1.96667C1.46985 1.34821 2.24803 1.00076 3.05944 1.00076H78.9336C79.745 1.00076 80.5232 1.34821 81.097 1.96667C81.6707 2.58513 81.9931 3.42394 81.9931 4.29857V59.7017C81.9931 60.5764 81.6707 61.4152 81.097 62.0336C80.5232 62.6521 79.745 62.9995 78.9336 62.9995ZM6.11888 56.4039H75.8742V7.59638H6.11888V56.4039Z" fill="white"/>
<path d="M40.9961 47.6103C40.1962 47.6101 39.4282 47.2724 38.8565 46.6693L0.919473 6.65588C0.339583 6.04363 0.0090757 5.20816 0.000660604 4.33324C-0.00775449 3.45833 0.306611 2.61565 0.874601 1.99058C1.44259 1.36551 2.21768 1.00925 3.02935 1.00018C3.84103 0.991107 4.6228 1.32997 5.20269 1.94221L40.9961 39.6955L76.7936 1.94221C77.0807 1.63906 77.4205 1.39983 77.7934 1.2382C78.1663 1.07657 78.565 0.995686 78.9669 1.00018C79.3688 1.00467 79.766 1.09444 80.1357 1.26438C80.5054 1.43431 80.8405 1.68107 81.1217 1.99058C81.4029 2.30008 81.6249 2.66626 81.7748 3.06822C81.9248 3.47017 81.9998 3.90003 81.9956 4.33324C81.9915 4.76646 81.9082 5.19454 81.7505 5.59306C81.5929 5.99158 81.364 6.35272 81.0768 6.65588L43.1398 46.6693C42.5671 47.2734 41.7974 47.6113 40.9961 47.6103V47.6103Z" fill="white"/>
<path d="M3.05945 63C2.44212 62.9975 1.83992 62.7938 1.33199 62.4156C0.824057 62.0374 0.43415 61.5024 0.213501 60.8809C-0.00714848 60.2594 -0.0482163 59.5805 0.095692 58.9334C0.2396 58.2863 0.561753 57.7013 1.01982 57.2552L28.3243 30.6617C28.6205 30.3597 28.9698 30.1245 29.3515 29.97C29.7332 29.8156 30.1397 29.7449 30.5471 29.7622C30.9546 29.7795 31.3547 29.8844 31.7239 30.0708C32.0932 30.2571 32.4242 30.5212 32.6974 30.8474C32.9707 31.1736 33.1807 31.5553 33.3151 31.9703C33.4495 32.3852 33.5057 32.8249 33.4802 33.2635C33.4547 33.7022 33.3481 34.1309 33.1668 34.5245C32.9854 34.9181 32.7328 35.2687 32.424 35.5556L5.10927 62.1579C4.54605 62.7021 3.81579 63.0021 3.05945 63V63ZM78.9316 63C78.1774 62.9986 77.4505 62.6954 76.8919 62.1491L49.5772 35.5468C48.9967 34.9549 48.654 34.1416 48.6226 33.2808C48.5911 32.4201 48.8734 31.5802 49.4089 30.9409C49.9445 30.3016 50.6909 29.9135 51.4885 29.8597C52.2861 29.8058 53.0715 30.0905 53.6769 30.6529L80.9916 57.2552C81.4509 57.7026 81.7736 58.2896 81.9169 58.9388C82.0602 59.588 82.0174 60.2687 81.7942 60.8912C81.571 61.5136 81.1779 62.0484 80.6668 62.4249C80.1557 62.8014 79.5506 63.0019 78.9316 63V63Z" fill="white"/>
</svg>
