<svg width="64" height="64" viewBox="0 0 64 64" fill="none" xmlns="http://www.w3.org/2000/svg">
<path d="M32 0C14.3281 0 0 14.3281 0 32C0 46.1406 9.168 58.1328 21.8848 62.3633C23.4844 62.6563 24.0684 61.6679 24.0684 60.8242C24.0684 60.0624 24.0391 57.5391 24.0234 54.8672C15.125 56.8008 13.2441 51.0938 13.2441 51.0938C11.7871 47.3984 9.69137 46.4141 9.69137 46.4141C6.78319 44.4297 9.912 44.4688 9.912 44.4688C13.1249 44.6914 14.8164 47.7656 14.8164 47.7656C17.6719 52.6562 22.3086 51.2422 24.1289 50.4219C24.4198 48.3594 25.2479 46.9453 26.1601 46.1484C19.0566 45.3399 11.584 42.5938 11.584 30.332C11.584 26.8359 12.8321 23.9844 14.875 21.7441C14.5488 20.9316 13.4472 17.6757 15.1914 13.2715C15.1914 13.2715 17.875 12.4121 23.9921 16.5527C26.5429 15.8399 29.2792 15.4883 31.9999 15.4766C34.7187 15.4883 37.4569 15.8438 40.0117 16.5566C46.1172 12.4121 48.8047 13.2754 48.8047 13.2754C50.5547 17.6836 49.4531 20.9355 49.125 21.7441C51.1758 23.9844 52.4141 26.8359 52.4141 30.332C52.4141 42.625 44.9297 45.332 37.8008 46.125C38.9532 47.1172 39.9727 49.0625 39.9727 52.0469C39.9727 56.3243 39.9297 59.7734 39.9297 60.8281C39.9297 61.6797 40.5117 62.6758 42.1328 62.3633C54.8399 58.125 64 46.1328 64 32C64 14.3281 49.6719 0 32 0Z" fill="white"/>
</svg>
