<svg width="65" height="64" viewBox="0 0 65 64" fill="none" xmlns="http://www.w3.org/2000/svg">
<g clip-path="url(#clip0_431_4137)">
<path d="M32.5406 0C15.0279 0 0.828857 14.3281 0.828857 32C0.828857 46.1406 9.91426 58.1328 22.5164 62.3633C24.1017 62.6563 24.6804 61.6679 24.6804 60.8242C24.6804 60.0624 24.6514 57.5391 24.6359 54.8672C15.8176 56.8008 13.9537 51.0938 13.9537 51.0938C12.5098 47.3984 10.4329 46.4141 10.4329 46.4141C7.55094 44.4297 10.6516 44.4688 10.6516 44.4688C13.8355 44.6914 15.5118 47.7656 15.5118 47.7656C18.3415 52.6562 22.9364 51.2422 24.7404 50.4219C25.0286 48.3594 25.8493 46.9453 26.7533 46.1484C19.7138 45.3399 12.3085 42.5938 12.3085 30.332C12.3085 26.8359 13.5453 23.9844 15.5698 21.7441C15.2466 20.9316 14.155 17.6757 15.8834 13.2715C15.8834 13.2715 18.5428 12.4121 24.6048 16.5527C27.1326 15.8399 29.8443 15.4883 32.5405 15.4766C35.2348 15.4883 37.9483 15.8438 40.4801 16.5566C46.5306 12.4121 49.1939 13.2754 49.1939 13.2754C50.9281 17.6836 49.8365 20.9355 49.5113 21.7441C51.5436 23.9844 52.7707 26.8359 52.7707 30.332C52.7707 42.625 45.3538 45.332 38.2891 46.125C39.4311 47.1172 40.4414 49.0625 40.4414 52.0469C40.4414 56.3243 40.3988 59.7734 40.3988 60.8281C40.3988 61.6797 40.9756 62.6758 42.5821 62.3633C55.1747 58.125 64.2523 46.1328 64.2523 32C64.2523 14.3281 50.0532 0 32.5406 0Z" fill="#64DFDF"/>
</g>
<defs>
<clipPath id="clip0_431_4137">
<rect width="63.4234" height="64" fill="white" transform="translate(0.828857)"/>
</clipPath>
</defs>
</svg>
