<svg width="24" height="22" viewBox="0 0 24 22" fill="none" xmlns="http://www.w3.org/2000/svg">
<g clip-path="url(#clip0_772_176)">
<path fill-rule="evenodd" clip-rule="evenodd" d="M20.9678 0C22.5785 0 23.8861 1.20441 23.8861 2.68787V19.3121C23.8861 20.7956 22.5785 22 20.9678 22H2.91831C1.30767 22 0 20.7956 0 19.3121L0 2.68787C0 1.20441 1.30763 0 2.91831 0L20.9678 0ZM7.48592 18.1877V8.48895H3.98511V18.1877H7.48592ZM20.1073 18.1877V12.6259C20.1073 9.64674 18.3803 8.26087 16.0774 8.26087C14.2204 8.26087 13.3886 9.2015 12.9229 9.86214V8.48895H9.42294C9.46936 9.39907 9.42294 18.1877 9.42294 18.1877H12.9228V12.7713C12.9228 12.4813 12.9455 12.1915 13.0382 11.9843C13.2908 11.4053 13.8671 10.8055 14.8341 10.8055C16.1 10.8055 16.6072 11.6952 16.6072 12.9985V18.1877H20.1073ZM5.75917 3.81227C4.56141 3.81227 3.77886 4.53754 3.77886 5.48814C3.77886 6.41876 4.53762 7.16401 5.71284 7.16401H5.73542C6.95609 7.16401 7.71592 6.41876 7.71592 5.48814C7.69329 4.53887 6.95823 3.81434 5.75917 3.81227V3.81227Z" fill="#63FFFF"/>
</g>
<defs>
<clipPath id="clip0_772_176">
<rect width="23.8861" height="22" fill="white"/>
</clipPath>
</defs>
</svg>
