<svg width="64" height="64" viewBox="0 0 64 64" fill="none" xmlns="http://www.w3.org/2000/svg">
<g clip-path="url(#clip0_432_4227)">
<path fill-rule="evenodd" clip-rule="evenodd" d="M55.6746 0C59.9514 0 63.4234 3.50375 63.4234 7.81925V56.1808C63.4234 60.4963 59.9512 64 55.6746 64H7.74881C3.47219 64 0 60.4963 0 56.1808L0 7.81925C0 3.50375 3.47206 0 7.74881 0L55.6746 0ZM19.8769 52.9098V24.6951H10.5814V52.9098H19.8769ZM53.3896 52.9098V36.7299C53.3896 28.0632 48.8041 24.0316 42.6893 24.0316C37.7586 24.0316 35.5499 26.768 34.3133 28.6899V24.6951H25.0202C25.1434 27.3428 25.0202 52.9098 25.0202 52.9098H34.3132V37.1527C34.3132 36.3092 34.3734 35.4663 34.6197 34.8634C35.2903 33.179 36.8205 31.4341 39.3881 31.4341C42.7494 31.4341 44.0961 34.0225 44.0961 37.8138V52.9098H53.3896ZM15.292 11.0903C12.1116 11.0903 10.0338 13.2001 10.0338 15.9655C10.0338 18.6727 12.0485 20.8407 15.169 20.8407H15.2289C18.4701 20.8407 20.4876 18.6727 20.4876 15.9655C20.4275 13.204 18.4758 11.0963 15.292 11.0903V11.0903Z" fill="#64DFDF"/>
</g>
<defs>
<clipPath id="clip0_432_4227">
<rect width="63.4234" height="64" fill="white"/>
</clipPath>
</defs>
</svg>
