<svg width="32" height="34" viewBox="0 0 32 34" fill="none" xmlns="http://www.w3.org/2000/svg">
<path d="M0.83252 10C0.83252 4.47715 5.30967 0 10.8325 0H21.9234C27.4463 0 31.9234 4.47715 31.9234 10V24C31.9234 29.5228 27.4463 34 21.9234 34H10.8325C5.30968 34 0.83252 29.5228 0.83252 24V10Z" fill="#63FFFF"/>
<path d="M7.85303 16.25C7.43881 16.25 7.10303 16.5858 7.10303 17C7.10303 17.4142 7.43881 17.75 7.85303 17.75L7.85303 16.25ZM25.6102 17.5303C25.9031 17.2374 25.9031 16.7626 25.6102 16.4697L20.8372 11.6967C20.5443 11.4038 20.0695 11.4038 19.7766 11.6967C19.4837 11.9896 19.4837 12.4645 19.7766 12.7574L24.0192 17L19.7766 21.2426C19.4837 21.5355 19.4837 22.0104 19.7766 22.3033C20.0695 22.5962 20.5443 22.5962 20.8372 22.3033L25.6102 17.5303ZM7.85303 17.75L25.0799 17.75L25.0799 16.25L7.85303 16.25L7.85303 17.75Z" fill="#00171F"/>
</svg>
