<svg width="131" height="30" viewBox="0 0 131 30" fill="none" xmlns="http://www.w3.org/2000/svg">
<g filter="url(#filter0_d_772_175)">
<g clip-path="url(#clip0_772_175)">
<path fill-rule="evenodd" clip-rule="evenodd" d="M24.9678 2C26.5785 2 27.8861 3.20441 27.8861 4.68787V21.3121C27.8861 22.7956 26.5785 24 24.9678 24H6.91831C5.30767 24 4 22.7956 4 21.3121V4.68787C4 3.20441 5.30763 2 6.91831 2H24.9678ZM11.4859 20.1877V10.4889H7.98511V20.1877H11.4859ZM24.1073 20.1877V14.6259C24.1073 11.6467 22.3803 10.2609 20.0774 10.2609C18.2204 10.2609 17.3886 11.2015 16.9229 11.8621V10.4889H13.4229C13.4694 11.3991 13.4229 20.1877 13.4229 20.1877H16.9228V14.7713C16.9228 14.4813 16.9455 14.1915 17.0382 13.9843C17.2908 13.4053 17.8671 12.8055 18.8341 12.8055C20.1 12.8055 20.6072 13.6952 20.6072 14.9985V20.1877H24.1073ZM9.75917 5.81227C8.56141 5.81227 7.77886 6.53754 7.77886 7.48814C7.77886 8.41876 8.53762 9.16401 9.71284 9.16401H9.73542C10.9561 9.16401 11.7159 8.41876 11.7159 7.48814C11.6933 6.53887 10.9582 5.81434 9.75917 5.81227V5.81227Z" fill="#63FFFF"/>
</g>
<g clip-path="url(#clip1_772_175)">
<path d="M64.4616 2C57.8661 2 52.5186 6.92529 52.5186 13C52.5186 17.8608 55.9402 21.9832 60.6864 23.4374C61.2834 23.5381 61.5014 23.1984 61.5014 22.9083C61.5014 22.6465 61.4904 21.7791 61.4846 20.8606C58.1635 21.5253 57.4615 19.5635 57.4615 19.5635C56.9178 18.2932 56.1356 17.9548 56.1356 17.9548C55.0502 17.2727 56.2179 17.2861 56.2179 17.2861C57.417 17.3627 58.0483 18.4194 58.0483 18.4194C59.1141 20.1006 60.8446 19.6145 61.524 19.3325C61.6325 18.6235 61.9416 18.1375 62.2821 17.8635C59.6309 17.5856 56.8419 16.6416 56.8419 12.4266C56.8419 11.2248 57.3077 10.2446 58.0702 9.47454C57.9485 9.19525 57.5373 8.07604 58.1883 6.56208C58.1883 6.56208 59.1899 6.26667 61.4729 7.69001C62.4249 7.44496 63.4462 7.32411 64.4616 7.32007C65.4763 7.32411 66.4983 7.44629 67.4518 7.69134C69.7305 6.26667 70.7335 6.56341 70.7335 6.56341C71.3866 8.07872 70.9755 9.19658 70.853 9.47454C71.6184 10.2446 72.0806 11.2249 72.0806 12.4266C72.0806 16.6523 69.2873 17.5829 66.6266 17.8555C67.0567 18.1965 67.4372 18.8652 67.4372 19.8911C67.4372 21.3615 67.4211 22.5471 67.4211 22.9097C67.4211 23.2024 67.6384 23.5448 68.2434 23.4374C72.9859 21.9805 76.4047 17.8582 76.4047 13C76.4047 6.92529 71.0571 2 64.4616 2Z" fill="#63FFFF"/>
</g>
<g clip-path="url(#clip2_772_175)">
<path d="M125.372 23.0061H99.933C99.6609 23.0061 99.4 22.8997 99.2077 22.7104C99.0153 22.521 98.9072 22.2642 98.9072 21.9965V5.03471C98.9072 4.76694 99.0153 4.51014 99.2077 4.3208C99.4 4.13146 99.6609 4.02509 99.933 4.02509H125.372C125.644 4.02509 125.905 4.13146 126.097 4.3208C126.29 4.51014 126.398 4.76694 126.398 5.03471V21.9965C126.398 22.2642 126.29 22.521 126.097 22.7104C125.905 22.8997 125.644 23.0061 125.372 23.0061ZM100.959 20.9868H124.346V6.04434H100.959V20.9868Z" fill="#63FFFF"/>
<path d="M112.653 18.2947C112.384 18.2947 112.127 18.1912 111.935 18.0066L99.2158 5.75646C99.0214 5.56902 98.9106 5.31324 98.9078 5.04538C98.9049 4.77752 99.0103 4.51954 99.2008 4.32817C99.3912 4.1368 99.6511 4.02773 99.9232 4.02496C100.195 4.02218 100.457 4.12592 100.652 4.31336L112.653 15.8716L124.655 4.31336C124.751 4.22055 124.865 4.14731 124.99 4.09783C125.115 4.04834 125.249 4.02358 125.383 4.02496C125.518 4.02633 125.651 4.05382 125.775 4.10584C125.899 4.15787 126.012 4.23341 126.106 4.32817C126.2 4.42292 126.275 4.53503 126.325 4.65809C126.375 4.78115 126.4 4.91275 126.399 5.04538C126.397 5.17801 126.37 5.30907 126.317 5.43107C126.264 5.55308 126.187 5.66365 126.091 5.75646L113.371 18.0066C113.179 18.1916 112.921 18.295 112.653 18.2947V18.2947Z" fill="#63FFFF"/>
<path d="M99.9331 23.0063C99.7261 23.0055 99.5242 22.9431 99.3539 22.8274C99.1836 22.7116 99.0529 22.5478 98.9789 22.3575C98.9049 22.1673 98.8911 21.9594 98.9394 21.7613C98.9876 21.5632 99.0957 21.3841 99.2492 21.2475L108.404 13.1059C108.503 13.0134 108.62 12.9414 108.748 12.8941C108.876 12.8468 109.012 12.8252 109.149 12.8305C109.286 12.8358 109.42 12.8679 109.544 12.925C109.667 12.982 109.778 13.0628 109.87 13.1627C109.962 13.2626 110.032 13.3795 110.077 13.5065C110.122 13.6335 110.141 13.7681 110.132 13.9024C110.124 14.0367 110.088 14.168 110.027 14.2885C109.967 14.409 109.882 14.5163 109.778 14.6042L100.62 22.7485C100.431 22.9151 100.187 23.0069 99.9331 23.0063V23.0063ZM125.371 23.0063C125.118 23.0059 124.875 22.913 124.687 22.7458L115.529 14.6015C115.335 14.4202 115.22 14.1712 115.209 13.9077C115.199 13.6442 115.293 13.3871 115.473 13.1913C115.653 12.9956 115.903 12.8768 116.17 12.8603C116.438 12.8438 116.701 12.931 116.904 13.1032L126.062 21.2475C126.216 21.3845 126.324 21.5642 126.372 21.7629C126.42 21.9617 126.406 22.1701 126.331 22.3607C126.256 22.5512 126.124 22.7149 125.953 22.8302C125.782 22.9455 125.579 23.0069 125.371 23.0063V23.0063Z" fill="#63FFFF"/>
</g>
</g>
<defs>
<filter id="filter0_d_772_175" x="0" y="0" width="130.4" height="30" filterUnits="userSpaceOnUse" color-interpolation-filters="sRGB">
<feFlood flood-opacity="0" result="BackgroundImageFix"/>
<feColorMatrix in="SourceAlpha" type="matrix" values="0 0 0 0 0 0 0 0 0 0 0 0 0 0 0 0 0 0 127 0" result="hardAlpha"/>
<feOffset dy="2"/>
<feGaussianBlur stdDeviation="2"/>
<feComposite in2="hardAlpha" operator="out"/>
<feColorMatrix type="matrix" values="0 0 0 0 0 0 0 0 0 0 0 0 0 0 0 0 0 0 0.25 0"/>
<feBlend mode="normal" in2="BackgroundImageFix" result="effect1_dropShadow_772_175"/>
<feBlend mode="normal" in="SourceGraphic" in2="effect1_dropShadow_772_175" result="shape"/>
</filter>
<clipPath id="clip0_772_175">
<rect width="23.8861" height="22" fill="white" transform="translate(4 2)"/>
</clipPath>
<clipPath id="clip1_772_175">
<rect width="23.8861" height="22" fill="white" transform="translate(52.5186 2)"/>
</clipPath>
<clipPath id="clip2_772_175">
<rect width="27.4928" height="19.5937" fill="white" transform="translate(98.9072 3.71875)"/>
</clipPath>
</defs>
</svg>
