<svg width="798" height="635" viewBox="0 0 798 635" fill="none" xmlns="http://www.w3.org/2000/svg">
<path d="M267.016 303.584C267.016 303.584 272.87 44.6532 308.87 18.6532C344.87 -7.34681 631.37 22.1532 631.37 84.1532C631.37 146.153 595.302 311.584 595.302 311.584L580.87 374.153L595.302 422.653L725.87 512.153L770.87 555.153L794.37 617.584L13.3697 617.584L35.8697 555.153L94.8698 512.153L267.016 405.153L278.37 366.153L267.016 303.584Z" fill="#E2F3F5"/>
<path d="M267.016 405.153L414.87 486.653L595.302 422.653M267.016 405.153L278.37 366.153L267.016 303.584M267.016 405.153L94.8698 512.153L35.8697 555.153L13.3697 617.584L794.37 617.584L770.87 555.153L725.87 512.153L595.302 422.653M595.302 422.653L580.87 374.153L595.302 311.584M267.016 303.584C267.016 303.584 272.87 44.6532 308.87 18.6532C344.87 -7.34681 631.37 22.1532 631.37 84.1532C631.37 146.153 595.302 311.584 595.302 311.584M267.016 303.584C302.802 355.584 392.37 401.653 414.87 400.653C437.37 399.653 524.737 368.152 595.302 311.584" stroke="black" stroke-opacity="0.6" stroke-width="5"/>
<path d="M416.87 487.653L261.37 403.653L95.8699 503.154L70.3699 617.653L492.87 619.654L737.37 617.653L726.37 503.154L592.87 422.153L416.87 487.653Z" fill="#3289EE" fill-opacity="0.8" stroke="#3F3D56" stroke-opacity="0.8" stroke-width="5"/>
<path d="M594.369 425.153L724.87 504.653L726.37 530.153L580.87 429.153L594.369 425.153Z" fill="#358DED" fill-opacity="0.8" stroke="#3F3D56" stroke-opacity="0.5"/>
<path d="M306.745 87.898C308.611 71.4349 323.473 59.5772 339.94 61.413L574.998 87.6189C591.464 89.4547 603.3 104.289 601.433 120.752L590.09 220.804C588.224 237.267 573.362 249.125 556.895 247.289L321.837 221.083C305.371 219.248 293.535 204.413 295.402 187.95L306.745 87.898Z" fill="#70B5FF"/>
<path d="M339.658 63.8971L574.716 90.103C589.81 91.7858 600.66 105.384 598.949 120.475L587.605 220.527C585.894 235.618 572.271 246.488 557.177 244.805L322.119 218.599C307.025 216.916 296.175 203.318 297.886 188.227L309.23 88.175C310.94 73.0839 324.564 62.2143 339.658 63.8971Z" stroke="black" stroke-opacity="0.5" stroke-width="5"/>
<path d="M333.045 102.594C333.645 97.1039 338.582 93.1314 344.074 93.7212L563.826 117.327C569.318 117.916 573.283 122.845 572.683 128.335L564.094 206.969C563.494 212.459 558.556 216.431 553.065 215.842L333.313 192.236C327.821 191.646 323.856 186.718 324.456 181.227L328.75 141.911L333.045 102.594Z" fill="#FDFDFD"/>
<path d="M343.802 96.2064L563.555 119.812C567.673 120.254 570.647 123.951 570.198 128.068L561.608 206.702C561.158 210.819 557.455 213.799 553.337 213.356L333.584 189.751C329.466 189.309 326.492 185.612 326.941 181.494L331.236 142.178L335.531 102.861C335.98 98.7434 339.684 95.7641 343.802 96.2064Z" stroke="black" stroke-opacity="0.7" stroke-width="5"/>
<path d="M467.585 275.938C462.252 268.488 374.946 260.445 371.578 264.925C368.209 269.404 374.937 334.657 406.967 339.866C439.465 345.15 472.917 283.388 467.585 275.938Z" fill="#338BED" fill-opacity="0.8" stroke="black" stroke-opacity="0.6" stroke-width="5"/>
<path d="M372.897 266.291C371.293 269.163 372.236 278.06 374.316 285.218C374.316 285.218 458.243 295.49 459.585 294.939C460.927 294.388 465.582 285.251 466.085 278.439C466.657 270.687 374.501 263.418 372.897 266.291Z" fill="white"/>
<path d="M261.87 407.153L97.8698 505.653L95.8698 517.653L278.87 416.153L261.87 407.153Z" fill="#4299EC"/>
<path d="M261.37 406.653L279.794 415.982L95.3699 518.153L97.3699 505.153L261.37 406.653Z" fill="#358AE7" fill-opacity="0.8" stroke="#3F3D56" stroke-opacity="0.5"/>
<path d="M353.601 122.397L354.238 116.987L351.321 116.64L351.422 115.775L355.398 116.248L354.66 122.523L353.601 122.397ZM354.908 114.854C354.667 114.826 354.473 114.729 354.327 114.563C354.182 114.388 354.124 114.176 354.153 113.927C354.182 113.677 354.287 113.489 354.468 113.362C354.65 113.227 354.861 113.173 355.102 113.202C355.343 113.231 355.536 113.332 355.682 113.507C355.828 113.672 355.886 113.88 355.857 114.13C355.828 114.379 355.722 114.572 355.54 114.707C355.36 114.834 355.149 114.883 354.908 114.854ZM360.386 123.205L361.023 117.796L359.229 117.582L359.323 116.781L361.125 116.931L361.187 116.401C361.277 115.635 361.552 115.044 362.011 114.627C362.479 114.212 363.147 114.056 364.016 114.159C364.636 114.233 365.224 114.425 365.781 114.736L365.442 115.507C365.198 115.356 364.966 115.25 364.746 115.189C364.536 115.12 364.293 115.069 364.018 115.036C363.45 114.969 363.024 115.066 362.74 115.329C362.466 115.585 362.298 115.971 362.237 116.487L362.17 117.055L364.804 117.369L364.702 118.234L362.069 117.92L361.432 123.33L360.386 123.205ZM370.325 126.693C369.512 125.89 368.901 124.966 368.491 123.922C368.09 122.879 367.963 121.734 368.11 120.486C368.257 119.238 368.646 118.154 369.278 117.234C369.918 116.315 370.727 115.561 371.704 114.97L372.221 115.582C371.266 116.21 370.531 116.93 370.017 117.741C369.511 118.554 369.194 119.507 369.065 120.6C368.937 121.693 369.024 122.694 369.327 123.603C369.639 124.513 370.186 125.385 370.969 126.22L370.325 126.693ZM374.116 127.577C373.807 127.54 373.536 127.464 373.305 127.35L373.624 126.537C373.707 126.573 373.794 126.605 373.887 126.633C373.988 126.663 374.086 126.683 374.181 126.695C374.62 126.747 374.992 126.66 375.298 126.435C375.603 126.218 375.855 125.925 376.056 125.556L376.304 125.115L374.114 118.478L375.185 118.606L376.313 122.262C376.401 122.551 376.49 122.863 376.582 123.197C376.682 123.532 376.779 123.858 376.873 124.174L376.925 124.181C377.072 123.893 377.22 123.6 377.368 123.304C377.526 123 377.673 122.712 377.81 122.44L379.587 119.13L380.594 119.25L377.032 125.712C376.875 126.008 376.704 126.279 376.517 126.528C376.331 126.776 376.119 126.982 375.882 127.146C375.643 127.318 375.376 127.444 375.078 127.522C374.79 127.601 374.469 127.619 374.116 127.577ZM384.337 126.216C383.924 126.167 383.537 126.046 383.176 125.855C382.823 125.664 382.521 125.415 382.269 125.105C382.018 124.787 381.831 124.416 381.706 123.991C381.591 123.558 381.564 123.084 381.625 122.567C381.687 122.042 381.823 121.587 382.035 121.202C382.255 120.809 382.524 120.488 382.842 120.238C383.159 119.988 383.512 119.811 383.899 119.709C384.295 119.608 384.699 119.582 385.112 119.631C385.525 119.68 385.908 119.8 386.261 119.991C386.623 120.182 386.929 120.437 387.179 120.755C387.43 121.072 387.612 121.448 387.727 121.88C387.852 122.305 387.883 122.78 387.821 123.305C387.761 123.822 387.62 124.276 387.399 124.669C387.188 125.054 386.924 125.372 386.606 125.622C386.29 125.864 385.934 126.035 385.538 126.136C385.151 126.238 384.75 126.265 384.337 126.216ZM384.441 125.338C384.742 125.374 385.02 125.35 385.274 125.267C385.537 125.176 385.768 125.038 385.964 124.852C386.17 124.658 386.338 124.42 386.467 124.139C386.596 123.858 386.682 123.536 386.724 123.175C386.767 122.813 386.758 122.481 386.698 122.177C386.638 121.864 386.531 121.589 386.376 121.353C386.229 121.117 386.037 120.928 385.801 120.787C385.574 120.638 385.31 120.545 385.009 120.509C384.708 120.473 384.425 120.501 384.161 120.591C383.907 120.675 383.677 120.813 383.471 121.007C383.274 121.201 383.11 121.444 382.98 121.734C382.851 122.015 382.765 122.336 382.722 122.698C382.68 123.059 382.689 123.392 382.749 123.696C382.809 124 382.913 124.27 383.059 124.506C383.216 124.734 383.408 124.922 383.634 125.072C383.871 125.213 384.139 125.302 384.441 125.338ZM391.381 127.055C390.623 126.965 390.093 126.688 389.79 126.224C389.496 125.752 389.398 125.099 389.497 124.264L389.956 120.365L391.027 120.493L390.585 124.25C390.515 124.844 390.57 125.3 390.751 125.618C390.941 125.929 391.299 126.116 391.824 126.178C392.185 126.221 392.523 126.17 392.837 126.024C393.152 125.869 393.51 125.611 393.91 125.248L394.422 120.897L395.48 121.023L394.742 127.298L393.877 127.195L393.916 126.087L393.864 126.081C393.502 126.413 393.118 126.673 392.712 126.86C392.315 127.048 391.871 127.113 391.381 127.055ZM397.677 122.333L397.772 121.532L403.322 122.193L403.228 122.994L397.677 122.333ZM397.354 125.083L397.448 124.282L402.999 124.943L402.905 125.744L397.354 125.083ZM405.418 123.255L405.512 122.454L411.063 123.116L410.968 123.916L405.418 123.255ZM405.094 126.005L405.188 125.204L410.739 125.866L410.645 126.666L405.094 126.005ZM415.138 125.146L414.85 124.483C415.28 124.308 415.632 124.066 415.904 123.758C416.176 123.441 416.353 123.056 416.432 122.603C416.323 122.642 416.208 122.655 416.087 122.641C415.812 122.608 415.598 122.499 415.445 122.315C415.302 122.124 415.246 121.89 415.279 121.615C415.314 121.313 415.433 121.083 415.635 120.924C415.838 120.756 416.077 120.689 416.353 120.722C416.697 120.763 416.96 120.934 417.143 121.235C417.326 121.536 417.388 121.932 417.33 122.422C417.254 123.068 417.023 123.625 416.636 124.094C416.25 124.563 415.75 124.913 415.138 125.146ZM420.384 130.353L421.466 121.161L422.525 121.287L422.23 123.791L421.991 125.268L422.029 125.273C422.398 124.959 422.781 124.708 423.178 124.52C423.584 124.332 424.033 124.268 424.523 124.326C425.272 124.416 425.793 124.696 426.087 125.167C426.39 125.631 426.492 126.28 426.394 127.115L425.935 131.014L424.877 130.888L425.319 127.131C425.389 126.537 425.328 126.085 425.138 125.774C424.949 125.455 424.596 125.265 424.08 125.203C423.89 125.181 423.711 125.185 423.541 125.217C423.381 125.242 423.218 125.292 423.052 125.369C422.886 125.445 422.713 125.546 422.532 125.673C422.352 125.792 422.161 125.935 421.958 126.102L421.443 130.479L420.384 130.353ZM430.081 131.665C429.789 131.631 429.519 131.555 429.27 131.438C429.021 131.33 428.807 131.191 428.626 131.021C428.455 130.843 428.326 130.64 428.239 130.412C428.154 130.175 428.128 129.914 428.161 129.63C428.203 129.277 428.32 128.981 428.514 128.743C428.718 128.496 429.011 128.3 429.395 128.154C429.787 128.008 430.279 127.91 430.87 127.858C431.461 127.806 432.164 127.794 432.982 127.822C432.998 127.605 432.988 127.399 432.95 127.202C432.912 127.006 432.836 126.831 432.723 126.678C432.612 126.516 432.453 126.38 432.248 126.268C432.052 126.157 431.803 126.084 431.502 126.048C431.089 125.999 430.683 126.033 430.285 126.152C429.888 126.262 429.533 126.39 429.219 126.535L428.891 125.763C429.058 125.678 429.251 125.597 429.47 125.518C429.698 125.432 429.933 125.359 430.176 125.301C430.427 125.244 430.689 125.205 430.962 125.185C431.236 125.157 431.51 125.159 431.786 125.192C432.646 125.294 433.255 125.607 433.613 126.129C433.98 126.644 434.117 127.294 434.025 128.077L433.572 131.924L432.707 131.821L432.717 130.958L432.678 130.954C432.293 131.187 431.874 131.377 431.42 131.524C430.975 131.672 430.529 131.719 430.081 131.665ZM430.466 130.847C430.827 130.89 431.189 130.855 431.552 130.741C431.924 130.619 432.308 130.43 432.705 130.171L432.899 128.519C432.222 128.49 431.65 128.496 431.183 128.537C430.724 128.578 430.349 128.651 430.057 128.756C429.775 128.853 429.568 128.982 429.436 129.14C429.305 129.291 429.227 129.469 429.203 129.676C429.182 129.856 429.202 130.016 429.264 130.154C429.328 130.284 429.415 130.399 429.525 130.499C429.645 130.592 429.784 130.67 429.943 130.732C430.111 130.787 430.285 130.826 430.466 130.847ZM435.865 132.197L436.603 125.923L437.481 126.027L437.445 127.11L437.497 127.116C437.865 126.802 438.253 126.551 438.659 126.364C439.065 126.177 439.513 126.112 440.003 126.171C440.752 126.26 441.273 126.54 441.567 127.012C441.87 127.475 441.973 128.125 441.874 128.96L441.416 132.859L440.357 132.733L440.799 128.975C440.869 128.382 440.809 127.929 440.618 127.619C440.429 127.299 440.076 127.109 439.56 127.047C439.371 127.025 439.191 127.03 439.022 127.062C438.862 127.086 438.699 127.137 438.533 127.213C438.367 127.289 438.193 127.391 438.012 127.518C437.833 127.636 437.641 127.779 437.438 127.947L436.923 132.323L435.865 132.197ZM445.885 133.548C445.471 133.499 445.106 133.381 444.787 133.195C444.477 133.01 444.218 132.765 444.01 132.461C443.802 132.148 443.658 131.782 443.576 131.362C443.495 130.942 443.485 130.469 443.547 129.944C443.606 129.436 443.738 128.99 443.94 128.603C444.152 128.21 444.404 127.886 444.696 127.633C444.996 127.381 445.327 127.198 445.69 127.084C446.052 126.97 446.418 126.935 446.788 126.979C447.167 127.024 447.494 127.137 447.769 127.318C448.054 127.492 448.319 127.724 448.564 128.015L448.603 128.02L448.688 126.852L448.972 124.437L450.031 124.564L448.949 133.756L448.071 133.652L448.078 132.815L448.04 132.81C447.75 133.046 447.413 133.241 447.028 133.396C446.653 133.544 446.272 133.594 445.885 133.548ZM446.209 132.683C446.828 132.757 447.455 132.513 448.088 131.952L448.456 128.827C448.203 128.527 447.946 128.304 447.684 128.159C447.43 128.015 447.166 127.927 446.89 127.894C446.615 127.862 446.349 127.891 446.094 127.983C445.849 128.067 445.623 128.206 445.417 128.4C445.221 128.586 445.054 128.819 444.916 129.099C444.778 129.38 444.688 129.701 444.645 130.062C444.556 130.82 444.646 131.428 444.915 131.888C445.192 132.349 445.624 132.614 446.209 132.683ZM454.128 134.53C453.509 134.456 452.947 134.294 452.445 134.042C451.943 133.781 451.514 133.494 451.158 133.181L451.731 132.543C452.062 132.844 452.434 133.098 452.846 133.304C453.266 133.511 453.769 133.65 454.354 133.719C454.888 133.783 455.295 133.735 455.576 133.577C455.866 133.411 456.026 133.194 456.058 132.927C456.072 132.807 456.064 132.692 456.033 132.584C456.002 132.475 455.919 132.365 455.784 132.253C455.657 132.142 455.47 132.028 455.222 131.911C454.974 131.794 454.644 131.668 454.232 131.532C453.435 131.262 452.847 130.961 452.467 130.627C452.097 130.287 451.94 129.879 451.995 129.406C452.025 129.156 452.108 128.931 452.245 128.729C452.383 128.518 452.569 128.348 452.803 128.219C453.046 128.082 453.331 127.99 453.66 127.942C453.998 127.886 454.382 127.884 454.813 127.935C455.295 127.992 455.75 128.129 456.178 128.346C456.607 128.555 456.964 128.785 457.249 129.037L456.652 129.66C456.382 129.427 456.078 129.229 455.74 129.067C455.401 128.904 455.029 128.799 454.625 128.75C454.091 128.687 453.706 128.733 453.47 128.888C453.234 129.043 453.101 129.241 453.073 129.482C453.04 129.757 453.158 129.985 453.424 130.165C453.692 130.337 454.141 130.53 454.77 130.745C455.282 130.919 455.698 131.091 456.018 131.26C456.34 131.42 456.586 131.589 456.757 131.767C456.937 131.945 457.05 132.133 457.097 132.331C457.152 132.53 457.165 132.749 457.137 132.99C457.106 133.249 457.018 133.482 456.871 133.692C456.724 133.901 456.52 134.078 456.259 134.221C456.006 134.366 455.698 134.464 455.334 134.517C454.978 134.579 454.576 134.584 454.128 134.53ZM461.739 135.437C461.326 135.388 460.939 135.267 460.577 135.076C460.225 134.886 459.922 134.636 459.671 134.327C459.42 134.009 459.233 133.637 459.108 133.212C458.993 132.78 458.966 132.305 459.027 131.789C459.089 131.264 459.225 130.808 459.436 130.423C459.657 130.031 459.926 129.709 460.244 129.459C460.561 129.209 460.913 129.033 461.301 128.93C461.697 128.829 462.101 128.803 462.514 128.852C462.927 128.902 463.31 129.021 463.663 129.212C464.024 129.403 464.33 129.658 464.581 129.976C464.832 130.294 465.014 130.669 465.129 131.102C465.254 131.527 465.285 132.002 465.223 132.527C465.162 133.043 465.022 133.498 464.801 133.89C464.59 134.275 464.326 134.593 464.008 134.843C463.692 135.085 463.336 135.256 462.94 135.357C462.553 135.46 462.152 135.486 461.739 135.437ZM461.843 134.559C462.144 134.595 462.421 134.571 462.676 134.488C462.939 134.397 463.169 134.259 463.366 134.073C463.572 133.879 463.739 133.642 463.869 133.36C463.998 133.079 464.083 132.758 464.126 132.396C464.169 132.035 464.16 131.702 464.099 131.398C464.04 131.085 463.933 130.811 463.778 130.574C463.631 130.338 463.439 130.15 463.203 130.008C462.976 129.859 462.712 129.766 462.411 129.73C462.11 129.695 461.827 129.722 461.563 129.813C461.309 129.896 461.079 130.034 460.873 130.228C460.676 130.423 460.512 130.665 460.382 130.955C460.253 131.236 460.167 131.558 460.124 131.919C460.082 132.281 460.091 132.613 460.151 132.917C460.211 133.221 460.315 133.491 460.461 133.727C460.618 133.955 460.809 134.144 461.036 134.293C461.273 134.434 461.541 134.523 461.843 134.559ZM466.374 135.832L467.112 129.557L467.964 129.659L467.957 130.496L467.983 130.499C468.181 130.226 468.398 130.012 468.635 129.857C468.871 129.701 469.17 129.645 469.531 129.688C470.142 129.761 470.496 130.17 470.591 130.914C470.812 130.6 471.04 130.361 471.278 130.198C471.525 130.026 471.829 129.962 472.191 130.005C472.629 130.058 472.95 130.266 473.151 130.63C473.362 130.987 473.431 131.48 473.357 132.108L472.828 136.601L471.77 136.475L472.289 132.059C472.375 131.328 472.195 130.935 471.747 130.882C471.523 130.855 471.333 130.916 471.176 131.063C471.02 131.201 470.837 131.424 470.626 131.73L470.091 136.275L469.11 136.158L469.63 131.743C469.673 131.381 469.653 131.104 469.571 130.911C469.498 130.71 469.346 130.596 469.114 130.568C468.89 130.542 468.691 130.601 468.517 130.746C468.344 130.882 468.16 131.105 467.967 131.414L467.432 135.958L466.374 135.832ZM477.607 137.327C477.134 137.271 476.699 137.145 476.303 136.95C475.916 136.755 475.584 136.497 475.308 136.176C475.04 135.856 474.839 135.483 474.706 135.057C474.583 134.624 474.552 134.144 474.614 133.619C474.673 133.111 474.813 132.666 475.033 132.281C475.261 131.898 475.538 131.582 475.864 131.333C476.199 131.085 476.564 130.91 476.96 130.809C477.366 130.7 477.779 130.671 478.201 130.721C478.648 130.775 479.04 130.895 479.376 131.084C479.721 131.265 479.999 131.498 480.209 131.785C480.429 132.073 480.581 132.406 480.668 132.783C480.755 133.16 480.772 133.567 480.72 134.006C480.706 134.127 480.688 134.243 480.666 134.353C480.645 134.464 480.62 134.562 480.593 134.646L475.649 134.057C475.633 134.779 475.828 135.348 476.233 135.763C476.648 136.17 477.182 136.413 477.836 136.491C478.215 136.536 478.561 136.525 478.874 136.457C479.197 136.382 479.511 136.271 479.817 136.124L480.122 136.868C479.788 137.037 479.41 137.171 478.988 137.269C478.575 137.369 478.115 137.388 477.607 137.327ZM478.128 131.564C477.87 131.533 477.615 131.546 477.364 131.604C477.122 131.662 476.896 131.762 476.688 131.903C476.48 132.035 476.298 132.214 476.14 132.44C475.983 132.665 475.86 132.93 475.772 133.234L479.773 133.71C479.806 133.06 479.674 132.555 479.376 132.197C479.086 131.839 478.67 131.628 478.128 131.564ZM484.8 133.445L484.511 132.782C484.942 132.607 485.293 132.365 485.565 132.057C485.838 131.74 486.014 131.355 486.094 130.902C485.984 130.942 485.87 130.954 485.749 130.94C485.474 130.907 485.26 130.799 485.107 130.615C484.963 130.423 484.908 130.189 484.94 129.914C484.976 129.613 485.095 129.382 485.297 129.223C485.5 129.055 485.739 128.988 486.014 129.021C486.358 129.062 486.622 129.233 486.805 129.534C486.987 129.835 487.05 130.231 486.992 130.721C486.916 131.367 486.685 131.924 486.298 132.393C485.911 132.862 485.412 133.213 484.8 133.445ZM490.734 141.038L490.217 140.427C491.172 139.799 491.903 139.079 492.408 138.266C492.923 137.454 493.244 136.502 493.373 135.409C493.502 134.316 493.41 133.314 493.098 132.404C492.795 131.496 492.252 130.623 491.469 129.788L492.113 129.315C492.926 130.119 493.533 131.042 493.934 132.085C494.344 133.129 494.475 134.275 494.328 135.523C494.181 136.771 493.788 137.854 493.147 138.773C492.515 139.693 491.711 140.448 490.734 141.038ZM502.048 142.072C501.643 142.024 501.294 141.952 501 141.856C500.705 141.768 500.466 141.648 500.283 141.495C500.1 141.343 499.975 141.149 499.906 140.914C499.837 140.687 499.822 140.406 499.862 140.07C499.889 139.838 499.919 139.619 499.952 139.413C499.994 139.2 500.032 138.995 500.064 138.798C500.104 138.602 500.14 138.406 500.172 138.209C500.213 138.013 500.246 137.808 500.271 137.592C500.286 137.463 500.275 137.34 500.236 137.222C500.199 137.095 500.117 136.976 499.99 136.865C499.863 136.754 499.679 136.653 499.436 136.563C499.203 136.475 498.896 136.407 498.518 136.362L498.597 135.691C498.975 135.736 499.289 135.743 499.537 135.711C499.793 135.681 499.996 135.626 500.145 135.548C500.294 135.47 500.401 135.378 500.465 135.272C500.531 135.158 500.572 135.036 500.587 134.907C500.636 134.494 500.662 134.087 500.665 133.686C500.678 133.277 500.711 132.849 500.764 132.401C500.804 132.066 500.883 131.796 501.003 131.592C501.124 131.379 501.291 131.22 501.504 131.115C501.718 131.009 501.978 130.949 502.285 130.933C502.593 130.909 502.95 130.92 503.354 130.969L504.142 131.062L504.07 131.669L503.399 131.589C503.072 131.55 502.798 131.54 502.578 131.557C502.367 131.575 502.195 131.625 502.063 131.705C501.94 131.786 501.848 131.902 501.787 132.052C501.727 132.193 501.684 132.367 501.66 132.573C501.616 132.944 501.584 133.328 501.564 133.727C501.544 134.118 501.51 134.515 501.462 134.92C501.413 135.341 501.289 135.654 501.09 135.857C500.902 136.053 500.579 136.163 500.122 136.187L500.116 136.239C500.555 136.369 500.842 136.556 500.979 136.8C501.126 137.035 501.175 137.364 501.125 137.786C501.074 138.225 501.014 138.623 500.945 138.982C500.877 139.34 500.819 139.718 500.773 140.113C500.748 140.32 500.749 140.499 500.775 140.651C500.8 140.811 500.863 140.945 500.963 141.053C501.073 141.162 501.228 141.25 501.43 141.318C501.64 141.386 501.908 141.44 502.235 141.479L502.906 141.559L502.835 142.166L502.048 142.072ZM351.166 146.434C350.675 146.375 350.228 146.248 349.823 146.051C349.427 145.855 349.091 145.602 348.813 145.289C348.537 144.968 348.336 144.595 348.212 144.17C348.088 143.737 348.057 143.261 348.118 142.745C348.18 142.22 348.325 141.766 348.553 141.383C348.791 140.992 349.086 140.674 349.438 140.428C349.79 140.182 350.185 140.011 350.624 139.915C351.071 139.82 351.532 139.8 352.005 139.857C352.521 139.918 352.954 140.061 353.303 140.286C353.66 140.512 353.953 140.765 354.182 141.046L353.572 141.667C353.34 141.412 353.09 141.203 352.821 141.04C352.561 140.879 352.267 140.778 351.94 140.739C351.579 140.696 351.241 140.717 350.925 140.802C350.611 140.878 350.333 141.01 350.093 141.2C349.861 141.39 349.667 141.629 349.511 141.916C349.356 142.194 349.258 142.514 349.215 142.876C349.173 143.237 349.19 143.571 349.267 143.877C349.353 144.184 349.487 144.457 349.668 144.697C349.859 144.929 350.094 145.123 350.372 145.279C350.66 145.426 350.985 145.522 351.346 145.565C351.734 145.611 352.095 145.58 352.431 145.471C352.776 145.355 353.091 145.201 353.375 145.008L353.773 145.749C353.383 146.017 352.968 146.212 352.526 146.334C352.084 146.456 351.63 146.489 351.166 146.434ZM358.312 147.285C357.899 147.236 357.512 147.115 357.15 146.924C356.797 146.734 356.495 146.484 356.244 146.174C355.993 145.857 355.806 145.485 355.681 145.06C355.566 144.627 355.539 144.153 355.6 143.636C355.662 143.111 355.798 142.656 356.009 142.271C356.23 141.879 356.499 141.557 356.816 141.307C357.134 141.057 357.486 140.881 357.873 140.778C358.269 140.677 358.674 140.651 359.087 140.7C359.5 140.75 359.883 140.869 360.236 141.06C360.597 141.251 360.903 141.506 361.154 141.824C361.404 142.142 361.587 142.517 361.702 142.949C361.826 143.375 361.858 143.85 361.796 144.375C361.735 144.891 361.595 145.346 361.374 145.738C361.163 146.123 360.898 146.441 360.581 146.691C360.265 146.933 359.908 147.104 359.513 147.205C359.125 147.308 358.725 147.334 358.312 147.285ZM358.415 146.407C358.717 146.443 358.994 146.419 359.248 146.336C359.512 146.245 359.742 146.107 359.939 145.921C360.145 145.727 360.312 145.49 360.441 145.208C360.57 144.927 360.656 144.605 360.699 144.244C360.741 143.882 360.732 143.55 360.672 143.246C360.613 142.933 360.506 142.659 360.35 142.422C360.204 142.186 360.012 141.998 359.776 141.856C359.549 141.707 359.285 141.614 358.984 141.578C358.682 141.542 358.4 141.57 358.136 141.661C357.882 141.744 357.652 141.882 357.446 142.076C357.248 142.271 357.085 142.513 356.955 142.803C356.825 143.084 356.74 143.406 356.697 143.767C356.655 144.129 356.663 144.461 356.724 144.765C356.784 145.069 356.887 145.339 357.034 145.575C357.191 145.803 357.382 145.991 357.609 146.141C357.845 146.282 358.114 146.371 358.415 146.407ZM363.398 147.734L364.137 141.459L365.015 141.564L364.979 142.646L365.03 142.652C365.399 142.338 365.786 142.088 366.192 141.9C366.598 141.713 367.047 141.649 367.537 141.707C368.286 141.796 368.807 142.077 369.1 142.548C369.404 143.012 369.506 143.661 369.408 144.496L368.949 148.395L367.891 148.269L368.333 144.512C368.403 143.918 368.342 143.466 368.152 143.155C367.963 142.836 367.61 142.645 367.094 142.584C366.904 142.561 366.725 142.566 366.555 142.598C366.395 142.623 366.232 142.673 366.066 142.749C365.9 142.826 365.727 142.927 365.546 143.054C365.366 143.172 365.175 143.315 364.972 143.483L364.457 147.86L363.398 147.734ZM373.922 149.145C373.302 149.071 372.741 148.908 372.238 148.656C371.736 148.395 371.308 148.109 370.952 147.796L371.524 147.157C371.855 147.458 372.227 147.712 372.639 147.918C373.06 148.125 373.563 148.264 374.148 148.334C374.681 148.397 375.088 148.35 375.369 148.191C375.659 148.025 375.82 147.808 375.851 147.542C375.865 147.421 375.857 147.307 375.826 147.198C375.795 147.09 375.712 146.979 375.577 146.867C375.45 146.756 375.263 146.642 375.015 146.526C374.767 146.409 374.437 146.282 374.026 146.146C373.228 145.876 372.64 145.575 372.26 145.242C371.89 144.901 371.733 144.494 371.789 144.02C371.818 143.771 371.901 143.545 372.039 143.343C372.177 143.133 372.363 142.963 372.596 142.833C372.839 142.697 373.125 142.604 373.453 142.556C373.791 142.5 374.176 142.498 374.606 142.549C375.088 142.607 375.543 142.744 375.971 142.961C376.401 143.169 376.757 143.399 377.042 143.651L376.445 144.274C376.176 144.041 375.872 143.843 375.533 143.681C375.194 143.518 374.823 143.413 374.418 143.365C373.885 143.301 373.5 143.347 373.263 143.502C373.027 143.657 372.895 143.855 372.866 144.096C372.834 144.372 372.951 144.599 373.218 144.78C373.486 144.951 373.934 145.144 374.563 145.359C375.075 145.533 375.491 145.705 375.812 145.874C376.133 146.035 376.379 146.204 376.55 146.381C376.73 146.56 376.843 146.748 376.89 146.945C376.945 147.144 376.958 147.364 376.93 147.605C376.9 147.863 376.811 148.097 376.664 148.306C376.517 148.516 376.313 148.692 376.052 148.835C375.8 148.98 375.491 149.078 375.127 149.131C374.771 149.193 374.369 149.198 373.922 149.145ZM381.533 150.051C381.12 150.002 380.732 149.882 380.371 149.69C380.018 149.5 379.716 149.25 379.464 148.941C379.214 148.623 379.026 148.251 378.902 147.826C378.787 147.394 378.76 146.919 378.82 146.403C378.882 145.878 379.019 145.423 379.23 145.038C379.45 144.645 379.72 144.324 380.037 144.073C380.354 143.823 380.707 143.647 381.094 143.545C381.49 143.443 381.894 143.417 382.307 143.467C382.721 143.516 383.103 143.636 383.456 143.826C383.818 144.018 384.124 144.272 384.374 144.59C384.625 144.908 384.808 145.283 384.922 145.716C385.047 146.141 385.078 146.616 385.017 147.141C384.956 147.657 384.815 148.112 384.594 148.505C384.383 148.89 384.119 149.207 383.802 149.458C383.485 149.699 383.129 149.871 382.733 149.972C382.346 150.074 381.946 150.1 381.533 150.051ZM381.636 149.173C381.937 149.209 382.215 149.186 382.469 149.102C382.733 149.012 382.963 148.873 383.159 148.687C383.365 148.493 383.533 148.256 383.662 147.975C383.791 147.693 383.877 147.372 383.919 147.01C383.962 146.649 383.953 146.316 383.893 146.012C383.834 145.7 383.726 145.425 383.571 145.188C383.424 144.953 383.233 144.764 382.996 144.622C382.769 144.473 382.505 144.381 382.204 144.345C381.903 144.309 381.62 144.336 381.357 144.427C381.103 144.51 380.872 144.649 380.666 144.842C380.469 145.037 380.305 145.279 380.175 145.569C380.046 145.851 379.96 146.172 379.918 146.534C379.875 146.895 379.884 147.228 379.944 147.532C380.004 147.836 380.108 148.105 380.255 148.341C380.411 148.569 380.603 148.758 380.83 148.907C381.066 149.049 381.335 149.137 381.636 149.173ZM390.654 151.138C389.983 151.058 389.493 150.808 389.185 150.387C388.876 149.966 388.766 149.381 388.855 148.632L389.587 142.409L387.354 142.143L387.455 141.278L390.747 141.67L389.904 148.836C389.849 149.301 389.922 149.65 390.121 149.883C390.321 150.108 390.611 150.243 390.99 150.288C391.36 150.332 391.762 150.284 392.198 150.144L392.376 150.963C392.069 151.049 391.792 151.108 391.544 151.139C391.295 151.179 390.998 151.179 390.654 151.138ZM397.4 151.942C396.927 151.885 396.492 151.759 396.096 151.564C395.709 151.369 395.377 151.112 395.101 150.791C394.833 150.471 394.633 150.098 394.5 149.672C394.376 149.238 394.345 148.759 394.407 148.234C394.467 147.726 394.607 147.28 394.826 146.896C395.055 146.513 395.332 146.197 395.658 145.947C395.992 145.699 396.358 145.525 396.754 145.423C397.159 145.315 397.573 145.285 397.994 145.336C398.442 145.389 398.833 145.51 399.169 145.698C399.514 145.879 399.792 146.113 400.003 146.4C400.222 146.688 400.375 147.02 400.461 147.397C400.548 147.774 400.565 148.182 400.514 148.621C400.5 148.741 400.482 148.857 400.46 148.968C400.438 149.079 400.413 149.176 400.386 149.26L395.442 148.671C395.427 149.394 395.622 149.962 396.027 150.377C396.441 150.784 396.976 151.027 397.63 151.105C398.008 151.15 398.354 151.139 398.668 151.071C398.991 150.997 399.305 150.886 399.61 150.739L399.915 151.482C399.581 151.652 399.203 151.786 398.781 151.884C398.368 151.983 397.908 152.002 397.4 151.942ZM397.921 146.178C397.663 146.147 397.409 146.16 397.158 146.218C396.915 146.276 396.689 146.376 396.481 146.517C396.273 146.649 396.091 146.828 395.933 147.054C395.776 147.279 395.653 147.544 395.565 147.848L399.567 148.325C399.6 147.674 399.467 147.169 399.169 146.811C398.879 146.453 398.464 146.242 397.921 146.178ZM404.753 152.818C404.461 152.783 404.223 152.654 404.039 152.432C403.865 152.21 403.797 151.936 403.835 151.609C403.874 151.282 404.004 151.031 404.225 150.856C404.456 150.674 404.717 150.601 405.01 150.636C405.303 150.671 405.536 150.803 405.709 151.033C405.893 151.256 405.965 151.531 405.926 151.858C405.888 152.185 405.754 152.435 405.524 152.608C405.303 152.783 405.046 152.853 404.753 152.818ZM413.875 153.904C413.203 153.824 412.714 153.574 412.405 153.153C412.097 152.733 411.987 152.148 412.075 151.399L412.807 145.176L410.574 144.91L410.676 144.045L413.968 144.437L413.124 151.602C413.07 152.067 413.142 152.416 413.342 152.649C413.542 152.874 413.832 153.009 414.21 153.054C414.58 153.098 414.983 153.05 415.418 152.91L415.597 153.73C415.29 153.815 415.013 153.874 414.765 153.906C414.515 153.946 414.219 153.945 413.875 153.904ZM420.234 154.662C419.82 154.613 419.433 154.492 419.072 154.301C418.719 154.111 418.417 153.861 418.165 153.551C417.915 153.234 417.727 152.862 417.603 152.437C417.488 152.004 417.461 151.53 417.521 151.013C417.583 150.488 417.72 150.033 417.931 149.648C418.151 149.256 418.42 148.934 418.738 148.684C419.055 148.434 419.408 148.258 419.795 148.155C420.191 148.054 420.595 148.028 421.008 148.077C421.421 148.127 421.804 148.246 422.157 148.437C422.519 148.628 422.825 148.883 423.075 149.201C423.326 149.519 423.509 149.894 423.623 150.327C423.748 150.752 423.779 151.227 423.718 151.752C423.657 152.268 423.516 152.723 423.295 153.115C423.084 153.5 422.82 153.818 422.502 154.068C422.186 154.31 421.83 154.481 421.434 154.582C421.047 154.685 420.647 154.711 420.234 154.662ZM420.337 153.784C420.638 153.82 420.916 153.796 421.17 153.713C421.434 153.622 421.664 153.484 421.86 153.298C422.066 153.104 422.234 152.867 422.363 152.585C422.492 152.304 422.578 151.982 422.62 151.621C422.663 151.259 422.654 150.927 422.594 150.623C422.535 150.31 422.427 150.036 422.272 149.799C422.125 149.563 421.933 149.375 421.697 149.233C421.47 149.084 421.206 148.991 420.905 148.955C420.604 148.919 420.321 148.947 420.058 149.038C419.803 149.121 419.573 149.259 419.367 149.453C419.17 149.648 419.006 149.89 418.876 150.18C418.747 150.461 418.661 150.783 418.619 151.144C418.576 151.506 418.585 151.838 418.645 152.142C418.705 152.446 418.809 152.716 418.956 152.952C419.112 153.18 419.304 153.369 419.53 153.518C419.767 153.659 420.036 153.748 420.337 153.784ZM427.6 158.315C426.679 158.205 425.983 157.97 425.51 157.608C425.047 157.247 424.848 156.787 424.914 156.228C424.943 155.978 425.058 155.743 425.258 155.522C425.467 155.303 425.751 155.114 426.11 154.956L426.116 154.905C425.955 154.789 425.82 154.642 425.71 154.463C425.6 154.284 425.561 154.062 425.593 153.795C425.616 153.597 425.704 153.402 425.858 153.211C426.012 153.011 426.219 152.844 426.479 152.709L426.486 152.657C426.29 152.468 426.13 152.231 426.006 151.946C425.893 151.653 425.858 151.317 425.902 150.938C425.943 150.594 426.044 150.292 426.205 150.032C426.376 149.773 426.584 149.562 426.83 149.399C427.077 149.228 427.353 149.108 427.657 149.04C427.972 148.964 428.297 148.946 428.632 148.986C428.977 149.027 429.28 149.115 429.544 149.251L432.138 149.56L432.036 150.425L430.41 150.232C430.539 150.395 430.642 150.595 430.719 150.831C430.796 151.068 430.82 151.31 430.79 151.56C430.751 151.896 430.651 152.189 430.49 152.441C430.338 152.693 430.139 152.901 429.893 153.063C429.657 153.219 429.382 153.33 429.069 153.397C428.765 153.457 428.445 153.467 428.11 153.427C427.946 153.408 427.772 153.369 427.587 153.312C427.411 153.248 427.242 153.166 427.079 153.068C426.727 153.236 426.535 153.458 426.503 153.733C426.474 153.983 426.564 154.181 426.773 154.328C426.992 154.468 427.309 154.562 427.722 154.611L429.129 154.779C429.938 154.875 430.523 155.059 430.884 155.328C431.253 155.599 431.406 156.002 431.344 156.535C431.309 156.828 431.195 157.098 431 157.345C430.805 157.593 430.545 157.797 430.221 157.96C429.896 158.122 429.512 158.237 429.067 158.307C428.623 158.376 428.134 158.379 427.6 158.315ZM428.193 152.717C428.598 152.765 428.953 152.672 429.26 152.438C429.576 152.205 429.76 151.861 429.814 151.404C429.839 151.189 429.824 150.987 429.768 150.797C429.711 150.607 429.626 150.439 429.512 150.295C429.398 150.15 429.255 150.033 429.083 149.943C428.92 149.845 428.739 149.784 428.541 149.76C428.343 149.737 428.149 149.753 427.96 149.809C427.779 149.857 427.617 149.938 427.473 150.052C427.329 150.166 427.207 150.308 427.108 150.48C427.01 150.651 426.948 150.845 426.922 151.06C426.869 151.516 426.968 151.895 427.221 152.195C427.473 152.496 427.797 152.67 428.193 152.717ZM427.769 157.55C428.13 157.593 428.461 157.597 428.762 157.563C429.063 157.529 429.323 157.464 429.544 157.368C429.764 157.281 429.934 157.166 430.056 157.023C430.185 156.89 430.259 156.742 430.278 156.579C430.314 156.277 430.217 156.061 429.988 155.929C429.768 155.798 429.417 155.704 428.935 155.646L427.709 155.5C427.528 155.479 427.357 155.449 427.195 155.413C427.042 155.386 426.898 155.342 426.766 155.283C426.445 155.411 426.215 155.553 426.074 155.711C425.941 155.879 425.864 156.053 425.842 156.233C425.804 156.561 425.945 156.839 426.267 157.07C426.597 157.31 427.097 157.47 427.769 157.55ZM437.182 158.828C436.369 158.024 435.757 157.1 435.348 156.057C434.947 155.014 434.82 153.869 434.967 152.621C435.114 151.372 435.503 150.289 436.135 149.369C436.775 148.45 437.584 147.696 438.561 147.105L439.078 147.716C438.123 148.345 437.388 149.064 436.874 149.876C436.368 150.688 436.051 151.641 435.922 152.734C435.794 153.827 435.881 154.828 436.184 155.737C436.496 156.647 437.043 157.52 437.826 158.355L437.182 158.828ZM443.991 152.753C443.656 152.713 443.392 152.546 443.199 152.253C443.016 151.952 442.954 151.556 443.012 151.065C443.088 150.42 443.319 149.863 443.706 149.394C444.094 148.916 444.598 148.562 445.218 148.33L445.494 148.991C445.071 149.177 444.723 149.428 444.45 149.744C444.178 150.052 444.003 150.428 443.924 150.873C444.034 150.834 444.149 150.821 444.269 150.835C444.536 150.867 444.741 150.979 444.884 151.171C445.036 151.363 445.096 151.597 445.063 151.873C445.028 152.174 444.909 152.404 444.707 152.563C444.505 152.723 444.267 152.786 443.991 152.753ZM448.36 157.856L449.356 149.386L450.441 149.515L450.023 153.066L453.56 153.487L453.978 149.937L455.062 150.066L454.065 158.535L452.981 158.406L453.45 154.417L449.913 153.995L449.444 157.985L448.36 157.856ZM459.322 159.319C458.848 159.262 458.414 159.136 458.018 158.941C457.631 158.746 457.299 158.489 457.023 158.168C456.755 157.848 456.554 157.475 456.421 157.049C456.298 156.615 456.267 156.136 456.329 155.611C456.388 155.103 456.528 154.657 456.748 154.273C456.976 153.89 457.253 153.574 457.579 153.324C457.914 153.076 458.279 152.902 458.675 152.8C459.081 152.692 459.494 152.662 459.916 152.713C460.363 152.766 460.755 152.887 461.091 153.075C461.436 153.256 461.714 153.49 461.924 153.777C462.143 154.065 462.296 154.397 462.383 154.774C462.469 155.151 462.487 155.559 462.435 155.998C462.421 156.118 462.403 156.234 462.381 156.345C462.359 156.456 462.335 156.553 462.308 156.637L457.364 156.048C457.348 156.771 457.543 157.339 457.948 157.754C458.363 158.161 458.897 158.404 459.551 158.482C459.93 158.527 460.276 158.516 460.589 158.449C460.912 158.374 461.226 158.263 461.531 158.116L461.837 158.859C461.503 159.029 461.125 159.163 460.703 159.261C460.29 159.36 459.829 159.379 459.322 159.319ZM459.843 153.555C459.585 153.524 459.33 153.537 459.079 153.595C458.837 153.653 458.611 153.753 458.402 153.894C458.195 154.026 458.012 154.205 457.855 154.431C457.697 154.656 457.575 154.921 457.487 155.225L461.488 155.702C461.521 155.051 461.389 154.546 461.09 154.188C460.801 153.83 460.385 153.619 459.843 153.555ZM468.056 160.359C467.385 160.279 466.895 160.029 466.587 159.608C466.278 159.187 466.168 158.603 466.256 157.854L466.989 151.631L464.755 151.365L464.857 150.5L468.149 150.892L467.306 158.057C467.251 158.522 467.323 158.871 467.523 159.104C467.723 159.329 468.013 159.464 468.392 159.509C468.762 159.553 469.164 159.505 469.6 159.365L469.778 160.185C469.471 160.27 469.194 160.329 468.946 160.361C468.697 160.401 468.4 160.4 468.056 160.359ZM475.796 161.281C475.125 161.201 474.635 160.951 474.327 160.53C474.019 160.11 473.908 159.525 473.997 158.776L474.729 152.553L472.496 152.287L472.597 151.422L475.889 151.814L475.046 158.979C474.991 159.444 475.064 159.793 475.263 160.027C475.464 160.251 475.753 160.386 476.132 160.431C476.502 160.475 476.905 160.427 477.34 160.287L477.518 161.107C477.212 161.193 476.934 161.251 476.686 161.283C476.437 161.323 476.14 161.322 475.796 161.281ZM482.155 162.039C481.742 161.99 481.355 161.869 480.993 161.678C480.64 161.488 480.338 161.238 480.087 160.928C479.836 160.611 479.649 160.239 479.524 159.814C479.409 159.381 479.382 158.907 479.443 158.39C479.505 157.865 479.641 157.41 479.852 157.025C480.073 156.633 480.342 156.311 480.659 156.061C480.977 155.811 481.329 155.635 481.716 155.532C482.112 155.431 482.517 155.405 482.93 155.454C483.343 155.504 483.726 155.623 484.079 155.814C484.44 156.005 484.746 156.26 484.997 156.578C485.247 156.896 485.43 157.271 485.545 157.704C485.669 158.129 485.701 158.604 485.639 159.129C485.578 159.645 485.438 160.1 485.217 160.492C485.006 160.877 484.741 161.195 484.424 161.445C484.108 161.687 483.751 161.858 483.356 161.959C482.968 162.062 482.568 162.088 482.155 162.039ZM482.258 161.161C482.56 161.197 482.837 161.173 483.091 161.09C483.355 160.999 483.585 160.861 483.782 160.675C483.988 160.481 484.155 160.244 484.284 159.962C484.413 159.681 484.499 159.359 484.542 158.998C484.584 158.636 484.575 158.304 484.515 158C484.456 157.687 484.349 157.413 484.193 157.176C484.047 156.94 483.855 156.752 483.619 156.61C483.392 156.461 483.128 156.368 482.827 156.332C482.525 156.296 482.243 156.324 481.979 156.415C481.725 156.498 481.495 156.636 481.289 156.83C481.091 157.025 480.928 157.267 480.798 157.557C480.668 157.838 480.583 158.16 480.54 158.521C480.498 158.883 480.506 159.215 480.567 159.519C480.627 159.823 480.73 160.093 480.877 160.329C481.034 160.557 481.225 160.746 481.452 160.895C481.688 161.036 481.957 161.125 482.258 161.161ZM497.111 163.664L498.002 156.098L495.213 155.766L495.32 154.862L501.981 155.655L501.874 156.559L499.086 156.227L498.196 163.793L497.111 163.664ZM502.722 164.332L503.803 155.139L504.862 155.266L504.567 157.77L504.328 159.247L504.367 159.252C504.735 158.938 505.118 158.687 505.516 158.499C505.922 158.311 506.37 158.247 506.86 158.305C507.609 158.395 508.13 158.675 508.424 159.146C508.727 159.61 508.83 160.259 508.731 161.094L508.272 164.993L507.214 164.867L507.656 161.11C507.726 160.516 507.666 160.064 507.475 159.753C507.286 159.434 506.933 159.244 506.417 159.182C506.228 159.159 506.048 159.164 505.879 159.196C505.719 159.221 505.556 159.271 505.39 159.348C505.223 159.424 505.05 159.525 504.869 159.652C504.69 159.771 504.498 159.914 504.295 160.081L503.78 164.458L502.722 164.332ZM513.503 165.774C513.03 165.717 512.595 165.591 512.199 165.396C511.812 165.201 511.48 164.943 511.204 164.623C510.936 164.303 510.736 163.93 510.602 163.504C510.479 163.07 510.448 162.591 510.51 162.065C510.57 161.558 510.709 161.112 510.929 160.728C511.157 160.345 511.435 160.029 511.761 159.779C512.095 159.531 512.461 159.357 512.856 159.255C513.262 159.147 513.675 159.117 514.097 159.168C514.545 159.221 514.936 159.342 515.272 159.53C515.617 159.711 515.895 159.945 516.106 160.232C516.325 160.52 516.478 160.852 516.564 161.229C516.651 161.606 516.668 162.014 516.616 162.453C516.602 162.573 516.584 162.689 516.563 162.8C516.541 162.911 516.516 163.008 516.489 163.092L511.545 162.503C511.53 163.226 511.725 163.794 512.129 164.209C512.544 164.616 513.078 164.859 513.732 164.937C514.111 164.982 514.457 164.971 514.77 164.903C515.093 164.828 515.408 164.717 515.713 164.571L516.018 165.314C515.684 165.484 515.306 165.617 514.884 165.716C514.471 165.815 514.011 165.834 513.503 165.774ZM514.024 160.01C513.766 159.979 513.511 159.992 513.26 160.05C513.018 160.108 512.792 160.208 512.584 160.349C512.376 160.481 512.194 160.66 512.036 160.886C511.879 161.111 511.756 161.376 511.668 161.68L515.67 162.157C515.703 161.506 515.57 161.001 515.272 160.643C514.982 160.285 514.566 160.074 514.024 160.01ZM518.886 166.258L519.625 159.983L520.502 160.088L520.418 161.583L520.457 161.588C520.844 161.119 521.291 160.766 521.799 160.53C522.315 160.295 522.866 160.212 523.451 160.282C523.683 160.31 523.896 160.357 524.089 160.423C524.283 160.481 524.473 160.569 524.66 160.688L524.307 161.575C524.092 161.471 523.909 161.393 523.758 161.34C523.616 161.288 523.42 161.247 523.171 161.217C522.697 161.161 522.225 161.244 521.754 161.467C521.292 161.683 520.833 162.095 520.378 162.704L519.945 166.384L518.886 166.258ZM528.983 167.618C528.51 167.561 528.076 167.436 527.68 167.24C527.292 167.045 526.961 166.788 526.684 166.467C526.416 166.147 526.216 165.774 526.083 165.348C525.959 164.914 525.928 164.435 525.99 163.91C526.05 163.402 526.19 162.956 526.409 162.572C526.638 162.189 526.915 161.873 527.241 161.624C527.576 161.375 527.941 161.201 528.337 161.1C528.742 160.991 529.156 160.962 529.578 161.012C530.025 161.065 530.417 161.186 530.752 161.374C531.097 161.555 531.375 161.789 531.586 162.076C531.805 162.364 531.958 162.696 532.045 163.073C532.131 163.45 532.149 163.858 532.097 164.297C532.083 164.417 532.065 164.533 532.043 164.644C532.021 164.755 531.997 164.852 531.969 164.936L527.025 164.347C527.01 165.07 527.205 165.639 527.61 166.053C528.024 166.461 528.559 166.703 529.213 166.781C529.591 166.826 529.937 166.815 530.251 166.748C530.574 166.673 530.888 166.562 531.193 166.415L531.498 167.158C531.164 167.328 530.786 167.462 530.365 167.56C529.952 167.659 529.491 167.678 528.983 167.618ZM529.505 161.854C529.246 161.823 528.992 161.837 528.741 161.894C528.498 161.952 528.273 162.052 528.064 162.193C527.857 162.325 527.674 162.504 527.517 162.73C527.359 162.956 527.236 163.22 527.148 163.524L531.15 164.001C531.183 163.35 531.05 162.846 530.752 162.487C530.463 162.13 530.047 161.919 529.505 161.854ZM536.346 165.301L536.739 160.844L536.856 159.627L537.889 159.75L537.72 160.961L537.068 165.387L536.346 165.301ZM536.336 168.494C536.078 168.463 535.865 168.346 535.697 168.143C535.538 167.94 535.476 167.684 535.513 167.375C535.548 167.073 535.666 166.847 535.867 166.697C536.078 166.539 536.312 166.475 536.57 166.506C536.828 166.536 537.037 166.653 537.197 166.855C537.366 167.05 537.433 167.298 537.397 167.599C537.361 167.909 537.237 168.143 537.027 168.301C536.825 168.46 536.595 168.525 536.336 168.494ZM543.917 164.658L543.628 163.995C544.059 163.819 544.41 163.577 544.682 163.269C544.955 162.953 545.131 162.568 545.211 162.115C545.101 162.154 544.986 162.167 544.866 162.152C544.59 162.12 544.376 162.011 544.223 161.827C544.08 161.635 544.025 161.402 544.057 161.126C544.093 160.825 544.211 160.595 544.413 160.436C544.616 160.268 544.856 160.2 545.131 160.233C545.475 160.274 545.739 160.445 545.921 160.746C546.104 161.047 546.167 161.443 546.109 161.934C546.033 162.579 545.802 163.137 545.415 163.605C545.028 164.074 544.529 164.425 543.917 164.658ZM549.851 172.251L549.334 171.639C550.289 171.011 551.019 170.291 551.525 169.479C552.04 168.667 552.361 167.715 552.49 166.622C552.618 165.529 552.527 164.527 552.215 163.617C551.912 162.708 551.369 161.836 550.585 161.001L551.23 160.528C552.043 161.332 552.65 162.255 553.051 163.298C553.46 164.341 553.592 165.487 553.445 166.735C553.298 167.983 552.904 169.067 552.264 169.986C551.632 170.905 550.828 171.66 549.851 172.251ZM556.75 172.759L556.821 172.152L557.479 172.23C557.806 172.269 558.076 172.279 558.287 172.261C558.507 172.244 558.683 172.195 558.815 172.114C558.947 172.034 559.043 171.919 559.104 171.769C559.165 171.628 559.207 171.454 559.231 171.248C559.278 170.852 559.309 170.471 559.326 170.107C559.343 169.742 559.377 169.34 559.429 168.902C559.478 168.48 559.598 168.171 559.786 167.975C559.976 167.771 560.299 167.657 560.756 167.633L560.762 167.581C560.324 167.45 560.035 167.267 559.897 167.033C559.76 166.79 559.716 166.457 559.766 166.035C559.814 165.631 559.873 165.236 559.944 164.852C560.017 164.459 560.075 164.078 560.118 163.708C560.143 163.501 560.142 163.322 560.116 163.171C560.091 163.011 560.024 162.876 559.915 162.767C559.806 162.658 559.646 162.569 559.436 162.5C559.234 162.433 558.97 162.379 558.643 162.341L557.985 162.262L558.056 161.655L558.844 161.749C559.248 161.797 559.593 161.869 559.879 161.964C560.174 162.052 560.413 162.172 560.595 162.324C560.778 162.477 560.904 162.671 560.972 162.906C561.041 163.132 561.056 163.414 561.017 163.749C560.964 164.197 560.892 164.62 560.802 165.02C560.721 165.412 560.656 165.814 560.607 166.227C560.592 166.356 560.603 166.484 560.641 166.611C560.679 166.729 560.762 166.843 560.888 166.955C561.015 167.066 561.195 167.166 561.429 167.255C561.671 167.345 561.982 167.412 562.361 167.457L562.282 168.129C561.903 168.083 561.585 168.076 561.329 168.107C561.081 168.138 560.882 168.193 560.733 168.271C560.584 168.35 560.477 168.446 560.411 168.56C560.346 168.666 560.306 168.784 560.291 168.913C560.266 169.128 560.246 169.335 560.231 169.534C560.225 169.734 560.215 169.933 560.2 170.132C560.194 170.332 560.183 170.541 560.166 170.757C560.159 170.965 560.142 171.186 560.114 171.418C560.075 171.754 559.995 172.024 559.875 172.228C559.754 172.44 559.587 172.599 559.374 172.705C559.161 172.81 558.901 172.871 558.593 172.887C558.294 172.912 557.941 172.901 557.537 172.852L556.75 172.759ZM347.767 170.198C347.285 170.141 346.858 169.99 346.485 169.744C346.114 169.491 345.804 169.157 345.556 168.744C345.317 168.331 345.147 167.844 345.047 167.282C344.957 166.713 344.953 166.08 345.035 165.382C345.115 164.702 345.265 164.1 345.483 163.577C345.711 163.054 345.988 162.624 346.316 162.288C346.652 161.953 347.029 161.71 347.449 161.559C347.868 161.408 348.318 161.361 348.8 161.419C349.273 161.475 349.696 161.626 350.069 161.871C350.45 162.117 350.761 162.442 351.001 162.846C351.25 163.251 351.421 163.734 351.512 164.295C351.611 164.857 351.621 165.477 351.541 166.157C351.459 166.855 351.304 167.469 351.076 168C350.857 168.524 350.579 168.958 350.242 169.302C349.913 169.647 349.535 169.898 349.106 170.057C348.687 170.207 348.24 170.255 347.767 170.198ZM347.878 169.256C348.196 169.294 348.498 169.251 348.783 169.128C349.069 168.996 349.32 168.79 349.536 168.511C349.761 168.232 349.951 167.884 350.104 167.466C350.258 167.048 350.367 166.567 350.431 166.025C350.494 165.491 350.498 165.008 350.445 164.574C350.391 164.14 350.287 163.765 350.132 163.45C349.986 163.136 349.788 162.885 349.54 162.698C349.291 162.512 349.008 162.399 348.689 162.361C348.362 162.322 348.056 162.365 347.771 162.488C347.495 162.612 347.245 162.809 347.021 163.079C346.806 163.35 346.622 163.69 346.469 164.1C346.316 164.509 346.208 164.981 346.145 165.515C346.082 166.057 346.076 166.549 346.129 166.992C346.181 167.435 346.28 167.817 346.425 168.14C346.579 168.464 346.776 168.723 347.015 168.917C347.263 169.104 347.551 169.217 347.878 169.256ZM354.81 171.037C354.053 170.947 353.523 170.67 353.219 170.206C352.926 169.735 352.828 169.082 352.926 168.247L353.385 164.348L354.457 164.475L354.015 168.233C353.945 168.826 354 169.283 354.181 169.601C354.371 169.912 354.729 170.098 355.254 170.161C355.615 170.204 355.953 170.152 356.267 170.006C356.582 169.852 356.939 169.593 357.34 169.231L357.852 164.88L358.91 165.006L358.172 171.281L357.307 171.178L357.346 170.07L357.294 170.063C356.932 170.396 356.548 170.655 356.142 170.843C355.745 171.031 355.301 171.096 354.81 171.037ZM364.461 172.187C364.005 172.133 363.629 172.027 363.333 171.87C363.039 171.703 362.81 171.497 362.647 171.251C362.485 170.996 362.38 170.704 362.331 170.375C362.291 170.048 362.294 169.69 362.339 169.303L362.689 166.333L360.92 166.123L361.015 165.322L362.829 165.473L363.208 163.476L364.086 163.58L363.849 165.594L366.934 165.962L366.833 166.827L363.747 166.46L363.396 169.442C363.363 169.726 363.359 169.979 363.386 170.2C363.413 170.413 363.478 170.599 363.582 170.76C363.685 170.921 363.835 171.052 364.033 171.154C364.231 171.248 364.481 171.312 364.782 171.348C365.083 171.384 365.357 171.391 365.604 171.368C365.852 171.345 366.092 171.304 366.326 171.244L366.467 172.046C366.171 172.116 365.86 172.166 365.533 172.197C365.214 172.238 364.857 172.234 364.461 172.187ZM368.022 175.138L369.072 166.217L369.95 166.321L369.946 167.133L369.985 167.137C370.31 166.897 370.672 166.708 371.072 166.573C371.481 166.438 371.879 166.394 372.266 166.44C372.688 166.49 373.049 166.612 373.349 166.805C373.659 166.99 373.904 167.238 374.086 167.547C374.277 167.849 374.406 168.205 374.471 168.614C374.537 169.015 374.542 169.461 374.484 169.951C374.421 170.485 374.287 170.953 374.083 171.357C373.879 171.751 373.627 172.079 373.326 172.34C373.033 172.602 372.706 172.79 372.343 172.904C371.982 173.009 371.612 173.039 371.233 172.994C370.94 172.959 370.63 172.852 370.302 172.674C369.984 172.487 369.702 172.249 369.457 171.958L369.418 171.953L369.33 173.147L369.081 175.264L368.022 175.138ZM371.157 172.082C371.725 172.149 372.216 171.985 372.629 171.589C373.042 171.193 373.294 170.604 373.387 169.82C373.427 169.476 373.43 169.158 373.394 168.866C373.359 168.573 373.28 168.32 373.157 168.104C373.043 167.881 372.881 167.7 372.671 167.562C372.46 167.423 372.2 167.336 371.89 167.299C371.615 167.266 371.309 167.308 370.972 167.425C370.645 167.534 370.299 167.733 369.933 168.021L369.565 171.146C369.835 171.448 370.114 171.674 370.402 171.821C370.69 171.969 370.942 172.056 371.157 172.082ZM378.031 173.804C377.273 173.714 376.743 173.437 376.44 172.973C376.146 172.501 376.049 171.848 376.147 171.013L376.606 167.114L377.677 167.242L377.235 170.999C377.165 171.593 377.221 172.049 377.401 172.367C377.592 172.678 377.949 172.865 378.474 172.927C378.836 172.97 379.173 172.919 379.487 172.773C379.802 172.618 380.16 172.36 380.56 171.997L381.072 167.646L382.131 167.772L381.392 174.047L380.527 173.944L380.566 172.836L380.515 172.83C380.153 173.162 379.769 173.422 379.363 173.609C378.965 173.797 378.521 173.862 378.031 173.804ZM387.681 174.954C387.225 174.899 386.849 174.793 386.554 174.636C386.259 174.47 386.03 174.264 385.867 174.017C385.705 173.762 385.6 173.471 385.552 173.142C385.512 172.814 385.514 172.457 385.56 172.069L385.909 169.1L384.141 168.889L384.235 168.089L386.05 168.239L386.429 166.242L387.307 166.347L387.07 168.361L390.155 168.728L390.053 169.593L386.968 169.226L386.617 172.208C386.584 172.492 386.58 172.745 386.606 172.966C386.634 173.179 386.699 173.366 386.802 173.526C386.905 173.687 387.056 173.819 387.253 173.921C387.452 174.014 387.701 174.079 388.003 174.115C388.304 174.151 388.578 174.157 388.825 174.134C389.072 174.111 389.313 174.07 389.546 174.011L389.688 174.813C389.391 174.882 389.08 174.932 388.754 174.963C388.435 175.004 388.077 175.001 387.681 174.954ZM394.752 171.109C394.46 171.074 394.222 170.945 394.038 170.723C393.864 170.501 393.796 170.227 393.834 169.9C393.873 169.573 394.002 169.322 394.224 169.148C394.455 168.966 394.716 168.892 395.009 168.927C395.301 168.962 395.535 169.094 395.708 169.325C395.891 169.547 395.964 169.822 395.925 170.149C395.887 170.476 395.753 170.726 395.523 170.9C395.302 171.074 395.045 171.144 394.752 171.109ZM394.208 175.731C393.916 175.696 393.678 175.568 393.494 175.345C393.32 175.123 393.252 174.849 393.29 174.522C393.329 174.195 393.459 173.944 393.68 173.77C393.911 173.588 394.172 173.514 394.465 173.549C394.758 173.584 394.991 173.717 395.164 173.947C395.348 174.169 395.42 174.444 395.381 174.771C395.343 175.098 395.209 175.348 394.979 175.522C394.758 175.696 394.501 175.766 394.208 175.731ZM406.854 177.081L407.851 168.611L408.935 168.74L408.517 172.291L412.054 172.712L412.472 169.162L413.556 169.291L412.56 177.76L411.475 177.631L411.945 173.642L408.408 173.22L407.938 177.21L406.854 177.081ZM417.816 178.544C417.343 178.487 416.908 178.361 416.512 178.166C416.125 177.971 415.793 177.713 415.517 177.393C415.249 177.073 415.049 176.7 414.915 176.274C414.792 175.84 414.761 175.361 414.823 174.835C414.883 174.328 415.022 173.882 415.242 173.498C415.47 173.115 415.748 172.799 416.074 172.549C416.408 172.301 416.773 172.127 417.169 172.025C417.575 171.917 417.988 171.887 418.41 171.938C418.858 171.991 419.249 172.112 419.585 172.3C419.93 172.481 420.208 172.715 420.419 173.002C420.638 173.29 420.791 173.622 420.877 173.999C420.964 174.376 420.981 174.784 420.929 175.223C420.915 175.343 420.897 175.459 420.876 175.57C420.854 175.681 420.829 175.778 420.802 175.862L415.858 175.273C415.843 175.996 416.037 176.564 416.442 176.979C416.857 177.386 417.391 177.629 418.045 177.707C418.424 177.752 418.77 177.741 419.083 177.673C419.406 177.598 419.721 177.487 420.026 177.341L420.331 178.084C419.997 178.254 419.619 178.387 419.197 178.486C418.784 178.585 418.324 178.604 417.816 178.544ZM418.337 172.78C418.079 172.749 417.824 172.762 417.573 172.82C417.331 172.878 417.105 172.978 416.897 173.119C416.689 173.251 416.507 173.43 416.349 173.656C416.192 173.881 416.069 174.146 415.981 174.45L419.983 174.927C420.016 174.276 419.883 173.771 419.585 173.413C419.295 173.055 418.879 172.844 418.337 172.78ZM426.55 179.584C425.879 179.504 425.389 179.254 425.081 178.833C424.773 178.412 424.663 177.828 424.751 177.079L425.483 170.856L423.25 170.59L423.352 169.725L426.643 170.117L425.8 177.282C425.745 177.747 425.818 178.096 426.017 178.329C426.218 178.554 426.507 178.689 426.886 178.734C427.256 178.778 427.659 178.73 428.094 178.59L428.272 179.41C427.966 179.495 427.688 179.554 427.44 179.585C427.191 179.626 426.894 179.625 426.55 179.584ZM434.29 180.506C433.619 180.426 433.129 180.176 432.821 179.755C432.513 179.334 432.403 178.75 432.491 178.001L433.223 171.778L430.99 171.512L431.092 170.647L434.383 171.039L433.54 178.204C433.486 178.669 433.558 179.018 433.757 179.251C433.958 179.476 434.247 179.611 434.626 179.656C434.996 179.7 435.399 179.652 435.834 179.512L436.013 180.332C435.706 180.417 435.428 180.476 435.18 180.508C434.931 180.548 434.635 180.547 434.29 180.506ZM440.649 181.264C440.236 181.215 439.849 181.094 439.488 180.903C439.135 180.712 438.833 180.463 438.581 180.153C438.33 179.835 438.143 179.464 438.018 179.039C437.903 178.606 437.876 178.132 437.937 177.615C437.999 177.09 438.135 176.635 438.346 176.25C438.567 175.858 438.836 175.536 439.154 175.286C439.471 175.036 439.823 174.86 440.211 174.757C440.607 174.656 441.011 174.63 441.424 174.679C441.837 174.728 442.22 174.848 442.573 175.039C442.934 175.23 443.24 175.485 443.491 175.803C443.742 176.121 443.924 176.496 444.039 176.928C444.164 177.353 444.195 177.829 444.133 178.354C444.073 178.87 443.932 179.325 443.711 179.717C443.5 180.102 443.236 180.42 442.918 180.67C442.602 180.912 442.246 181.083 441.85 181.184C441.463 181.287 441.062 181.313 440.649 181.264ZM440.753 180.386C441.054 180.422 441.332 180.398 441.586 180.315C441.849 180.224 442.079 180.086 442.276 179.9C442.482 179.706 442.65 179.469 442.779 179.187C442.908 178.906 442.994 178.584 443.036 178.223C443.079 177.861 443.07 177.529 443.01 177.225C442.95 176.912 442.843 176.638 442.688 176.401C442.541 176.165 442.349 175.976 442.113 175.835C441.886 175.686 441.622 175.593 441.321 175.557C441.02 175.521 440.737 175.549 440.473 175.64C440.219 175.723 439.989 175.861 439.783 176.055C439.586 176.249 439.422 176.492 439.292 176.782C439.163 177.063 439.077 177.385 439.034 177.746C438.992 178.108 439.001 178.44 439.061 178.744C439.121 179.048 439.225 179.318 439.371 179.554C439.528 179.782 439.719 179.97 439.946 180.12C440.183 180.261 440.451 180.35 440.753 180.386ZM455.606 182.889L456.496 175.323L453.708 174.991L453.814 174.087L460.475 174.88L460.369 175.784L457.58 175.452L456.69 183.018L455.606 182.889ZM461.216 183.557L462.298 174.364L463.356 174.49L463.062 176.995L462.822 178.472L462.861 178.477C463.23 178.163 463.612 177.912 464.01 177.724C464.416 177.536 464.864 177.472 465.355 177.53C466.103 177.619 466.625 177.9 466.918 178.371C467.221 178.835 467.324 179.484 467.226 180.319L466.767 184.218L465.708 184.092L466.15 180.335C466.22 179.741 466.16 179.289 465.97 178.978C465.78 178.659 465.428 178.468 464.911 178.407C464.722 178.384 464.542 178.389 464.373 178.421C464.213 178.446 464.05 178.496 463.884 178.573C463.718 178.649 463.544 178.75 463.364 178.877C463.184 178.995 462.993 179.138 462.79 179.306L462.275 183.683L461.216 183.557ZM471.997 184.999C471.524 184.942 471.089 184.816 470.694 184.621C470.306 184.426 469.974 184.168 469.698 183.847C469.43 183.528 469.23 183.155 469.097 182.728C468.973 182.295 468.942 181.815 469.004 181.29C469.064 180.783 469.204 180.337 469.423 179.953C469.652 179.57 469.929 179.253 470.255 179.004C470.59 178.756 470.955 178.581 471.351 178.48C471.756 178.371 472.17 178.342 472.591 178.392C473.039 178.446 473.431 178.567 473.766 178.755C474.111 178.936 474.389 179.17 474.6 179.456C474.819 179.744 474.972 180.077 475.058 180.454C475.145 180.831 475.162 181.239 475.111 181.678C475.097 181.798 475.079 181.914 475.057 182.025C475.035 182.135 475.011 182.233 474.983 182.317L470.039 181.728C470.024 182.45 470.219 183.019 470.624 183.434C471.038 183.841 471.573 184.084 472.227 184.162C472.605 184.207 472.951 184.196 473.265 184.128C473.588 184.053 473.902 183.942 474.207 183.795L474.512 184.539C474.178 184.708 473.8 184.842 473.379 184.94C472.966 185.04 472.505 185.059 471.997 184.999ZM472.519 179.235C472.26 179.204 472.006 179.217 471.755 179.275C471.512 179.333 471.287 179.433 471.078 179.574C470.87 179.706 470.688 179.885 470.531 180.111C470.373 180.336 470.25 180.601 470.162 180.905L474.164 181.381C474.197 180.731 474.064 180.226 473.766 179.868C473.477 179.51 473.061 179.299 472.519 179.235ZM477.381 185.483L478.119 179.208L478.997 179.313L478.912 180.808L478.951 180.813C479.338 180.344 479.785 179.991 480.293 179.755C480.809 179.52 481.36 179.437 481.945 179.507C482.178 179.534 482.39 179.582 482.583 179.648C482.777 179.706 482.967 179.794 483.154 179.913L482.801 180.8C482.586 180.696 482.404 180.617 482.253 180.565C482.11 180.513 481.915 180.472 481.665 180.442C481.192 180.386 480.719 180.469 480.248 180.692C479.786 180.908 479.328 181.32 478.872 181.929L478.439 185.609L477.381 185.483ZM487.478 186.843C487.004 186.786 486.57 186.66 486.174 186.465C485.787 186.27 485.455 186.013 485.178 185.692C484.911 185.372 484.71 184.999 484.577 184.573C484.454 184.139 484.423 183.66 484.485 183.135C484.544 182.627 484.684 182.181 484.904 181.797C485.132 181.414 485.409 181.098 485.735 180.849C486.07 180.6 486.435 180.426 486.831 180.324C487.237 180.216 487.65 180.186 488.072 180.237C488.519 180.29 488.911 180.411 489.246 180.599C489.592 180.78 489.87 181.014 490.08 181.301C490.299 181.589 490.452 181.921 490.539 182.298C490.625 182.675 490.643 183.083 490.591 183.522C490.577 183.642 490.559 183.758 490.537 183.869C490.515 183.98 490.491 184.077 490.464 184.161L485.52 183.572C485.504 184.295 485.699 184.863 486.104 185.278C486.519 185.686 487.053 185.928 487.707 186.006C488.086 186.051 488.432 186.04 488.745 185.973C489.068 185.898 489.382 185.787 489.687 185.64L489.993 186.383C489.659 186.553 489.281 186.687 488.859 186.785C488.446 186.884 487.985 186.903 487.478 186.843ZM487.999 181.079C487.741 181.048 487.486 181.061 487.235 181.119C486.992 181.177 486.767 181.277 486.558 181.418C486.351 181.55 486.168 181.729 486.011 181.955C485.853 182.181 485.731 182.445 485.643 182.749L489.644 183.226C489.677 182.575 489.545 182.07 489.246 181.712C488.957 181.355 488.541 181.144 487.999 181.079ZM494.84 184.525L495.233 180.069L495.35 178.852L496.383 178.975L496.214 180.186L495.563 184.612L494.84 184.525ZM494.831 187.719C494.572 187.688 494.359 187.571 494.191 187.368C494.032 187.165 493.97 186.909 494.007 186.599C494.042 186.298 494.16 186.072 494.361 185.922C494.572 185.763 494.806 185.7 495.065 185.73C495.323 185.761 495.532 185.878 495.691 186.08C495.86 186.275 495.927 186.523 495.891 186.824C495.855 187.134 495.731 187.368 495.521 187.526C495.319 187.685 495.089 187.75 494.831 187.719Z" fill="black"/>
</svg>
