<svg width="1286" height="1311" viewBox="0 0 1286 1311" fill="none" xmlns="http://www.w3.org/2000/svg">
<path d="M549.999 221C575.392 75 1021 201.5 1032.5 221C1044 240.5 1019.5 422.5 1003.5 524L964.124 672.844L1043.7 733.726L1126.94 799.583L1244.9 889.04L752.748 890.178L220.625 901.343L355.999 776L555.999 674.5L523.999 524L524.005 522.963C524.172 494.003 524.918 365.202 549.999 221Z" fill="#E2F3F5"/>
<path d="M999.852 528.013C978.84 550.635 870.08 661.08 752.748 657.344C636.456 653.64 546.004 550.95 527.483 528.365M576.314 300.795L573.834 300.801L573.82 303.28L573.31 389.099L572.893 459.54L572.878 462.061L575.398 462.055L749.027 461.654C798.735 461.539 821.248 460.12 843.618 458.702L843.802 458.69C866.042 457.281 888.212 455.875 937.157 455.762L939.636 455.756L939.651 453.277L939.931 406.151L940.546 302.474L940.561 299.953L938.04 299.959L576.314 300.795ZM755.982 780.067L757.117 780.651L758.255 780.073L963.854 675.784L1042.15 735.687L1042.18 735.711L1125.38 801.544L1125.4 801.559L1125.42 801.575L1237.49 886.557L752.743 887.678L752.719 887.678L752.696 887.678L227.153 898.706L357.441 778.071L555.992 677.307L755.982 780.067ZM998.51 533.086L961.994 671.121L757.132 775.037L558.197 672.819L528.597 533.605C531.399 536.914 535.063 541.109 539.525 545.945C550.823 558.189 567.254 574.557 587.798 591.06C628.836 624.026 686.541 657.736 752.669 659.842C818.858 661.95 882.111 628.214 928.609 594.252C951.898 577.24 971.077 560.104 984.434 547.22C990.29 541.571 995.03 536.738 998.51 533.086ZM1025.83 341.476C1019.18 401.764 1009.12 472.215 1001.14 522.89C1000.93 523.134 1000.63 523.461 1000.27 523.865C999.366 524.859 998.024 526.322 996.267 528.185C992.753 531.911 987.581 537.238 980.963 543.621C967.726 556.389 948.721 573.369 925.659 590.214C879.454 623.963 817.332 656.899 752.828 654.845C688.263 652.789 631.593 619.828 590.929 587.162C570.622 570.849 554.371 554.662 543.199 542.554C537.615 536.502 533.303 531.473 530.392 527.963C528.936 526.208 527.831 524.833 527.092 523.9C526.859 523.606 526.663 523.356 526.504 523.152L526.505 522.978C526.672 494.052 527.418 365.419 552.462 221.428C558.528 186.551 589.687 167.44 634.937 159.123C680.073 150.828 738.202 153.52 796.122 161.415C853.996 169.303 911.454 182.354 955.152 194.649C977.002 200.797 995.378 206.745 1008.62 211.752C1015.25 214.257 1020.55 216.51 1024.34 218.416C1026.24 219.371 1027.71 220.215 1028.77 220.935C1029.29 221.294 1029.68 221.601 1029.96 221.853C1030.09 221.978 1030.19 222.079 1030.26 222.156C1030.33 222.234 1030.35 222.272 1030.35 222.27C1030.84 223.108 1031.36 224.617 1031.79 226.955C1032.21 229.244 1032.52 232.135 1032.72 235.597C1033.11 242.518 1033.04 251.529 1032.57 262.188C1031.65 283.497 1029.17 311.183 1025.83 341.476ZM578.31 389.129L578.805 305.789L935.531 304.965L934.931 406.121L934.666 450.769C887.292 450.924 865.395 452.312 843.457 453.702L843.302 453.712C821.001 455.126 798.594 456.539 749.015 456.654L577.907 457.049L578.31 389.129Z" stroke="black" stroke-opacity="0.7" stroke-width="5"/>
<path d="M576.048 221.687C580.322 189.884 738.081 176.542 768.586 180.057C855.523 190.075 877.841 202.022 899.866 212.085C940.016 230.429 1003.52 258.27 1011.65 279.53C1019.79 300.79 986.056 500.643 981.458 534.362C981.445 550.742 858.154 600.889 798 613.268C767.791 615.001 740.595 619.861 710.036 615.71C693.802 610.553 667.3 604.512 647.355 592.802C613.209 572.754 565.974 523.993 540.671 481.118C548.235 421.432 572.942 244.797 576.048 221.687Z" fill="#FDFDFD" fill-opacity="0.6"/>
<path d="M372.5 773.5L580 683.5L559.5 672L372.5 773.5Z" fill="#4299EC"/>
<path d="M760.5 777L561 674L372 772L416 890.5H849.5H1283L1164.5 777L966 674L760.5 777Z" fill="#3289EE" fill-opacity="0.8" stroke="#3F3D56" stroke-opacity="0.8" stroke-width="5"/>
<path d="M1240 887.5L961.5 677.5H969L1164.5 777.5L1281 887.5H1240Z" fill="#358DED" fill-opacity="0.8" stroke="#3F3D56"/>
<path d="M573.18 306.917C574.411 290.394 588.802 277.998 605.325 279.228L968.085 306.244C984.608 307.475 997.005 321.867 995.774 338.389L985.822 472.019C984.592 488.542 970.2 500.939 953.677 499.708L590.917 472.692C574.394 471.462 561.998 457.07 563.228 440.547L573.18 306.917Z" fill="#70B5FF"/>
<path d="M605.14 281.721L967.9 308.737C983.045 309.865 994.409 323.058 993.281 338.204L983.329 471.834C982.201 486.98 969.009 498.343 953.863 497.215L591.103 470.199C575.957 469.071 564.593 455.879 565.721 440.733L575.673 307.103C576.801 291.957 589.994 280.593 605.14 281.721Z" stroke="black" stroke-opacity="0.5" stroke-width="5"/>
<rect x="617.898" y="322.401" width="334" height="109" rx="10" transform="rotate(4.10056 617.898 322.401)" fill="#FDFDFD"/>
<rect x="620.213" y="325.073" width="329" height="104" rx="7.5" transform="rotate(4.10056 620.213 325.073)" stroke="black" stroke-opacity="0.7" stroke-width="5"/>
<path d="M792.182 518.965C785.888 511.521 694.109 505.158 690.81 510.194C687.511 515.231 699.566 583.843 734.457 586.634C769.857 589.465 798.476 526.409 792.182 518.965Z" fill="#338BED" fill-opacity="0.8" stroke="black" stroke-opacity="0.7" stroke-width="5"/>
<path d="M692.308 511.157C690.795 514.34 692.459 523.691 695.219 531.102C695.219 531.102 784.371 538.603 785.773 537.904C787.175 537.205 790.53 527.689 790.572 520.423C790.619 512.156 693.822 507.974 692.308 511.157Z" fill="white"/>
<path d="M578 685.5L374 774L562.5 676L578 685.5Z" fill="#358AE7" fill-opacity="0.8" stroke="#3F3D56" stroke-opacity="0.7"/>
<path d="M941.785 299.912C939.101 300.26 936.253 300.58 933.542 300.484C933.351 300.477 932.888 300.382 933.02 300.243C933.499 299.742 935.985 300.287 936.417 300.343C938.567 300.621 944.879 302.23 942.746 301.842C942.466 301.791 942.212 301.622 941.934 301.552" stroke="black" stroke-width="3" stroke-linecap="round"/>
<path d="M942.829 270.088L943.724 270.237" stroke="#F2F9FA" stroke-width="3" stroke-linecap="round"/>
<path d="M943.279 301.697C942.717 300.336 942.042 299.004 941.503 297.638C941.382 297.334 941.799 298.226 941.88 298.543C941.911 298.666 941.95 299.467 942.099 299.537C942.319 299.641 942.707 299.322 942.521 299.253C942.238 299.146 942.115 299.602 942.137 299.77C942.212 300.345 942.498 301.246 942.943 301.656C943.041 301.747 943.188 301.723 943.217 301.858C943.262 302.073 943.41 302.066 943.512 302.218C943.731 302.548 942.683 302.376 942.504 302.376C941.78 302.376 941.093 302.276 940.381 302.188C940.038 302.145 939.692 302.039 939.356 301.958C939.174 301.914 938.754 302.044 938.897 301.759" stroke="#F2F9FA" stroke-width="3" stroke-linecap="round"/>
<path d="M940.501 301.697C939.552 301.661 938.617 301.237 937.662 301.203C937.404 301.194 937.27 301.061 937.025 300.994C936.454 300.84 935.852 300.783 935.276 300.634C933.607 300.202 931.883 300.032 930.236 299.503C929.375 299.226 928.546 299.167 927.654 299.167C927.491 299.167 926.958 299.133 927.363 299.318C927.827 299.53 928.255 299.683 928.758 299.76C929.639 299.894 930.447 300.257 931.336 300.367C933.024 300.575 934.713 300.869 936.411 300.987C938.462 301.131 940.481 301.203 942.538 301.203C942.681 301.203 942.824 301.203 942.967 301.203C943.219 301.203 942.355 301.302 942.332 301.306C941.947 301.387 941.563 301.484 941.187 301.601C940.959 301.672 940.727 301.825 940.494 301.872C940.031 301.965 939.485 301.882 939.013 301.882C938.37 301.882 937.756 301.87 937.121 301.773C936.652 301.701 936.177 301.696 935.705 301.666C935.237 301.637 934.822 301.485 934.361 301.443C934.117 301.422 933.904 301.275 933.665 301.265C933.25 301.249 934.488 301.367 934.899 301.426C936.589 301.67 938.181 301.944 939.898 301.944C940.478 301.944 941.098 301.881 941.671 301.982C941.886 302.02 942.061 302.156 942.277 302.191C942.456 302.219 942.155 302.393 942.106 302.407C941.941 302.453 941.774 302.5 941.605 302.53C941.141 302.613 940.737 302.618 940.282 302.565C940.016 302.533 939.742 302.493 939.476 302.434C939.164 302.365 938.9 302.202 938.574 302.191C938.244 302.18 937.768 302.174 937.457 302.067C937.01 301.915 936.453 302.012 935.982 301.944C935.65 301.896 935.324 301.857 934.995 301.79C934.898 301.77 934.101 301.692 934.481 301.697C936.02 301.719 937.557 302.094 939.092 302.198C939.782 302.245 940.448 302.426 941.146 302.438C941.818 302.449 940.975 302.438 940.8 302.438C939.339 302.438 937.905 302.298 936.449 302.249C935.35 302.213 934.289 302.007 933.202 301.879C931.728 301.706 930.213 301.491 928.768 301.142C927.149 300.751 925.521 300.376 923.879 300.093C923.025 299.945 922.155 299.893 921.297 299.757C920.141 299.572 919.005 299.344 917.865 299.074C916.848 298.833 915.841 298.557 914.807 298.392C913.998 298.263 913.174 298.31 912.359 298.269C909.76 298.136 907.172 297.806 904.589 297.5C903.728 297.398 902.852 297.327 901.997 297.178C901.809 297.146 901.701 297.102 901.558 297.007" stroke="#F2F9FA" stroke-width="3" stroke-linecap="round"/>
<path d="M913.785 299.542C915.862 299.936 917.99 300.093 920.082 300.401C920.427 300.452 921.458 300.578 921.11 300.594C920.57 300.618 920.02 300.56 919.486 300.5C917.86 300.317 916.243 300.058 914.615 299.893C913.962 299.826 913.349 299.78 912.699 299.735C912.516 299.722 911.968 299.728 912.15 299.7C912.651 299.623 913.305 299.776 913.785 299.858C915.544 300.155 917.287 300.561 919.03 300.935C919.56 301.049 919.615 301.063 920.058 301.148C920.168 301.17 920.294 301.188 920.056 301.154C918.999 301.005 917.947 300.819 916.89 300.672C914.691 300.369 912.465 300.12 910.242 300.12C909.758 300.12 911.212 300.12 911.697 300.132C913.514 300.177 915.329 300.289 917.144 300.374C918.092 300.419 919.042 300.47 919.991 300.485C920.227 300.489 920.453 300.509 920.672 300.436" stroke="#F2F9FA"/>
<path d="M886.941 298.345C887.436 298.362 887.918 298.529 888.415 298.529C888.688 298.529 887.867 298.524 887.595 298.492C887.395 298.468 887.198 298.422 886.999 298.393C886.953 298.386 886.841 298.365 886.861 298.407C886.897 298.484 886.976 298.555 887.051 298.59C887.353 298.734 887.717 298.758 888.045 298.793C888.334 298.823 887.464 298.804 887.174 298.825C887.1 298.831 887.008 298.842 886.934 298.853C886.913 298.856 886.857 298.853 886.872 298.868C886.942 298.938 887.215 298.925 887.302 298.931C887.485 298.945 887.668 298.96 887.85 298.987C887.954 299.003 887.915 298.998 887.828 298.998C887.59 298.998 887.352 298.998 887.113 298.998C887.037 298.998 886.946 299.01 886.87 298.991C886.746 298.959 886.622 298.944 886.494 298.932C886.361 298.92 886.431 298.977 886.511 299.034C886.678 299.154 886.846 299.149 887.04 299.149C887.141 299.149 887.242 299.149 887.343 299.149C887.406 299.149 887.459 299.183 887.524 299.183C887.635 299.183 887.303 299.204 887.193 299.216" stroke="#F2F9FA" stroke-linecap="round"/>
<path d="M887.327 299.334C887.392 299.334 887.458 299.334 887.524 299.334C887.651 299.334 887.259 299.284 887.245 299.283C887.026 299.267 886.8 299.233 886.582 299.233C886.562 299.233 886.465 299.22 886.492 299.267C886.526 299.325 886.629 299.333 886.688 299.334C886.796 299.335 886.888 299.35 886.992 299.367C887.157 299.395 887.309 299.401 887.478 299.401C887.521 299.401 887.563 299.413 887.606 299.421C887.65 299.429 887.687 299.447 887.729 299.46C887.734 299.462 887.798 299.468 887.792 299.477C887.754 299.544 887.578 299.534 887.517 299.536C887.411 299.54 887.307 299.552 887.202 299.552C887.169 299.552 886.9 299.53 886.892 299.561C886.885 299.584 887.241 299.652 887.289 299.652C887.35 299.652 887.242 299.652 887.226 299.652C887.183 299.652 887.136 299.657 887.094 299.651C887.013 299.64 886.937 299.602 886.857 299.602C886.67 299.602 886.498 299.585 886.315 299.548C886.269 299.538 886.259 299.5 886.22 299.488C886.164 299.471 886.094 299.468 886.037 299.468C885.998 299.468 885.932 299.454 885.895 299.469C885.88 299.475 885.977 299.534 885.998 299.535C886.106 299.539 886.214 299.535 886.321 299.535C886.411 299.535 886.495 299.568 886.589 299.568" stroke="#F2F9FA" stroke-linecap="round"/>
<path d="M910.368 298.169C910.242 298.424 910.099 298.654 909.93 298.881C909.87 298.962 909.796 299.045 909.777 299.147C909.751 299.284 909.953 299.536 909.838 299.636C909.549 299.887 908.953 299.923 908.602 299.988C908.391 300.027 908.177 300.049 907.968 300.096C907.765 300.142 908.384 300.132 908.592 300.141C909.515 300.181 910.432 300.253 911.346 300.395C911.439 300.41 911.718 300.451 911.623 300.458C911.212 300.485 910.77 300.447 910.362 300.434C909.562 300.409 908.745 300.4 907.954 300.268C907.522 300.196 907.906 300.181 908.072 300.186C908.443 300.197 908.872 300.224 909.237 300.248C909.542 300.269 909.86 300.231 910.151 300.325C910.404 300.407 909.617 300.33 909.351 300.319C908.147 300.27 906.946 300.176 905.744 300.086C904.785 300.014 903.796 299.997 902.842 299.859C902.732 299.843 902.799 299.819 902.754 299.769C902.656 299.661 902.33 299.665 902.212 299.652C901.935 299.622 901.651 299.639 901.375 299.605C900.67 299.518 899.943 299.534 899.232 299.445C898.77 299.386 898.325 299.265 897.867 299.194C897.707 299.169 897.354 299.087 897.192 299.175C897.098 299.225 897.368 299.304 897.471 299.331C898.912 299.703 900.428 299.758 901.899 299.937C902.458 300.006 903.013 300.157 903.573 300.196C903.919 300.219 904.266 300.211 904.612 300.211C904.918 300.211 905.835 300.211 905.529 300.211C904.767 300.211 903.992 300.14 903.233 300.104C901.868 300.038 900.497 300.028 899.134 299.941C897.946 299.866 896.732 299.721 895.567 299.462C895.187 299.378 894.781 299.308 894.419 299.163C894.184 299.069 894.854 298.832 894.913 298.803" stroke="#F2F9FA" stroke-linecap="round"/>
<path d="M889.527 299.155C889.86 299.155 890.162 299.234 890.489 299.296C890.953 299.384 891.419 299.45 891.89 299.488C892.482 299.536 893.084 299.511 893.673 299.593C894.221 299.67 894.76 299.656 895.308 299.707C895.883 299.759 896.448 299.811 897.026 299.826C897.291 299.833 897.545 299.922 897.812 299.93C898.125 299.938 898.438 299.939 898.751 299.957C899.559 300.004 897.13 299.978 896.321 299.928C895.223 299.859 894.124 299.832 893.028 299.718C892.405 299.654 891.746 299.662 891.143 299.476C890.915 299.406 891.616 299.521 891.851 299.56C892.025 299.589 892.201 299.609 892.375 299.64C892.487 299.66 892.148 299.67 892.034 299.675C891.515 299.701 890.987 299.689 890.484 299.58C890.249 299.528 890.007 299.534 889.772 299.488C889.559 299.446 889.352 299.401 889.136 299.374C888.97 299.354 887.86 299.224 887.839 299.317C887.777 299.6 888.743 299.76 888.944 299.787C889.408 299.849 889.887 299.859 890.354 299.859C890.763 299.859 891.153 299.953 891.557 299.965C892.106 299.981 890.46 299.893 889.914 299.832C889.261 299.759 888.626 299.542 887.965 299.542C887.855 299.542 887.742 299.535 887.634 299.56C887.566 299.575 887.581 299.623 887.534 299.644C887.499 299.66 887.376 299.664 887.499 299.701C887.606 299.733 887.725 299.754 887.837 299.754C888.084 299.754 888.33 299.754 888.577 299.754C889.001 299.754 889.409 299.824 889.832 299.824C890.199 299.824 890.54 299.862 890.904 299.89C891.532 299.94 889.645 299.824 889.015 299.824C888.955 299.824 888.497 299.799 888.747 299.791C889.433 299.769 890.141 299.761 890.826 299.832C891.581 299.91 892.336 299.992 893.093 300.067C893.614 300.118 894.138 300.11 894.659 300.156C895.712 300.25 896.766 300.316 897.82 300.403C898.305 300.443 898.792 300.514 899.279 300.526C899.723 300.537 900.164 300.53 900.608 300.563C902.357 300.694 904.094 300.995 905.846 301.066C907.194 301.12 908.544 301.12 909.892 301.175C910.7 301.209 911.473 301.186 912.269 301.056" stroke="#F2F9FA" stroke-linecap="round"/>
<path d="M911.142 300.634C912.3 301.174 913.521 301.226 914.78 301.33C915.781 301.413 916.783 301.479 917.784 301.569C919.465 301.718 921.157 301.825 922.845 301.831C924.466 301.836 926.086 301.961 927.704 302.059C928.725 302.122 929.744 302.224 930.766 302.288C931.084 302.308 931.402 302.323 931.721 302.323C931.826 302.323 931.515 302.368 931.412 302.39C930.957 302.485 930.515 302.528 930.05 302.542C929.506 302.56 928.972 302.6 928.431 302.527C925.718 302.161 923.039 301.572 920.33 301.166C920.221 301.149 919.893 301.147 920.002 301.127C920.185 301.092 920.375 301.136 920.561 301.142C921.438 301.172 922.279 301.215 923.135 301.42C924.469 301.739 925.795 302.03 927.148 302.261C928.747 302.533 930.355 302.846 931.969 303.012C932.115 303.027 932.202 302.981 932.341 302.939C932.602 302.862 932.857 302.85 933.129 302.851C933.423 302.853 933.716 302.91 933.997 302.994C934.867 303.255 935.772 303.31 936.673 303.387C937.17 303.43 937.669 303.456 938.167 303.501C938.274 303.51 938.52 303.587 938.566 303.45" stroke="#F2F9FA" stroke-linecap="round"/>
<path d="M942.086 303.591C941.407 303.471 940.753 303.45 940.066 303.45C939.868 303.45 939.671 303.45 939.473 303.45C939.27 303.45 938.956 303.384 938.765 303.454C938.661 303.492 938.863 303.52 938.871 303.52C939 303.52 939.129 303.52 939.258 303.52C939.576 303.52 939.897 303.504 940.214 303.522C940.365 303.531 940.995 303.472 940.995 303.644C940.995 303.813 940.098 303.682 939.939 303.659C939.677 303.622 939.412 303.537 939.145 303.493C939.124 303.49 939.061 303.485 939.082 303.485C939.191 303.485 939.331 303.546 939.43 303.573C939.53 303.601 939.83 303.648 939.727 303.661C939.522 303.687 939.297 303.661 939.09 303.661C938.979 303.661 938.864 303.668 938.753 303.659C938.574 303.645 938.419 303.53 938.241 303.52C937.852 303.498 937.499 303.382 937.099 303.38C936.163 303.373 935.23 303.373 934.294 303.344C933.85 303.331 933.4 303.198 932.961 303.131C932.58 303.074 932.199 303.014 931.818 302.957C930.95 302.827 930.066 302.815 929.194 302.701C928.507 302.611 927.82 302.509 927.136 302.398C926.987 302.374 926.826 302.363 926.702 302.288" stroke="#F2F9FA" stroke-linecap="round"/>
<path d="M932.405 302.957C932.021 303.012 931.636 303.071 931.247 303.055C930.711 303.033 930.176 302.913 929.645 302.838C928.839 302.723 928.027 302.622 927.218 302.527C925.628 302.34 924.04 302.125 922.444 301.995C922.036 301.962 921.623 301.959 921.216 301.913C920.645 301.848 920.079 301.732 919.513 301.635C919.238 301.588 918.414 301.51 918.691 301.486C919.422 301.425 920.216 301.615 920.931 301.731C922.364 301.962 923.819 302.147 925.243 302.433C926.058 302.597 926.886 302.816 927.723 302.816C928.018 302.816 928.313 302.813 928.607 302.824C928.796 302.832 928.985 302.848 929.174 302.851C929.314 302.854 929.252 302.871 929.117 302.887C928.32 302.979 927.465 302.855 926.673 302.791C925.618 302.706 924.574 302.58 923.526 302.445C921.252 302.151 918.965 302.02 916.681 301.838C915.835 301.771 914.983 301.755 914.138 301.686C913.747 301.654 913.362 301.568 912.969 301.533C912.294 301.474 911.621 301.387 910.943 301.375C910.437 301.366 909.74 301.397 909.312 301.091" stroke="#F2F9FA" stroke-linecap="round"/>
<path d="M911.529 301.373C911.352 301.535 911.201 301.545 910.96 301.545C910.405 301.545 909.855 301.476 909.31 301.379C908.765 301.282 908.214 301.21 907.673 301.095C907.003 300.953 906.29 300.922 905.611 300.825C905.425 300.799 904.878 300.757 905.06 300.712C905.238 300.667 905.424 300.759 905.605 300.788C906.547 300.942 907.488 301.099 908.428 301.263C909.56 301.462 910.639 301.803 911.795 301.833C912.717 301.856 913.632 301.877 914.551 301.95C915.009 301.986 915.469 301.973 915.928 301.989C916.028 301.993 916.327 302.012 916.227 302.014C915.548 302.03 914.857 301.98 914.181 301.934C912.304 301.808 910.445 301.541 908.572 301.375C907.974 301.322 907.378 301.26 906.783 301.175C906.521 301.138 906.055 301.13 905.889 300.923C905.852 300.877 905.859 300.856 905.94 300.845C906.327 300.793 906.79 300.857 907.156 300.886C909.389 301.064 911.619 301.285 913.849 301.498C916.038 301.707 918.219 301.977 920.407 302.192C921.401 302.29 924.395 302.43 923.399 302.355C922.507 302.287 921.614 302.228 920.721 302.169C919.734 302.104 918.749 302.117 917.76 302.089C916.697 302.059 915.666 301.923 914.612 301.807C914.304 301.773 913.993 301.766 913.687 301.725C913.653 301.72 913.617 301.722 913.587 301.705C913.474 301.644 913.84 301.745 913.966 301.768C916.591 302.253 919.237 302.382 921.891 302.621C923.227 302.741 924.588 302.871 925.932 302.887C926.624 302.895 927.314 302.957 928.005 302.957" stroke="#F2F9FA" stroke-linecap="round"/>
<path d="M945.662 301.254C941.414 300.989 936.987 300.069 932.863 299.05C932.553 298.974 930.488 298.402 932.109 298.222C933.92 298.021 935.873 298.109 937.659 298.454C938.247 298.567 939.496 298.805 939.921 299.357C940.144 299.647 939.194 299.465 938.828 299.465C936.717 299.465 934.578 299.383 932.473 299.564C931.686 299.632 931.442 299.71 932.482 299.87C934.014 300.107 936.979 300.322 938.281 300.426C940.866 300.63 943.521 300.695 946.093 301.072C946.818 301.178 944.935 301.253 944.751 301.254C944.701 301.254 943.748 301.379 944.022 301.105C944.367 300.76 944.723 300.937 945.115 300.773C945.171 300.75 944.795 299.659 944.767 299.465" stroke="#F2F9FA" stroke-width="3" stroke-linecap="round"/>
</svg>
