<svg width="140" height="34" viewBox="0 0 140 34" fill="none" xmlns="http://www.w3.org/2000/svg">
<path d="M10.0088 0.5H129.416C134.663 0.5 138.916 4.75329 138.916 10V24C138.916 29.2467 134.663 33.5 129.416 33.5H10.0088C4.76208 33.5 0.508789 29.2467 0.508789 24V10C0.508789 4.75329 4.76208 0.5 10.0088 0.5Z" fill="#000D12" stroke="white"/>
<path d="M109 10C109 4.47715 113.477 0 119 0H130C135.523 0 140 4.47715 140 10V24C140 29.5228 135.523 34 130 34H119C113.477 34 109 29.5228 109 24V10Z" fill="#63FFFF" fill-opacity="0.94"/>
<path d="M116 16.25C115.586 16.25 115.25 16.5858 115.25 17C115.25 17.4142 115.586 17.75 116 17.75L116 16.25ZM133.707 17.5303C134 17.2374 134 16.7626 133.707 16.4697L128.934 11.6967C128.641 11.4038 128.166 11.4038 127.873 11.6967C127.58 11.9896 127.58 12.4645 127.873 12.7574L132.116 17L127.873 21.2426C127.58 21.5355 127.58 22.0104 127.873 22.3033C128.166 22.5962 128.641 22.5962 128.934 22.3033L133.707 17.5303ZM116 17.75L133.176 17.75L133.176 16.25L116 16.25L116 17.75Z" fill="#00171F"/>
</svg>
