<svg width="67" height="69" viewBox="0 0 67 69" fill="none" xmlns="http://www.w3.org/2000/svg">
<path d="M14.1146 53.6158C32.2182 72.4235 66.0706 68.4579 66.0706 68.4579C66.0706 68.4579 70.5507 33.9974 52.4299 15.2002C34.3274 -3.60755 0.491088 0.346445 0.491088 0.346445C0.491088 0.346445 -3.98908 34.8069 14.1146 53.6158Z" fill="white"/>
<path d="M63.9893 62.6827C63.9352 64.0757 63.8583 65.2458 63.7864 66.1409C62.9153 66.1975 61.7841 66.254 60.4419 66.2843C57.0769 66.3601 52.4075 66.2702 47.1958 65.6096C36.6938 64.2784 24.385 60.6807 15.9158 51.8821C7.43751 43.0736 4.12184 30.4279 3.00049 19.6686C2.44422 14.3312 2.43831 9.55871 2.57204 6.12198C2.62624 4.72913 2.70323 3.5592 2.77515 2.66411C3.64563 2.60782 4.77568 2.5517 6.11644 2.52189C9.47989 2.44711 14.1473 2.53846 19.3569 3.20047C29.8547 4.53445 42.1596 8.13485 50.6287 16.9339L50.6301 16.9353C59.116 25.738 62.4356 38.3801 63.5591 49.1377C64.1164 54.4742 64.1228 59.2462 63.9893 62.6827Z" stroke="black" stroke-opacity="0.4" stroke-width="5"/>
</svg>
