<svg width="67" height="69" viewBox="0 0 67 69" fill="none" xmlns="http://www.w3.org/2000/svg">
<path d="M14.1146 53.6158C32.2183 72.4235 66.0707 68.4579 66.0707 68.4579C66.0707 68.4579 70.5509 33.9974 52.43 15.2002C34.3275 -3.60755 0.491089 0.346446 0.491089 0.346446C0.491089 0.346446 -3.98909 34.8069 14.1146 53.6158Z" fill="white"/>
<path d="M63.9895 62.6827C63.9354 64.0757 63.8584 65.2458 63.7865 66.1409C62.9154 66.1975 61.7842 66.254 60.442 66.2843C57.077 66.3601 52.4076 66.2702 47.1959 65.6096C36.6939 64.2784 24.3851 60.6807 15.9158 51.8821C7.43752 43.0736 4.12185 30.428 3.00049 19.6686C2.44422 14.3312 2.43831 9.55871 2.57204 6.12199C2.62624 4.72914 2.70323 3.5592 2.77515 2.66411C3.64564 2.60782 4.77569 2.5517 6.11645 2.52189C9.4799 2.44711 14.1473 2.53846 19.357 3.20047C29.8547 4.53445 42.1597 8.13485 50.6288 16.9339L50.6302 16.9353C59.1161 25.738 62.4358 38.3801 63.5592 49.1377C64.1165 54.4742 64.1229 59.2463 63.9895 62.6827Z" stroke="black" stroke-opacity="0.6" stroke-width="5"/>
</svg>
