<svg width="993" height="783" viewBox="0 0 993 783" fill="none" xmlns="http://www.w3.org/2000/svg">
<path d="M482.871 758.355L54.6149 493.57C40.986 485.571 29.2934 472.403 42.5748 463.806L472.395 204.657C478.849 200.475 488.63 197.748 495.184 201.722L944.69 474.61C958.319 482.896 960.777 506.037 947.173 514.322L539.323 757.94C530.76 763.136 521.049 765.908 511.15 765.981C501.25 766.054 491.503 763.425 482.871 758.355Z" fill="#6349C9"/>
<path opacity="0.32" d="M800.085 476.169C767.415 496.089 744.08 509.491 693.834 539.489C731.866 563.669 765.107 581.408 769.377 584.057L878.607 519.127C869.744 514.374 840.748 497.206 800.085 476.169Z" fill="url(#paint0_linear_525_74)"/>
<path opacity="0.32" d="M374.858 532.97C335.485 556.994 307.358 573.123 246.81 609.276C292.637 638.416 332.705 659.817 337.868 662.986L469.441 584.836C458.89 579.018 423.961 558.319 374.858 532.97Z" fill="url(#paint1_linear_525_74)"/>
<path opacity="0.32" d="M134.725 505.647C155.156 491.414 175.935 477.701 196.589 463.858L167.246 441.444L53.5972 491.051C67.3254 498.583 85.8697 512.686 105.382 527.048C115.089 519.802 124.795 512.556 134.725 505.647Z" fill="url(#paint2_linear_525_74)"/>
<path d="M207.736 384.384C207.567 383.649 207.254 382.959 206.817 382.358C206.015 381.337 205.059 380.459 203.987 379.761C189.564 369.554 169.58 366.775 154.337 376.722C150.861 379.007 145.673 384.176 147.734 389.059C148.925 391.89 152.55 393.552 155.181 394.695C163.549 398.193 172.294 400.609 181.222 401.889C184.45 402.46 187.727 403.032 190.979 403.343C193.228 403.57 195.497 403.201 197.575 402.271C199.652 401.34 201.473 399.878 202.87 398.019C205.129 394.928 208.753 388.903 207.736 384.384Z" fill="#59B3D8"/>
<path d="M147.312 386.825C147.312 386.825 160.469 399.292 183.208 397.474C205.948 395.656 207.711 384.488 207.711 384.488C207.711 384.488 201.827 463.339 198.724 464.689C195.621 466.04 184.003 471.91 178.392 472.351C172.782 472.793 155.057 465.365 154.61 463.313C154.163 461.261 147.312 386.825 147.312 386.825Z" fill="#689BFD"/>
<path d="M151.433 272.028C150.737 270.548 148.578 271.847 149.298 273.327C164.863 306.156 167.891 343.114 170.697 379.007C170.821 380.644 173.303 380.67 173.179 379.007C170.374 342.517 167.246 305.169 151.433 272.028Z" fill="#007F68"/>
<path d="M149.471 272.236C149.471 272.236 153.816 289.274 149.322 297.793C144.829 306.312 141.13 308 146.492 318.57C151.855 329.141 166.203 330.57 167.147 338.673C168.09 346.776 160.295 286.703 149.471 272.236Z" fill="#007F68"/>
<path d="M199.245 302.987C187.258 329.216 180.5 357.724 179.385 386.773C179.385 388.799 182.34 388.773 182.414 386.773C183.466 358.276 190.046 330.3 201.753 304.546C202.696 302.754 200.09 301.143 199.245 302.987Z" fill="#007F68"/>
<path d="M201.38 311.272C201.38 309.558 201.008 306.078 201.182 303.195L199.444 304.338C193.536 319.376 184.698 354.698 182.067 365.502C185.666 357.399 200.387 356.282 204.707 344.724C206.613 339.819 206.702 334.345 204.955 329.375C202.825 323.586 201.617 317.471 201.38 311.272Z" fill="#007F68"/>
<path opacity="0.32" d="M532.72 604.783C572.738 582.239 667.445 532.398 707.165 509.335L478.576 359.71L313.639 476.87C355.494 499.778 474.803 567.305 532.72 604.783Z" fill="url(#paint3_linear_525_74)"/>
<path d="M339.805 352.542C339.978 407.94 340.276 457.807 340.276 457.807C340.276 457.807 341.393 462.326 349.362 458.638V349.217C346.185 350.334 343.007 351.399 339.805 352.542Z" fill="#5B434D"/>
<path d="M561.219 487.181C561.393 542.579 561.69 592.446 561.69 592.446C561.69 592.446 562.808 596.965 570.776 593.277V483.96C567.599 484.999 564.421 486.142 561.219 487.181Z" fill="#3E4D2F"/>
<path d="M697.583 403.239C697.756 458.638 698.054 508.504 698.054 508.504C698.054 508.504 699.171 513.023 707.14 509.335V400.019C703.987 401.11 700.81 402.2 697.583 403.239Z" fill="#3E4D2F"/>
<path d="M337.943 349.217V358.645L566.432 496.947L706.941 400.408L707.165 389.864" fill="#A5DD73"/>
<path opacity="0.76" d="M337.943 349.217V358.645L566.432 496.947L706.941 400.408L707.165 389.864" fill="#1E2019"/>
<path d="M337.943 349.217L484.956 261.484L707.165 389.864L565.638 487.493L337.943 349.217Z" fill="#6444C7"/>
<path d="M541.955 303.559L510.998 319.142C509.83 319.728 508.836 320.636 508.125 321.768C507.413 322.901 507.01 324.215 506.959 325.569C506.908 326.924 507.211 328.267 507.835 329.454C508.459 330.642 509.381 331.629 510.501 332.31L583.909 377.111C585.496 378.079 587.378 378.367 589.164 377.917C590.949 377.467 592.499 376.313 593.491 374.696L611.316 345.685" fill="#383C30"/>
<path d="M697.583 220.526L444.69 68.1479C443.438 67.3701 442.011 66.9543 440.555 66.943C439.099 66.9317 437.667 67.3254 436.404 68.0837C435.141 68.842 434.094 69.9378 433.369 71.2588C432.644 72.5798 432.267 74.0786 432.278 75.6018V237.486C432.281 238.65 432.576 239.792 433.134 240.8C433.691 241.807 434.492 242.643 435.455 243.226L704.534 405.733C704.999 406.017 705.528 406.167 706.067 406.168C706.606 406.169 707.135 406.021 707.602 405.739C708.068 405.457 708.455 405.05 708.723 404.561C708.99 404.072 709.13 403.517 709.126 402.954V241.719C709.142 237.439 708.085 233.229 706.059 229.51C704.033 225.791 701.111 222.693 697.583 220.526Z" fill="#689BFD"/>
<path d="M449.084 82.4325L688.546 226.577C691.104 228.116 693.229 230.334 694.706 233.006C696.184 235.678 696.962 238.71 696.962 241.797V357.892C696.965 359.006 696.687 360.101 696.157 361.067C695.626 362.033 694.862 362.835 693.941 363.394C693.019 363.952 691.974 364.246 690.909 364.247C689.844 364.248 688.798 363.955 687.876 363.398L443.672 216.812C442.76 216.264 442.001 215.473 441.474 214.52C440.946 213.567 440.669 212.485 440.669 211.384V87.6269C440.657 86.5902 440.908 85.5688 441.394 84.6656C441.881 83.7624 442.587 83.0094 443.44 82.4826C444.294 81.9558 445.265 81.6737 446.256 81.6649C447.247 81.6562 448.222 81.9209 449.084 82.4325Z" fill="#200A52"/>
<path d="M552.391 300.95C553.804 300.665 554.948 300.423 554.945 300.409C554.943 300.395 553.795 300.614 552.381 300.899C550.968 301.184 549.824 301.426 549.827 301.44C549.83 301.454 550.977 301.234 552.391 300.95Z" fill="#AB643C"/>
<path d="M678.79 233.148C680.23 233.148 681.397 231.823 681.397 230.188C681.397 228.552 680.23 227.227 678.79 227.227C677.35 227.227 676.183 228.552 676.183 230.188C676.183 231.823 677.35 233.148 678.79 233.148Z" fill="#659FE4"/>
<path d="M670.474 228.811C671.913 228.811 673.08 227.485 673.08 225.85C673.08 224.215 671.913 222.889 670.474 222.889C669.034 222.889 667.867 224.215 667.867 225.85C667.867 227.485 669.034 228.811 670.474 228.811Z" fill="#C5E9FF"/>
<path d="M454.099 114.508L600.939 201.8" stroke="#00A99D" stroke-width="4.06" stroke-miterlimit="10"/>
<path d="M454.62 137.337L478.403 151.466" stroke="#D4145A" stroke-width="4.06" stroke-miterlimit="10"/>
<path d="M485.428 156.245L617.596 232.265" stroke="#29ABE2" stroke-width="4.06" stroke-miterlimit="10"/>
<path d="M454.099 158.167L504.841 187.438" stroke="#F7931E" stroke-width="4.06" stroke-miterlimit="10"/>
<path d="M513.257 192.996L624.547 255.277" stroke="#00A99D" stroke-width="4.06" stroke-miterlimit="10"/>
<path d="M785.91 211.358V323.038C785.914 325.24 785.36 327.405 784.303 329.309C783.246 331.214 781.724 332.791 779.894 333.88C778.063 334.968 775.99 335.528 773.884 335.503C771.779 335.478 769.718 334.869 767.912 333.738L666.353 270.366C664.581 269.263 663.113 267.696 662.095 265.82C661.076 263.944 660.542 261.823 660.544 259.666V149.96C660.542 147.774 661.09 145.626 662.134 143.732C663.178 141.838 664.681 140.266 666.49 139.173C668.3 138.08 670.353 137.506 672.443 137.507C674.532 137.509 676.584 138.086 678.393 139.181L779.952 200.527C781.77 201.622 783.279 203.201 784.325 205.103C785.371 207.005 785.918 209.163 785.91 211.358Z" fill="#007F68"/>
<path d="M713.421 198.735L680.503 224.058L710.02 267.406" stroke="#52BDDF" stroke-width="4.06" stroke-miterlimit="10"/>
<path d="M742.541 217.02L766.77 266.522L732.71 283.145" stroke="#52BDDF" stroke-width="4.06" stroke-miterlimit="10"/>
<path d="M456.209 319.35L402.86 351.243C402.304 351.581 401.842 352.066 401.52 352.65C401.199 353.233 401.03 353.895 401.03 354.568C401.03 355.241 401.199 355.902 401.52 356.486C401.842 357.069 402.304 357.554 402.86 357.892L551.115 447.054C552.912 448.137 554.95 448.707 557.023 448.707C559.097 448.707 561.134 448.137 562.932 447.054L612.855 416.901C613.437 416.55 613.922 416.045 614.258 415.436C614.595 414.828 614.772 414.137 614.772 413.433C614.772 412.73 614.595 412.039 614.258 411.431C613.922 410.822 613.437 410.317 612.855 409.966L462.912 319.35C461.895 318.726 460.738 318.398 459.56 318.398C458.382 318.398 457.225 318.726 456.209 319.35Z" fill="#200A52"/>
<path d="M536.816 370.203L521.598 379.657L532.894 386.513L548.186 377.112L536.816 370.203Z" fill="white" fill-opacity="0.8"/>
<path d="M520.133 360.048L504.916 369.502L519.24 378.202L534.532 368.8L520.133 360.048Z" fill="white" fill-opacity="0.8"/>
<path d="M459.511 323.219L444.045 332.517L457.798 340.88L473.09 331.479L459.511 323.219Z" fill="white" fill-opacity="0.8"/>
<path d="M492.106 343.036L476.888 352.542L488.184 359.399L503.476 349.997L492.106 343.036Z" fill="white" fill-opacity="0.8"/>
<path d="M475.423 332.881L460.206 342.335L474.505 351.035C476.193 350.023 485.776 344.101 489.797 341.634L475.423 332.881Z" fill="white" fill-opacity="0.8"/>
<path d="M550.494 378.514L535.277 387.968L546.1 394.539L561.368 385.137L550.494 378.514Z" fill="white" fill-opacity="0.8"/>
<path d="M505.785 351.347L490.567 360.801L502.533 368.073L517.825 358.671L505.785 351.347Z" fill="white" fill-opacity="0.8"/>
<path d="M563.701 386.513L548.484 395.967L562.808 404.668L578.1 395.266L563.701 386.513Z" fill="white" fill-opacity="0.8"/>
<path d="M580.384 396.668L565.141 406.096L590.835 421.706L606.301 412.408L580.384 396.668Z" fill="white" fill-opacity="0.8"/>
<path d="M442.084 335.271L426.618 344.568L446.627 356.723L461.919 347.322L442.084 335.271Z" fill="white" fill-opacity="0.8"/>
<path d="M480.91 358.853L465.692 368.307L476.988 375.164L492.28 365.762L480.91 358.853Z" fill="white" fill-opacity="0.8"/>
<path d="M508.913 375.917L493.695 385.371L508.019 394.071L523.311 384.669L508.913 375.917Z" fill="white" fill-opacity="0.8"/>
<path d="M494.588 367.164L479.371 376.618L491.336 383.89L506.629 374.488L494.588 367.164Z" fill="white" fill-opacity="0.8"/>
<path d="M525.62 386.02L510.402 395.474L521.697 402.33L536.965 392.928L525.62 386.02Z" fill="white" fill-opacity="0.8"/>
<path d="M539.298 394.331L524.081 403.785L534.904 410.356L550.172 400.954L539.298 394.331Z" fill="white" fill-opacity="0.8"/>
<path d="M464.228 348.724L449.01 358.178L463.309 366.878L478.601 357.477L464.228 348.724Z" fill="white" fill-opacity="0.8"/>
<path d="M552.48 402.356L537.263 411.81L551.587 420.511L566.854 411.109L552.48 402.356Z" fill="white" fill-opacity="0.8"/>
<path d="M553.945 421.939L573.383 433.757L588.874 424.459L569.163 412.485L553.945 421.939Z" fill="white" fill-opacity="0.8"/>
<path d="M542.55 420.303L531.23 427.367L544.363 435.315L555.857 428.406L542.55 420.303Z" fill="white" fill-opacity="0.8"/>
<path d="M547.093 436.977L558.265 443.73L569.783 436.847L558.389 429.939L547.093 436.977Z" fill="white" fill-opacity="0.8"/>
<path d="M422.993 347.659L411.127 354.568L424.582 362.697L436.225 355.711L422.993 347.659Z" fill="white" fill-opacity="0.8"/>
<path d="M438.732 357.243L427.288 364.359L441.662 373.06L453.28 366.073L438.732 357.243Z" fill="white" fill-opacity="0.8"/>
<path d="M455.812 367.606L444.392 374.722L528.499 425.705L540.018 418.771L455.812 367.606Z" fill="white" fill-opacity="0.8"/>
<path d="M843.28 526.685C869.097 526.685 890.026 515.859 890.026 502.505C890.026 489.15 869.097 478.325 843.28 478.325C817.464 478.325 796.535 489.15 796.535 502.505C796.535 515.859 817.464 526.685 843.28 526.685Z" fill="#689BFD"/>
<path d="M890.051 438.094V503.855C890.051 503.855 855.296 537.619 796.535 504.401V438.094" fill="#689BFD"/>
<path opacity="0.21" d="M853.558 501.855C840.649 512.244 825.059 517.179 809.072 518.945C819.725 524.336 831.449 527.006 843.28 526.737C868.105 526.737 888.387 516.711 889.877 504.037L890.026 503.907V438.094H889.157C881.287 461.625 872.996 486.064 853.558 501.855Z" fill="#200A52"/>
<path d="M803.536 461.625C803.536 461.625 795.79 449.236 788.492 456.43C781.193 463.624 787.573 488.376 808.997 490.765V500.583C808.997 500.583 782.112 496.765 778.462 471.494C774.813 446.223 792.141 442.327 800.805 449.288" fill="#689BFD"/>
<path d="M843.28 462.534C869.097 462.534 890.026 451.708 890.026 438.354C890.026 424.999 869.097 414.174 843.28 414.174C817.464 414.174 796.535 424.999 796.535 438.354C796.535 451.708 817.464 462.534 843.28 462.534Z" fill="#007F68"/>
<path d="M403.332 438.25C391.813 429.835 378.259 425.264 363.612 428.588C348.022 432.172 334.517 442.431 318.629 444.951C316.146 445.34 306.092 444.665 304.553 446.197C260.34 489.986 383.993 485.285 383.993 485.285C395.984 474.896 407.279 464.897 419.195 454.508C415.571 446.197 409.613 442.873 403.332 438.25Z" fill="#F8997C"/>
<path d="M345.067 501.829L340.673 633.923C340.5 638.936 347.947 638.936 348.121 633.923L352.515 501.829C352.763 496.817 345.341 496.843 345.067 501.829Z" fill="white" fill-opacity="0.8"/>
<path d="M319.349 489.622C301.872 524.131 285.413 559.167 269.972 594.731C268.011 599.25 274.415 603.224 276.401 598.653C291.843 563.089 308.302 528.052 325.778 493.544C328.013 489.129 321.608 485.181 319.349 489.622Z" fill="white" fill-opacity="0.8"/>
<path d="M406.41 349.945C407.924 349.555 420.66 346.127 423.788 345.036C426.916 343.945 436.597 336.076 441.86 337.244C447.123 338.413 457.723 345.711 458.22 348.153C458.716 350.594 455.737 353.555 454.62 354.62C453.503 355.685 445.832 352.75 442.853 352.256C439.874 351.763 435.133 359.139 432.327 360.437C429.522 361.736 411.4 365.138 411.4 365.138" fill="#FCBF81"/>
<path d="M440.644 382.306C442.158 381.916 454.893 378.488 458.021 377.397C461.149 376.306 470.831 368.437 476.094 369.606C481.357 370.774 491.957 378.072 492.453 380.514C492.95 382.955 489.971 385.916 488.854 386.981C487.737 388.046 480.066 385.111 477.087 384.617C474.108 384.124 469.366 391.5 466.561 392.799C463.756 394.097 445.634 397.5 445.634 397.5" fill="#FCBF81"/>
<path d="M435.704 550.163C438.012 547.566 439.527 544.969 438.732 542.242C437.317 537.385 431.012 535.411 426.692 535.671C422.373 535.931 417.904 538.268 413.535 539.567C408.967 541.282 404.09 541.912 399.26 541.411C398.483 541.291 397.776 540.875 397.274 540.242C395.935 539.931 394.697 539.26 393.682 538.294C392.668 537.328 391.912 536.102 391.49 534.736L377.191 529.386C377.191 529.386 373.542 560.994 373.666 563.149C374.733 580.213 399.087 570.473 399.087 570.473C399.087 570.473 399.956 562.682 400.179 561.721C400.402 560.76 409.737 563.721 413.584 563.097C415.354 562.58 417.031 561.764 418.549 560.682C421.429 559.02 424.259 557.254 427.064 555.488C429.87 553.721 432.799 551.981 435.704 550.163Z" fill="#34323D"/>
<path d="M382.305 433.497C376.943 434.042 371.581 434.769 366.243 435.575C368.461 471.468 370.943 507.335 373.691 543.177C387.593 549.124 393.228 546.371 401.842 537.151C403.481 502.946 406.336 467.027 406.261 432.536C398.317 432.899 390.323 433.263 382.305 433.497Z" fill="#200A52"/>
<path d="M324.537 423.653C324.537 423.653 322.229 462.949 341.096 471.702C359.963 480.454 398.665 476.091 417.705 464.404C427.549 458.131 437.88 452.736 448.588 448.275C448.588 448.275 453.553 431.081 441.612 423.653C429.671 416.225 403.506 407.031 380.22 423.653" fill="#200A52"/>
<path d="M420.734 364.827C422.745 356.801 421.578 343.556 421.578 343.556C421.578 343.556 398.019 347.763 388.089 346.153C378.159 344.543 361.924 322.778 361.924 322.778L364.133 365.892C382.95 370.021 402.438 370.904 420.734 364.827Z" fill="#5F5ACC"/>
<path d="M479.271 574.785C481.58 572.188 483.094 569.59 482.3 566.863C480.885 562.007 474.58 560.033 470.26 560.292C465.94 560.552 461.472 562.89 457.103 564.188C452.534 565.904 447.658 566.534 442.828 566.032C442.051 565.913 441.343 565.497 440.842 564.864C439.503 564.553 438.265 563.881 437.25 562.915C436.236 561.95 435.48 560.723 435.058 559.357L420.759 554.007C420.759 554.007 417.11 585.615 417.234 587.771C418.301 604.835 442.655 595.095 442.655 595.095C442.655 595.095 443.523 587.303 443.747 586.342C443.97 585.381 453.304 588.342 457.152 587.719C458.922 587.202 460.599 586.386 462.117 585.304C464.997 583.641 467.827 581.875 470.632 580.109C473.438 578.343 476.392 576.603 479.271 574.785Z" fill="#34323D"/>
<path d="M424.259 424.614C419.294 422.173 414.18 422.433 408.272 422.459C409.091 435.107 408.644 439.652 409.389 452.275L409.588 455.625C411.872 493.025 414.553 530.399 417.283 567.772C431.185 573.72 436.821 570.967 445.435 561.747C447.346 521.932 450.946 479.909 449.556 440.276C441.537 431.964 434.437 429.601 424.259 424.614Z" fill="#200A52"/>
<path d="M324.214 415.524C324.214 416.485 324.388 419.732 324.537 423.653C332.357 434.432 341.915 440.743 356.81 440.275C368.949 439.912 379.152 434.354 388.586 427.497C387.394 404.512 383.844 365.164 378.308 337.816C377.836 335.504 372.102 333.946 370.414 332.985C366.467 330.725 368.775 326.83 364.903 324.414C359.286 320.992 353.436 318.006 347.401 315.48H347.252C337.595 315.324 320.938 323.116 319.945 336.647C318.43 357.425 320.615 370.021 322.154 390.773C322.725 399.136 323.544 407.395 324.214 415.524Z" fill="#5F59CC"/>
<path d="M357.852 276.08C359.118 276.418 369.843 302.234 365.647 317.921C361.452 333.608 335.982 317.48 329.577 305.533C323.172 293.585 333.772 269.431 357.852 276.08Z" fill="#FCBF81"/>
<path d="M357.48 279.69C357.48 279.69 357.48 288.209 350.355 290.962C343.231 293.715 337.297 295.559 337.695 299.013C338.092 302.468 350.579 298.52 350.628 306.415C350.633 311.734 349.948 317.029 348.593 322.155C347.798 326.024 326.424 314.155 319.374 293.949C312.323 273.743 329.974 268.366 330.843 268.237C331.712 268.107 333.325 262.601 341.94 260.627C350.554 258.653 353.036 262.185 353.036 262.185C355.002 260.946 357.302 260.414 359.584 260.672C361.866 260.93 364.005 261.963 365.672 263.614C373.641 270.236 371.63 282.339 362.594 287.248L357.48 279.69Z" fill="#34323D"/>
<path d="M455.787 375.917C444.69 378.332 422.149 382.176 414.18 378.514C407.999 375.683 387.369 329.401 364.952 324.44L361.924 359.762C361.924 359.762 393.625 401.837 408.272 406.174C418.922 409.317 447.595 405.109 460.181 400.538C460.726 392.075 459.214 383.604 455.787 375.917Z" fill="#5F5CCD"/>
<path d="M385.557 386.799C383.943 384.617 365.573 362.853 365.573 362.853L387.642 410.148L385.557 386.799Z" fill="#34323D"/>
<path d="M417.457 453.833C410.562 463.889 400.791 471.392 389.554 475.26C373.815 480.272 350.926 477.857 342.66 460.69C327.616 429.367 341.741 390.149 325.853 359.684C324.019 355.833 321.427 352.431 318.249 349.701C315.07 346.971 311.376 344.974 307.408 343.841C297.106 341.478 290.031 349.581 286.307 359.113C279.604 376.202 279.852 397.474 280.175 415.68C280.192 430.386 281.212 445.071 283.228 459.625C283.228 459.625 292.861 520.685 367.931 504.297C380.932 501.831 393.419 496.996 404.821 490.012C410.664 486.487 415.778 481.782 419.865 476.169C424.508 469.105 421.404 460.819 417.457 453.833Z" fill="#682FC1"/>
<defs>
<linearGradient id="paint0_linear_525_74" x1="772.132" y1="542.917" x2="827.405" y2="494.138" gradientUnits="userSpaceOnUse">
<stop stop-color="#509CDB"/>
<stop offset="1" stop-color="#5D3C91"/>
</linearGradient>
<linearGradient id="paint1_linear_525_74" x1="30851.8" y1="31144" x2="33887.9" y2="26344.8" gradientUnits="userSpaceOnUse">
<stop stop-color="#E75D48"/>
<stop offset="1" stop-color="#502019"/>
</linearGradient>
<linearGradient id="paint2_linear_525_74" x1="6459.64" y1="16500.7" x2="8436.24" y2="13839.2" gradientUnits="userSpaceOnUse">
<stop stop-color="#E75D48"/>
<stop offset="1" stop-color="#502019"/>
</linearGradient>
<linearGradient id="paint3_linear_525_74" x1="75056" y1="51827.4" x2="80603.8" y2="39948.5" gradientUnits="userSpaceOnUse">
<stop stop-color="#E75D48"/>
<stop offset="1" stop-color="#502019"/>
</linearGradient>
</defs>
</svg>
