<svg width="1022" height="653" viewBox="0 0 1022 653" fill="none" xmlns="http://www.w3.org/2000/svg">
<path d="M530.624 645.862L137.382 398.646C124.868 391.177 114.131 378.883 126.327 370.857L521.004 128.902C526.931 124.998 535.912 122.452 541.93 126.162L954.684 380.944C967.199 388.68 969.456 410.285 956.964 418.021L582.46 645.474C574.597 650.326 565.68 652.914 556.59 652.982C547.5 653.05 538.55 650.596 530.624 645.862Z" fill="#6349C9"/>
<path opacity="0.32" d="M821.902 382.399C791.903 400.998 770.476 413.511 724.338 441.518C759.261 464.094 789.783 480.656 793.704 483.129L894.004 422.507C885.866 418.069 859.241 402.041 821.902 382.399Z" fill="url(#paint0_linear_525_74)"/>
<path opacity="0.32" d="M431.441 435.432C395.288 457.862 369.461 472.92 313.863 506.674C355.943 533.882 392.735 553.863 397.477 556.821L518.291 483.856C508.603 478.425 476.531 459.098 431.441 435.432Z" fill="url(#paint1_linear_525_74)"/>
<path opacity="0.32" d="M210.943 409.922C229.703 396.633 248.783 383.83 267.749 370.905L240.805 349.979L136.448 396.294C149.054 403.326 166.082 416.493 183.999 429.903C192.912 423.137 201.825 416.372 210.943 409.922Z" fill="url(#paint2_linear_525_74)"/>
<path d="M277.984 296.704C277.829 296.018 277.541 295.374 277.14 294.813C276.404 293.859 275.526 293.04 274.542 292.388C261.297 282.858 242.947 280.264 228.951 289.551C225.76 291.685 220.995 296.51 222.887 301.069C223.982 303.712 227.31 305.264 229.726 306.331C237.41 309.597 245.44 311.853 253.638 313.048C256.602 313.581 259.611 314.115 262.597 314.406C264.663 314.617 266.745 314.273 268.653 313.404C270.561 312.536 272.233 311.171 273.516 309.435C275.59 306.549 278.918 300.924 277.984 296.704Z" fill="#59B3D8"/>
<path d="M222.5 298.984C222.5 298.984 234.581 310.623 255.462 308.926C276.342 307.228 277.961 296.801 277.961 296.801C277.961 296.801 272.558 370.421 269.709 371.681C266.86 372.942 256.191 378.423 251.04 378.835C245.888 379.247 229.612 372.312 229.202 370.396C228.791 368.481 222.5 298.984 222.5 298.984Z" fill="#689BFD"/>
<path d="M226.284 191.804C225.646 190.422 223.662 191.634 224.324 193.016C238.616 223.667 241.397 258.173 243.973 291.685C244.087 293.212 246.367 293.237 246.253 291.685C243.677 257.615 240.805 222.745 226.284 191.804Z" fill="#6425B4"/>
<path d="M224.483 191.998C224.483 191.998 228.472 207.905 224.346 215.859C220.22 223.812 216.824 225.388 221.748 235.258C226.671 245.127 239.847 246.461 240.713 254.026C241.58 261.592 234.422 205.504 224.483 191.998Z" fill="#00A99D"/>
<path d="M270.188 220.709C259.18 245.197 252.975 271.813 251.951 298.935C251.951 300.826 254.664 300.802 254.732 298.935C255.699 272.329 261.74 246.209 272.49 222.163C273.356 220.49 270.963 218.987 270.188 220.709Z" fill="#6528B8"/>
<path d="M272.148 228.444C272.148 226.843 271.806 223.594 271.966 220.902L270.37 221.969C264.945 236.009 256.83 268.988 254.413 279.075C257.719 271.51 271.236 270.467 275.203 259.676C276.953 255.096 277.034 249.986 275.431 245.345C273.474 239.941 272.365 234.231 272.148 228.444Z" fill="#00A99D"/>
<path opacity="0.32" d="M576.397 502.48C613.143 481.432 700.107 434.898 736.579 413.365L526.68 273.668L375.228 383.054C413.661 404.442 523.215 467.489 576.397 502.48Z" fill="url(#paint3_linear_525_74)"/>
<path d="M399.255 266.975C399.414 318.698 399.688 365.255 399.688 365.255C399.688 365.255 400.714 369.475 408.031 366.031V263.871C405.113 264.914 402.195 265.908 399.255 266.975Z" fill="#5B434D"/>
<path d="M602.566 392.681C602.725 444.403 602.999 490.961 602.999 490.961C602.999 490.961 604.025 495.18 611.342 491.737V389.674C608.424 390.644 605.506 391.711 602.566 392.681Z" fill="#3E4D2F"/>
<path d="M727.78 314.309C727.94 366.031 728.213 412.589 728.213 412.589C728.213 412.589 729.239 416.808 736.556 413.365V311.302C733.661 312.32 730.744 313.339 727.78 314.309Z" fill="#3E4D2F"/>
<path d="M397.545 263.871V272.674L607.353 401.798L736.374 311.666L736.579 301.821" fill="#A5DD73"/>
<path opacity="0.76" d="M397.545 263.871V272.674L607.353 401.798L736.374 311.666L736.579 301.821" fill="#1E2019"/>
<path d="M397.545 263.871L532.539 181.959L736.579 301.821L606.623 392.972L397.545 263.871Z" fill="#6444C7"/>
<path d="M584.876 221.242L556.451 235.791C555.378 236.338 554.466 237.186 553.813 238.244C553.159 239.301 552.789 240.528 552.742 241.792C552.695 243.057 552.973 244.311 553.546 245.42C554.12 246.528 554.966 247.45 555.995 248.085L623.401 289.915C624.858 290.817 626.586 291.087 628.226 290.667C629.865 290.247 631.289 289.169 632.2 287.659L648.567 260.573" fill="#383C30"/>
<path d="M727.78 143.718L495.565 1.45083C494.415 0.724649 493.105 0.336428 491.768 0.325903C490.431 0.315379 489.115 0.682927 487.956 1.39093C486.796 2.09894 485.835 3.12197 485.169 4.35533C484.503 5.58868 484.157 6.98806 484.167 8.41024V159.553C484.17 160.64 484.441 161.707 484.953 162.647C485.465 163.588 486.2 164.369 487.085 164.912L734.163 316.637C734.59 316.902 735.076 317.042 735.571 317.043C736.066 317.044 736.552 316.906 736.98 316.643C737.408 316.379 737.764 316 738.009 315.543C738.255 315.086 738.383 314.568 738.38 314.042V163.506C738.395 159.509 737.424 155.579 735.564 152.107C733.704 148.634 731.02 145.742 727.78 143.718Z" fill="#689BFD"/>
<path d="M499.599 14.7877L719.483 149.369C721.831 150.805 723.783 152.875 725.139 155.37C726.496 157.865 727.21 160.696 727.21 163.578V271.97C727.213 273.01 726.958 274.033 726.471 274.935C725.984 275.836 725.282 276.586 724.436 277.107C723.59 277.628 722.63 277.903 721.652 277.904C720.675 277.905 719.714 277.631 718.867 277.111L494.63 140.251C493.792 139.739 493.095 139.001 492.611 138.111C492.127 137.221 491.872 136.211 491.872 135.183V19.6375C491.862 18.6695 492.091 17.7158 492.538 16.8726C492.985 16.0293 493.633 15.3263 494.417 14.8344C495.2 14.3426 496.092 14.0793 497.002 14.0711C497.912 14.0629 498.808 14.31 499.599 14.7877Z" fill="#200A52"/>
<path d="M594.459 218.806C595.757 218.54 596.807 218.314 596.805 218.301C596.803 218.288 595.749 218.493 594.451 218.759C593.153 219.025 592.103 219.251 592.105 219.264C592.108 219.277 593.162 219.072 594.459 218.806Z" fill="#AB643C"/>
<path d="M710.524 155.504C711.846 155.504 712.918 154.266 712.918 152.739C712.918 151.212 711.846 149.975 710.524 149.975C709.202 149.975 708.131 151.212 708.131 152.739C708.131 154.266 709.202 155.504 710.524 155.504Z" fill="#659FE4"/>
<path d="M702.888 151.454C704.21 151.454 705.281 150.216 705.281 148.69C705.281 147.163 704.21 145.925 702.888 145.925C701.566 145.925 700.494 147.163 700.494 148.69C700.494 150.216 701.566 151.454 702.888 151.454Z" fill="#C5E9FF"/>
<path d="M504.204 44.735L639.038 126.235" stroke="#00A99D" stroke-width="4.06" stroke-miterlimit="10"/>
<path d="M504.683 66.0496L526.521 79.241" stroke="#00A99D" stroke-width="4.06" stroke-miterlimit="10"/>
<path d="M532.972 83.7028L654.334 154.679" stroke="#29ABE2" stroke-width="4.06" stroke-miterlimit="10"/>
<path d="M504.204 85.4972L550.798 112.826" stroke="#00A99D" stroke-width="4.06" stroke-miterlimit="10"/>
<path d="M558.525 118.015L660.716 176.163" stroke="#00A99D" stroke-width="4.06" stroke-miterlimit="10"/>
<path d="M808.886 135.159V239.428C808.89 241.485 808.38 243.506 807.41 245.284C806.439 247.063 805.042 248.535 803.362 249.551C801.681 250.567 799.777 251.09 797.843 251.067C795.91 251.044 794.018 250.475 792.359 249.419L699.104 190.252C697.477 189.222 696.129 187.759 695.194 186.007C694.259 184.256 693.768 182.276 693.77 180.261V77.8345C693.768 75.7935 694.271 73.788 695.23 72.02C696.189 70.252 697.568 68.7839 699.23 67.7636C700.892 66.7433 702.777 66.2068 704.696 66.2081C706.614 66.2095 708.499 66.7486 710.159 67.7713L803.415 125.047C805.084 126.069 806.47 127.543 807.43 129.319C808.391 131.095 808.893 133.11 808.886 135.159Z" fill="#689BFD"/>
<path d="M742.323 123.374L712.097 147.016L739.201 187.488" stroke="#00A99D" stroke-width="5" stroke-miterlimit="10"/>
<path d="M769.062 140.445L791.311 186.663L760.035 202.182" stroke="#00A99D" stroke-width="5" stroke-miterlimit="10"/>
<path d="M506.142 235.985L457.155 265.763C456.644 266.078 456.219 266.531 455.925 267.076C455.63 267.621 455.474 268.238 455.474 268.867C455.474 269.495 455.63 270.113 455.925 270.657C456.219 271.202 456.644 271.655 457.155 271.97L593.288 355.217C594.938 356.227 596.809 356.759 598.713 356.759C600.617 356.759 602.488 356.227 604.139 355.217L649.98 327.064C650.515 326.736 650.959 326.265 651.268 325.696C651.578 325.128 651.74 324.483 651.74 323.826C651.74 323.17 651.578 322.525 651.268 321.957C650.959 321.388 650.515 320.917 649.98 320.589L512.296 235.985C511.363 235.403 510.301 235.097 509.219 235.097C508.137 235.097 507.075 235.403 506.142 235.985Z" fill="#200A52"/>
<path d="M580.158 283.464L566.185 292.291L576.556 298.693L590.598 289.915L580.158 283.464Z" fill="white" fill-opacity="0.8"/>
<path d="M564.84 273.983L550.866 282.81L564.019 290.933L578.061 282.155L564.84 273.983Z" fill="white" fill-opacity="0.8"/>
<path d="M509.173 239.598L494.972 248.279L507.601 256.087L521.642 247.309L509.173 239.598Z" fill="white" fill-opacity="0.8"/>
<path d="M539.104 258.1L525.13 266.975L535.502 273.377L549.544 264.599L539.104 258.1Z" fill="white" fill-opacity="0.8"/>
<path d="M523.785 248.619L509.812 257.445L522.942 265.569C524.492 264.623 533.291 259.094 536.984 256.791L523.785 248.619Z" fill="white" fill-opacity="0.8"/>
<path d="M592.718 291.224L578.745 300.051L588.683 306.185L602.703 297.407L592.718 291.224Z" fill="white" fill-opacity="0.8"/>
<path d="M551.664 265.86L537.69 274.686L548.678 281.476L562.72 272.698L551.664 265.86Z" fill="white" fill-opacity="0.8"/>
<path d="M604.845 298.693L590.872 307.519L604.025 315.643L618.066 306.864L604.845 298.693Z" fill="white" fill-opacity="0.8"/>
<path d="M620.164 308.174L606.167 316.976L629.76 331.55L643.962 322.869L620.164 308.174Z" fill="white" fill-opacity="0.8"/>
<path d="M493.171 250.85L478.97 259.531L497.343 270.879L511.385 262.101L493.171 250.85Z" fill="white" fill-opacity="0.8"/>
<path d="M528.823 272.868L514.849 281.694L525.221 288.096L539.263 279.318L528.823 272.868Z" fill="white" fill-opacity="0.8"/>
<path d="M554.536 288.799L540.562 297.626L553.715 305.749L567.757 296.971L554.536 288.799Z" fill="white" fill-opacity="0.8"/>
<path d="M541.383 280.627L527.41 289.454L538.397 296.243L552.439 287.465L541.383 280.627Z" fill="white" fill-opacity="0.8"/>
<path d="M569.877 298.232L555.904 307.058L566.276 313.46L580.295 304.682L569.877 298.232Z" fill="white" fill-opacity="0.8"/>
<path d="M582.437 305.992L568.464 314.818L578.403 320.953L592.422 312.175L582.437 305.992Z" fill="white" fill-opacity="0.8"/>
<path d="M513.505 263.411L499.531 272.237L512.661 280.36L526.703 271.582L513.505 263.411Z" fill="white" fill-opacity="0.8"/>
<path d="M594.542 313.484L580.568 322.311L593.721 330.434L607.74 321.656L594.542 313.484Z" fill="white" fill-opacity="0.8"/>
<path d="M595.887 331.768L613.735 342.801L627.96 334.12L609.86 322.941L595.887 331.768Z" fill="white" fill-opacity="0.8"/>
<path d="M585.424 330.24L575.029 336.836L587.088 344.256L597.642 337.806L585.424 330.24Z" fill="white" fill-opacity="0.8"/>
<path d="M589.595 345.808L599.853 352.113L610.43 345.687L599.967 339.237L589.595 345.808Z" fill="white" fill-opacity="0.8"/>
<path d="M475.642 262.416L464.745 268.867L477.1 276.456L487.791 269.934L475.642 262.416Z" fill="white" fill-opacity="0.8"/>
<path d="M490.094 271.364L479.585 278.008L492.784 286.132L503.452 279.609L490.094 271.364Z" fill="white" fill-opacity="0.8"/>
<path d="M505.777 281.039L495.291 287.684L572.521 335.284L583.098 328.81L505.777 281.039Z" fill="white" fill-opacity="0.8"/>
<path d="M861.566 429.563C885.272 429.563 904.489 419.456 904.489 406.988C904.489 394.519 885.272 384.412 861.566 384.412C837.86 384.412 818.642 394.519 818.642 406.988C818.642 419.456 837.86 429.563 861.566 429.563Z" fill="#689BFD"/>
<path d="M904.512 346.851V408.249C904.512 408.249 872.598 439.772 818.642 408.758V346.851" fill="#689BFD"/>
<path opacity="0.21" d="M871.003 406.381C859.149 416.081 844.834 420.688 830.154 422.337C839.936 427.37 850.702 429.864 861.566 429.612C884.361 429.612 902.985 420.252 904.352 408.418L904.489 408.297V346.851H903.691C896.465 368.82 888.852 391.638 871.003 406.381Z" fill="#200A52"/>
<path d="M825.07 368.82C825.07 368.82 817.958 357.253 811.256 363.97C804.555 370.687 810.413 393.796 830.085 396.027V405.193C830.085 405.193 805.398 401.629 802.047 378.035C798.696 354.441 814.607 350.803 822.563 357.302" fill="#689BFD"/>
<path d="M861.566 369.669C885.272 369.669 904.489 359.561 904.489 347.093C904.489 334.625 885.272 324.518 861.566 324.518C837.86 324.518 818.642 334.625 818.642 347.093C818.642 359.561 837.86 369.669 861.566 369.669Z" fill="#00A99D"/>
<path d="M457.588 346.996C447.011 339.14 434.564 334.872 421.115 337.976C406.8 341.322 394.399 350.9 379.81 353.252C377.531 353.616 368.299 352.986 366.885 354.416C326.287 395.3 439.83 390.911 439.83 390.911C450.84 381.211 461.212 371.875 472.154 362.176C468.826 354.416 463.355 351.312 457.588 346.996Z" fill="#682FC1"/>
<path d="M404.087 406.357L400.052 529.687C399.893 534.367 406.731 534.367 406.891 529.687L410.926 406.357C411.154 401.677 404.338 401.701 404.087 406.357Z" fill="#D2CEDC"/>
<path d="M380.471 394.96C364.423 427.179 349.31 459.89 335.131 493.095C333.331 497.314 339.212 501.024 341.035 496.757C355.214 463.552 370.327 430.84 386.375 398.622C388.427 394.499 382.546 390.814 380.471 394.96Z" fill="#D2CEDC"/>
<path d="M460.414 264.55C461.805 264.187 473.499 260.986 476.371 259.967C479.243 258.949 488.133 251.601 492.966 252.693C497.799 253.784 507.532 260.598 507.988 262.877C508.444 265.156 505.708 267.921 504.683 268.915C503.657 269.909 496.613 267.169 493.878 266.708C491.142 266.248 486.788 273.134 484.213 274.347C481.637 275.559 464.996 278.736 464.996 278.736" fill="#FCBF81"/>
<path d="M491.849 294.764C493.24 294.401 504.933 291.2 507.806 290.181C510.678 289.163 519.568 281.815 524.401 282.907C529.233 283.998 538.967 290.812 539.423 293.091C539.879 295.37 537.143 298.135 536.117 299.129C535.092 300.123 528.048 297.383 525.312 296.922C522.577 296.462 518.223 303.348 515.647 304.561C513.071 305.773 496.431 308.95 496.431 308.95" fill="#FCBF81"/>
<path d="M487.313 451.484C489.433 449.059 490.823 446.634 490.094 444.088C488.794 439.554 483.004 437.711 479.038 437.953C475.072 438.196 470.968 440.378 466.957 441.591C462.762 443.192 458.284 443.781 453.849 443.312C453.135 443.201 452.486 442.812 452.026 442.221C450.796 441.931 449.659 441.304 448.727 440.402C447.796 439.501 447.102 438.355 446.714 437.08L433.584 432.085C433.584 432.085 430.233 461.596 430.347 463.609C431.328 479.54 453.69 470.447 453.69 470.447C453.69 470.447 454.487 463.172 454.693 462.275C454.898 461.378 463.469 464.142 467.002 463.56C468.627 463.077 470.167 462.316 471.561 461.305C474.205 459.753 476.804 458.104 479.38 456.455C481.956 454.806 484.646 453.182 487.313 451.484Z" fill="#383B30"/>
<path d="M438.28 342.559C433.356 343.068 428.432 343.747 423.531 344.499C425.568 378.01 427.847 411.498 430.37 444.961C443.135 450.514 448.31 447.944 456.22 439.336C457.724 407.4 460.346 373.864 460.278 341.661C452.983 342.001 445.643 342.34 438.28 342.559Z" fill="#6528B9"/>
<path d="M385.236 333.368C385.236 333.368 383.116 370.057 400.44 378.229C417.764 386.4 453.302 382.327 470.786 371.415C479.825 365.559 489.311 360.521 499.144 356.356C499.144 356.356 503.703 340.304 492.738 333.368C481.774 326.433 457.747 317.849 436.365 333.368" fill="#6528B9"/>
<path d="M473.567 278.445C475.414 270.952 474.342 258.585 474.342 258.585C474.342 258.585 452.71 262.513 443.591 261.01C434.473 259.507 419.565 239.186 419.565 239.186L421.594 279.439C438.873 283.295 456.767 284.119 473.567 278.445Z" fill="#5F5ACC"/>
<path d="M527.318 474.472C529.438 472.047 530.829 469.622 530.099 467.076C528.8 462.542 523.01 460.699 519.044 460.941C515.077 461.184 510.974 463.366 506.962 464.579C502.767 466.18 498.29 466.768 493.855 466.3C493.141 466.189 492.492 465.8 492.031 465.209C490.802 464.919 489.665 464.292 488.733 463.39C487.801 462.488 487.107 461.343 486.72 460.068L473.59 455.073C473.59 455.073 470.239 484.584 470.353 486.597C471.333 502.528 493.695 493.435 493.695 493.435C493.695 493.435 494.493 486.16 494.698 485.263C494.904 484.366 503.475 487.13 507.008 486.548C508.633 486.065 510.173 485.304 511.567 484.293C514.211 482.741 516.81 481.092 519.386 479.443C521.962 477.794 524.674 476.17 527.318 474.472Z" fill="#383B30"/>
<path d="M476.804 334.266C472.245 331.986 467.549 332.229 462.124 332.253C462.876 344.062 462.466 348.306 463.15 360.091L463.332 363.219C465.429 398.137 467.891 433.031 470.399 467.925C483.164 473.478 488.338 470.908 496.248 462.299C498.004 425.126 501.309 385.891 500.032 348.888C492.67 341.128 486.15 338.921 476.804 334.266Z" fill="#6528B9"/>
<path d="M384.939 325.778C384.939 326.676 385.099 329.707 385.235 333.368C392.416 343.432 401.192 349.324 414.869 348.888C426.016 348.548 435.385 343.359 444.047 336.957C442.953 315.497 439.693 278.76 434.61 253.226C434.177 251.068 428.911 249.613 427.361 248.716C423.737 246.606 425.857 242.969 422.3 240.714C417.143 237.519 411.771 234.731 406.23 232.372H406.093C397.226 232.227 381.93 239.501 381.018 252.135C379.628 271.534 381.634 283.295 383.047 302.669C383.571 310.477 384.324 318.189 384.939 325.778Z" fill="#5F59CC"/>
<path d="M415.827 195.587C416.989 195.902 426.837 220.005 422.984 234.652C419.132 249.298 395.744 234.239 389.863 223.085C383.982 211.93 393.715 189.379 415.827 195.587Z" fill="#FCBF81" fill-opacity="0.8"/>
<path d="M415.485 198.957C415.485 198.957 415.485 206.911 408.943 209.481C402.4 212.052 396.952 213.773 397.317 216.998C397.682 220.223 409.148 216.538 409.193 223.909C409.197 228.875 408.568 233.818 407.324 238.604C406.595 242.217 386.968 231.135 380.494 212.27C374.02 193.404 390.228 188.385 391.025 188.264C391.823 188.142 393.305 183.002 401.215 181.159C409.125 179.316 411.404 182.614 411.404 182.614C413.21 181.456 415.322 180.96 417.417 181.201C419.512 181.442 421.476 182.407 423.007 183.947C430.325 190.131 428.478 201.431 420.181 206.014L415.485 198.957Z" fill="#34323D"/>
<path d="M505.754 288.799C495.565 291.054 474.867 294.643 467.549 291.224C461.873 288.581 442.93 245.369 422.346 240.738L419.565 273.716C419.565 273.716 448.675 312.999 462.124 317.049C471.903 319.983 498.232 316.055 509.789 311.787C510.289 303.885 508.901 295.977 505.754 288.799Z" fill="#5F5CCD"/>
<path d="M441.266 298.959C439.785 296.922 422.916 276.602 422.916 276.602L443.181 320.759L441.266 298.959Z" fill="#34323D"/>
<path d="M470.558 361.545C464.227 370.934 455.254 377.939 444.936 381.551C430.484 386.231 409.467 383.976 401.876 367.947C388.062 338.703 401.033 302.087 386.444 273.644C384.759 270.048 382.38 266.872 379.461 264.323C376.542 261.773 373.15 259.909 369.507 258.852C360.047 256.645 353.55 264.211 350.131 273.11C343.976 289.066 344.204 308.926 344.5 325.924C344.516 339.654 345.453 353.365 347.304 366.953C347.304 366.953 356.149 423.962 425.082 408.661C437.02 406.358 448.485 401.844 458.955 395.324C464.32 392.033 469.016 387.64 472.769 382.399C477.032 375.804 474.183 368.068 470.558 361.545Z" fill="#682FC1"/>
<defs>
<linearGradient id="paint0_linear_525_74" x1="796.235" y1="444.719" x2="847.726" y2="400.026" gradientUnits="userSpaceOnUse">
<stop stop-color="#509CDB"/>
<stop offset="1" stop-color="#5D3C91"/>
</linearGradient>
<linearGradient id="paint1_linear_525_74" x1="28416.6" y1="29015.4" x2="31271.2" y2="24577.5" gradientUnits="userSpaceOnUse">
<stop stop-color="#E75D48"/>
<stop offset="1" stop-color="#502019"/>
</linearGradient>
<linearGradient id="paint2_linear_525_74" x1="6018.73" y1="15343.7" x2="7872.84" y2="12888.3" gradientUnits="userSpaceOnUse">
<stop stop-color="#E75D48"/>
<stop offset="1" stop-color="#502019"/>
</linearGradient>
<linearGradient id="paint3_linear_525_74" x1="69006.6" y1="48326.4" x2="74241.5" y2="37302.5" gradientUnits="userSpaceOnUse">
<stop stop-color="#E75D48"/>
<stop offset="1" stop-color="#502019"/>
</linearGradient>
</defs>
</svg>
