<svg width="430" height="222" viewBox="0 0 430 222" fill="none" xmlns="http://www.w3.org/2000/svg">
<path d="M10.7465 28.4682C11.966 11.9446 26.3483 -0.443888 42.8703 0.797755L401.826 27.7737C418.348 29.0153 430.753 43.4169 429.534 59.9405L419.671 193.567C418.452 210.091 404.07 222.48 387.548 221.238L28.592 194.262C12.0701 193.02 -0.335056 178.619 0.884437 162.095L10.7465 28.4682Z" fill="#70B5FF"/>
<path d="M42.6862 3.29097L401.642 30.2669C416.787 31.4051 428.158 44.6065 427.041 59.7531L417.179 193.38C416.061 208.527 402.877 219.883 387.732 218.745L28.776 191.769C13.6309 190.631 2.25954 177.429 3.37741 162.283L13.2395 28.6556C14.3574 13.5089 27.5411 2.1528 42.6862 3.29097Z" stroke="black" stroke-opacity="0.5" stroke-width="5"/>
</svg>
