<svg width="18" height="7" viewBox="0 0 18 7" fill="none" xmlns="http://www.w3.org/2000/svg">
<path d="M15.8733 4.80362C11.6638 4.53813 7.27638 3.61832 3.18909 2.59994C2.88207 2.52344 0.835469 1.95161 2.44199 1.77149C4.23641 1.5703 6.17208 1.65845 7.9426 2.00346C8.52526 2.11699 9.76286 2.35415 10.1839 2.90647C10.4052 3.19679 9.46317 3.01417 9.10019 3.01417C7.00908 3.01417 4.88859 2.93274 2.80322 3.11358C2.02288 3.18125 1.78101 3.25968 2.81143 3.42011C4.32997 3.65652 7.26832 3.87209 8.55834 3.97517C11.1205 4.1799 13.7513 4.24463 16.3002 4.62136C17.019 4.72759 15.1525 4.80213 14.9702 4.80362C14.9208 4.80402 13.9765 4.92822 14.2478 4.6545C14.5898 4.30937 14.9425 4.48666 15.3315 4.32312C15.3869 4.29982 15.0142 3.20881 14.9867 3.01417" stroke="#F2F9FA" stroke-width="3" stroke-linecap="round"/>
</svg>
