<svg width="25" height="4" viewBox="0 0 25 4" fill="none" xmlns="http://www.w3.org/2000/svg">
<path d="M23.7354 2.50666C23.3553 2.56179 22.9735 2.62007 22.5881 2.60444C22.0566 2.58291 21.5263 2.46261 21.0007 2.38736C20.2017 2.27295 19.3967 2.17151 18.5955 2.07639C17.0199 1.88934 15.4461 1.67433 13.8645 1.54443C13.4602 1.51122 13.0504 1.5084 12.6474 1.46228C12.0817 1.39755 11.5201 1.28125 10.9593 1.18457C10.6875 1.13771 9.87049 1.05928 10.1453 1.03593C10.8696 0.974378 11.6566 1.165 12.3644 1.2804C13.7852 1.51203 15.227 1.69654 16.638 1.98251C17.4459 2.14627 18.2665 2.36584 19.0956 2.36584C19.3875 2.36584 19.6798 2.36212 19.9716 2.37367C20.1589 2.38108 20.3462 2.39767 20.5336 2.40105C20.6727 2.40355 20.6113 2.42055 20.4774 2.43625C19.6872 2.52898 18.8394 2.4043 18.0548 2.34042C17.0097 2.25534 15.9752 2.12963 14.9363 1.99425C12.6833 1.70065 10.416 1.56935 8.15286 1.38797C7.31433 1.32076 6.47074 1.3044 5.63329 1.23542C5.24507 1.20344 4.86356 1.11729 4.47428 1.08287C3.80528 1.02371 3.13858 0.936566 2.46638 0.924453C1.96537 0.915425 1.27478 0.947057 0.849976 0.640869" stroke="#F2F9FA" stroke-linecap="round"/>
</svg>
