<svg width="45" height="9" viewBox="0 0 45 9" fill="none" xmlns="http://www.w3.org/2000/svg">
<path d="M40.759 6.24679C39.8184 6.21097 38.8918 5.78656 37.9456 5.75306C37.6896 5.74399 37.557 5.61042 37.3136 5.54391C36.7483 5.38941 36.1518 5.33303 35.5808 5.18389C33.927 4.75197 32.2185 4.58121 30.586 4.05242C29.7324 3.77596 28.9117 3.71641 28.0274 3.71641C27.8656 3.71641 27.3374 3.68235 27.7386 3.86727C28.1993 4.0796 28.6228 4.23281 29.1215 4.30958C29.9947 4.44399 30.7949 4.80684 31.6767 4.91646C33.3488 5.12431 35.0229 5.41859 36.7054 5.53705C38.7378 5.68013 40.7386 5.75306 42.7773 5.75306C42.9189 5.75306 43.0605 5.75306 43.202 5.75306C43.4527 5.75306 42.5959 5.85116 42.5734 5.85592C42.192 5.93665 41.8107 6.03369 41.4386 6.15078C41.2127 6.22185 40.983 6.37508 40.7522 6.42165C40.2928 6.51436 39.7521 6.43194 39.2844 6.43194C38.6468 6.43194 38.0383 6.41994 37.4088 6.32222C36.9445 6.25015 36.4733 6.24543 36.0055 6.21593C35.5419 6.18669 35.1312 6.03412 34.6735 5.99306C34.4321 5.97141 34.2208 5.82434 33.9838 5.81477C33.5729 5.79819 34.8 5.91675 35.207 5.97592C36.8819 6.21942 38.4592 6.49365 40.161 6.49365C40.7362 6.49365 41.3501 6.4303 41.9177 6.53137C42.1315 6.56946 42.3042 6.70584 42.5191 6.74052C42.6958 6.76905 42.3981 6.94282 42.3492 6.95653C42.1859 7.00231 42.02 7.04988 41.8531 7.07996C41.3926 7.16295 40.9922 7.16774 40.5415 7.11425C40.2779 7.08295 40.0062 7.04296 39.7431 6.98396C39.4341 6.91468 39.1725 6.75176 38.8494 6.74052C38.5222 6.72913 38.0507 6.72322 37.7418 6.61709C37.2987 6.46489 36.7469 6.56147 36.2807 6.49365C35.951 6.44569 35.6284 6.4067 35.3021 6.33936C35.206 6.31953 34.4159 6.24136 34.7925 6.24679C36.3184 6.26878 37.8413 6.64331 39.3625 6.74738C40.0457 6.79412 40.7057 6.97575 41.3978 6.98739C42.064 6.99859 41.2289 6.98739 41.0546 6.98739C39.6068 6.98739 38.1862 6.84736 36.7428 6.79881C35.6536 6.76217 34.6026 6.55642 33.5251 6.42851C32.0652 6.2552 30.5638 6.04016 29.1317 5.69134C27.5266 5.30037 25.9137 4.92557 24.2865 4.64216C23.44 4.49474 22.5779 4.44301 21.7279 4.30615C20.5825 4.12171 19.4559 3.89372 18.3267 3.62384C17.3185 3.38289 16.3209 3.1063 15.2959 2.94153C14.494 2.81264 13.6783 2.85978 12.8698 2.81809C10.2945 2.68531 7.72981 2.35591 5.17041 2.05007C4.31694 1.94808 3.44915 1.87628 2.60167 1.72777C2.41542 1.69513 2.30775 1.65119 2.16675 1.55634" stroke="#F2F9FA" stroke-width="3" stroke-linecap="round"/>
</svg>
