<svg width="4" height="2" viewBox="0 0 4 2" fill="none" xmlns="http://www.w3.org/2000/svg">
<path d="M2.06335 0.883297C2.12858 0.883297 2.1938 0.883297 2.25903 0.883297C2.38508 0.883297 1.99634 0.834049 1.98213 0.833002C1.76569 0.81706 1.54176 0.782707 1.32496 0.782707C1.30606 0.782707 1.20958 0.769583 1.23635 0.816237C1.26962 0.874219 1.37249 0.882521 1.43018 0.883297C1.53715 0.884736 1.62828 0.899383 1.732 0.916827C1.89567 0.944354 2.04549 0.950357 2.21288 0.950357C2.25639 0.950357 2.29759 0.963083 2.34025 0.970847C2.38339 0.978698 2.42075 0.996835 2.46209 1.00997C2.46733 1.01163 2.53022 1.01725 2.52485 1.02673C2.487 1.09357 2.31239 1.08318 2.25164 1.08541C2.14716 1.08924 2.0443 1.10124 1.93967 1.10124C1.90714 1.10124 1.64099 1.07992 1.63231 1.11055C1.6259 1.13321 1.97883 1.20183 2.02643 1.20183C2.08606 1.20183 1.97947 1.20183 1.96367 1.20183C1.92095 1.20183 1.87488 1.20699 1.8326 1.2009C1.7527 1.18938 1.67676 1.15154 1.59816 1.15154C1.4129 1.15154 1.24198 1.13487 1.06098 1.09752C1.01503 1.08803 1.0053 1.04967 0.966835 1.03791C0.911558 1.021 0.842081 1.01742 0.785005 1.01742C0.746342 1.01742 0.680949 1.00372 0.64471 1.01835C0.629361 1.02454 0.726021 1.08371 0.747163 1.08448C0.853329 1.0883 0.960252 1.08448 1.06652 1.08448C1.15595 1.08448 1.23881 1.11801 1.33234 1.11801" stroke="#F2F9FA" stroke-linecap="round"/>
</svg>
