<svg width="24" height="5" viewBox="0 0 24 5" fill="none" xmlns="http://www.w3.org/2000/svg">
<path d="M7.04791 1.92254C6.87242 2.08487 6.72283 2.09465 6.48391 2.09465C5.93389 2.09465 5.3888 2.0254 4.84813 1.92841C4.30823 1.83155 3.76241 1.75966 3.22591 1.64483C2.56205 1.50273 1.85607 1.47113 1.18312 1.37493C0.998963 1.34861 0.456125 1.30702 0.636569 1.2615C0.813134 1.21696 0.997702 1.30809 1.17731 1.33777C2.11019 1.49193 3.0429 1.64843 3.97403 1.81302C5.09665 2.01146 6.16527 2.3521 7.3115 2.38214C8.2248 2.40608 9.13135 2.42692 10.0423 2.49949C10.4959 2.53562 10.9522 2.52245 11.4068 2.5386C11.5059 2.54213 11.8025 2.56179 11.7033 2.56403C11.0301 2.57921 10.3458 2.52934 9.67602 2.48384C7.81583 2.35747 5.97318 2.09034 4.11745 1.9245C3.52443 1.8715 2.93345 1.80997 2.34406 1.72501C2.08468 1.68762 1.62256 1.67986 1.45834 1.47272C1.42198 1.42686 1.42898 1.40536 1.50873 1.39449C1.89243 1.34217 2.35093 1.40628 2.71425 1.43556C4.92694 1.61389 7.13697 1.83452 9.34654 2.04771C11.5155 2.25698 13.6774 2.52693 15.8451 2.742C16.8302 2.83974 19.7975 2.9795 18.8104 2.90433C17.9267 2.83703 17.0415 2.7772 16.1571 2.71853C15.179 2.65364 14.2022 2.66629 13.2228 2.63835C12.1694 2.60829 11.1472 2.47217 10.1024 2.35672C9.79784 2.32306 9.4893 2.31598 9.18567 2.27458C9.1524 2.27004 9.1163 2.27124 9.08683 2.25502C8.97531 2.19364 9.33791 2.29432 9.46282 2.3176C12.0644 2.80244 14.6859 2.93205 17.3161 3.17031C18.6406 3.29028 19.9892 3.42011 21.3203 3.43629C22.0061 3.44463 22.6906 3.5067 23.3747 3.5067" stroke="#F2F9FA" stroke-linecap="round"/>
</svg>
