<svg width="9" height="9" viewBox="0 0 9 9" fill="none" xmlns="http://www.w3.org/2000/svg">
<path d="M6.51105 6.24679C5.95439 4.88596 5.28537 3.5533 4.75099 2.18721C4.63205 1.88318 5.04467 2.77566 5.12474 3.09239C5.15589 3.21557 5.19492 4.01653 5.3422 4.08671C5.56038 4.19067 5.94416 3.87177 5.76013 3.80213C5.47961 3.69598 5.3577 4.15208 5.37958 4.31986C5.45448 4.89429 5.73799 5.79573 6.17806 6.20564C6.27573 6.29662 6.42162 6.27243 6.44989 6.40794C6.49469 6.62269 6.64169 6.61597 6.7421 6.76795C6.9598 7.09747 5.92109 6.92567 5.74314 6.92567C5.02562 6.92567 4.34489 6.82601 3.6399 6.73709C3.29921 6.69412 2.95646 6.58898 2.62396 6.50737C2.44382 6.46315 2.02725 6.59388 2.16865 6.3085" stroke="#F2F9FA" stroke-width="3" stroke-linecap="round"/>
</svg>
