<svg width="17" height="3" viewBox="0 0 17 3" fill="none" xmlns="http://www.w3.org/2000/svg">
<path d="M16.3291 2.14036C15.6563 2.02099 15.0076 1.99955 14.327 1.99955C14.1312 1.99955 13.9355 1.99955 13.7397 1.99955C13.5383 1.99955 13.2274 1.934 13.0381 2.00346C12.9344 2.04151 13.1346 2.06995 13.1428 2.06995C13.2707 2.06995 13.3986 2.06995 13.5265 2.06995C13.8413 2.06995 14.16 2.05378 14.4743 2.07191C14.6239 2.08054 15.2476 2.02124 15.2476 2.19317C15.2476 2.36247 14.3593 2.23163 14.201 2.20881C13.9416 2.17142 13.6794 2.08628 13.4141 2.04257C13.3936 2.03919 13.3313 2.03475 13.3521 2.03475C13.4597 2.03475 13.5987 2.09547 13.6971 2.12276C13.7959 2.15013 14.0933 2.19763 13.9917 2.21077C13.7883 2.23708 13.5647 2.21077 13.3599 2.21077C13.2503 2.21077 13.1363 2.21767 13.0265 2.20881C12.8488 2.19447 12.6951 2.08003 12.5187 2.06995C12.1334 2.04794 11.7836 1.93183 11.3869 1.92914C10.4594 1.92286 9.53443 1.9228 8.60757 1.89394C8.16723 1.88022 7.72171 1.74716 7.28576 1.68076C6.90826 1.62326 6.53122 1.56363 6.15389 1.5067C5.29349 1.37687 4.417 1.36505 3.55292 1.25049C2.87195 1.16021 2.19199 1.05825 1.51401 0.947352C1.36638 0.923204 1.20643 0.912111 1.08374 0.83783" stroke="#F2F9FA" stroke-linecap="round"/>
</svg>
