<svg width="13" height="4" viewBox="0 0 13 4" fill="none" xmlns="http://www.w3.org/2000/svg">
<path d="M4.28345 1.09167C6.34144 1.48579 8.45088 1.64253 10.5235 1.95032C10.8653 2.00109 11.8874 2.12725 11.5422 2.14308C11.0075 2.16761 10.4624 2.10964 9.93304 2.04962C8.32128 1.86688 6.71942 1.60728 5.10542 1.44214C4.45915 1.37602 3.85155 1.3292 3.20679 1.28443C3.02548 1.27184 2.48304 1.27727 2.66267 1.24939C3.15984 1.1722 3.8077 1.32597 4.28345 1.4071C6.02634 1.7043 7.75382 2.11027 9.48154 2.48479C10.0065 2.59858 10.061 2.61254 10.5003 2.69799C10.6087 2.71906 10.7335 2.73745 10.4974 2.70383C9.44988 2.5546 8.40814 2.36807 7.36005 2.22193C5.18134 1.91816 2.97523 1.66995 0.772721 1.66995C0.292259 1.66995 1.73374 1.66966 2.21406 1.68163C4.01464 1.72649 5.81294 1.83821 7.61185 1.92404C8.55169 1.96888 9.4928 2.01919 10.4337 2.03502C10.6672 2.03895 10.8913 2.0583 11.1081 1.98537" stroke="#F2F9FA"/>
</svg>
