<svg width="1016" height="750" viewBox="0 0 1016 750" fill="none" xmlns="http://www.w3.org/2000/svg">
<path d="M326.774 69.5497C351.939 -76.4504 793.532 50.0498 804.929 69.5498C816.325 89.0498 792.046 271.05 776.19 372.55L737.169 521.393L816.025 582.276L898.513 648.133L1015.41 737.59L527.697 738.727L0.367789 749.893L134.522 624.55L332.72 523.05L301.008 372.55L301.014 371.513C301.181 342.552 301.92 213.751 326.774 69.5497Z" fill="#E2F3F5"/>
<path d="M772.558 376.582C751.693 399.246 643.94 509.629 527.697 505.893C412.501 502.191 322.891 399.586 304.484 376.943M352.863 149.337L350.38 149.343L350.365 151.841L349.861 237.66L349.447 308.101L349.432 310.618L351.934 310.612L523.999 310.211C573.26 310.096 595.571 308.677 617.74 307.259L617.921 307.248C639.961 305.838 661.931 304.432 710.434 304.319L712.916 304.314L712.931 301.816L713.208 254.69L713.818 151.013L713.833 148.495L711.331 148.501L352.863 149.337ZM530.885 628.623L532.017 629.211L533.156 628.627L736.89 524.345L814.47 584.242L814.502 584.267L896.959 650.099L896.979 650.115L896.999 650.131L1008.03 735.099L527.702 736.22L527.679 736.22L527.656 736.22L6.85379 747.248L135.957 626.623L332.704 525.867L530.885 628.623ZM771.225 381.666L735.045 519.672L532.051 623.576L334.914 521.361L305.595 382.217C308.366 385.518 311.981 389.693 316.378 394.501C327.574 406.745 343.857 423.113 364.216 439.616C404.882 472.581 462.069 506.293 527.607 508.4C593.208 510.508 655.899 476.767 701.979 442.803C725.06 425.791 744.067 408.653 757.305 395.769C763.092 390.136 767.779 385.314 771.225 381.666ZM798.302 190.036C791.712 250.322 781.748 320.771 773.841 371.446C773.625 371.69 773.336 372.015 772.975 372.417C772.083 373.411 770.753 374.873 769.012 376.736C765.53 380.462 760.404 385.789 753.847 392.171C740.729 404.939 721.897 421.918 699.044 438.762C653.258 472.51 591.701 505.441 527.787 503.387C463.81 501.331 407.652 468.372 367.353 435.705C347.229 419.392 331.124 403.205 320.053 391.097C314.519 385.045 310.246 380.016 307.36 376.506C305.918 374.751 304.822 373.376 304.09 372.442C303.859 372.148 303.664 371.897 303.506 371.693L303.507 371.517C303.673 342.59 304.412 213.958 329.23 69.9679C335.24 35.1006 366.104 15.9952 410.942 7.67969C455.666 -0.614891 513.269 2.07735 570.667 9.9717C628.018 17.8597 684.958 30.9112 728.262 43.2055C749.915 49.3531 768.125 55.3018 781.251 60.3081C787.82 62.8136 793.07 65.0658 796.827 66.9721C798.709 67.9269 800.167 68.7704 801.211 69.4904C801.732 69.8496 802.119 70.1568 802.393 70.4093C802.528 70.5341 802.624 70.6353 802.69 70.7124C802.757 70.7908 802.78 70.8293 802.779 70.8276C803.269 71.6668 803.779 73.1766 804.207 75.515C804.626 77.804 804.933 80.6954 805.128 84.1571C805.517 91.0779 805.445 100.089 804.986 110.749C804.068 132.057 801.613 159.743 798.302 190.036ZM354.846 237.668L355.336 154.347L708.818 153.522L708.224 254.682L707.961 299.311C661.03 299.466 639.334 300.854 617.598 302.244L617.444 302.254C595.345 303.668 573.14 305.081 524.008 305.196L354.446 305.591L354.846 237.668Z" stroke="black" stroke-opacity="0.7" stroke-width="5"/>
</svg>
