<svg width="19" height="4" viewBox="0 0 19 4" fill="none" xmlns="http://www.w3.org/2000/svg">
<path d="M16.8967 0.718994C16.7717 0.973707 16.6309 1.2032 16.4625 1.43089C16.403 1.51141 16.3304 1.59436 16.3114 1.69687C16.286 1.83327 16.4853 2.08605 16.3714 2.18581C16.0849 2.4369 15.4946 2.47258 15.1465 2.53784C14.9378 2.57699 14.7257 2.59822 14.5186 2.64541C14.317 2.69133 14.9304 2.68138 15.1368 2.69039C16.0515 2.73031 16.9605 2.80293 17.8657 2.94464C17.9587 2.95919 18.2348 3.00085 18.141 3.00722C17.7335 3.03489 17.2957 2.99656 16.8909 2.98375C16.0987 2.9587 15.2888 2.94934 14.505 2.81752C14.0766 2.74547 14.4569 2.73022 14.6213 2.73537C14.9897 2.74693 15.4149 2.77386 15.7764 2.79796C16.0785 2.8181 16.3935 2.78019 16.6815 2.87423C16.933 2.95631 16.1529 2.87915 15.8888 2.86837C14.6958 2.81964 13.5054 2.7255 12.3149 2.63563C11.3643 2.56387 10.3841 2.54683 9.43874 2.40876C9.32944 2.3928 9.39655 2.36877 9.35153 2.3188C9.25424 2.21081 8.93156 2.21406 8.81466 2.20145C8.53945 2.17177 8.25871 2.18849 7.98514 2.15452C7.28651 2.06775 6.56588 2.08398 5.86095 1.99414C5.40388 1.93589 4.96214 1.81493 4.50813 1.74381C4.34973 1.719 4.00007 1.63699 3.83948 1.72425C3.74627 1.77489 4.01413 1.854 4.11663 1.88071C5.5442 2.25272 7.04665 2.30736 8.50456 2.48699C9.05777 2.55515 9.60779 2.70635 10.1636 2.74515C10.5056 2.76903 10.8502 2.7608 11.1928 2.7608C11.4957 2.7608 12.4047 2.7608 12.1017 2.7608C11.3466 2.7608 10.5785 2.68965 9.82637 2.65323C8.474 2.58776 7.11504 2.57781 5.76404 2.49091C4.58656 2.41516 3.38349 2.27066 2.22889 2.01175C1.85284 1.92742 1.45035 1.85748 1.09121 1.71252C0.858669 1.61866 1.52246 1.38157 1.58155 1.35266" stroke="#F2F9FA" stroke-linecap="round"/>
</svg>
