<svg width="4" height="3" viewBox="0 0 4 3" fill="none" xmlns="http://www.w3.org/2000/svg">
<path d="M1.68113 0.894165C2.17131 0.911675 2.64938 1.07858 3.1413 1.07858C3.41233 1.07858 2.59823 1.07336 2.32907 1.04132C2.13066 1.01771 1.93597 0.971326 1.73835 0.942597C1.69305 0.936012 1.58226 0.91478 1.60175 0.956568C1.63777 1.0338 1.7154 1.10428 1.79004 1.14005C2.08978 1.28372 2.44959 1.30761 2.77488 1.34216C3.06116 1.37257 2.19896 1.3533 1.91188 1.37476C1.83885 1.38022 1.74785 1.39116 1.67374 1.4027C1.65309 1.40592 1.59805 1.4027 1.61282 1.4176C1.6824 1.48781 1.9528 1.47438 2.03833 1.48094C2.22031 1.49489 2.40131 1.51008 2.58197 1.53682C2.6854 1.55213 2.64624 1.548 2.55982 1.548C2.32384 1.548 2.08786 1.548 1.85188 1.548C1.77573 1.548 1.6861 1.56007 1.61098 1.54055C1.48752 1.50846 1.36525 1.49409 1.23809 1.48187C1.10586 1.46916 1.17574 1.52636 1.2547 1.58339C1.42086 1.70341 1.58668 1.69888 1.77896 1.69888C1.87896 1.69888 1.97895 1.69888 2.07894 1.69888C2.14154 1.69888 2.19461 1.73241 2.25892 1.73241C2.36901 1.73241 2.03975 1.75367 1.93034 1.76594" stroke="#F2F9FA" stroke-linecap="round"/>
</svg>
