<svg width="29" height="5" viewBox="0 0 29 5" fill="none" xmlns="http://www.w3.org/2000/svg">
<path d="M0.664307 1.18323C1.81159 1.72349 3.02178 1.77547 4.26923 1.87948C5.26147 1.9622 6.25439 2.02903 7.2462 2.11808C8.91201 2.26763 10.5891 2.37498 12.2621 2.38015C13.8678 2.3851 15.4739 2.51044 17.0764 2.60897C18.0889 2.67123 19.0989 2.77312 20.1115 2.83779C20.4268 2.85793 20.7414 2.873 21.0573 2.873C21.1617 2.873 20.8533 2.91788 20.7511 2.93949C20.3002 3.03486 19.863 3.07748 19.4022 3.09204C18.8625 3.1091 18.3332 3.1493 17.7974 3.0764C15.1084 2.71054 12.4539 2.12149 9.76965 1.71519C9.66156 1.69883 9.33662 1.6964 9.44405 1.67608C9.62572 1.6417 9.81362 1.68539 9.99835 1.69172C10.867 1.72151 11.701 1.76506 12.5489 1.96944C13.8713 2.28818 15.1846 2.57986 16.526 2.81041C18.1101 3.0827 19.7036 3.39584 21.3035 3.56142C21.4477 3.57635 21.5343 3.53023 21.6717 3.48906C21.9306 3.41151 22.1836 3.39969 22.4528 3.40105C22.7441 3.40252 23.0345 3.45941 23.3133 3.54382C24.1755 3.80483 25.0725 3.85976 25.9647 3.93693C26.4577 3.97957 26.9521 4.00568 27.4454 4.05036C27.5518 4.06 27.7955 4.13676 27.8408 3.99951" stroke="#F2F9FA" stroke-linecap="round"/>
</svg>
