<svg width="27" height="4" viewBox="0 0 27 4" fill="none" xmlns="http://www.w3.org/2000/svg">
<path d="M3.24403 0.704712C3.57391 0.704712 3.87357 0.783383 4.19759 0.845526C4.65718 0.933669 5.11921 0.999116 5.58529 1.03719C6.17261 1.08517 6.76929 1.06015 7.35287 1.1428C7.89538 1.21963 8.42976 1.20597 8.97315 1.25623C9.5429 1.30894 10.1023 1.36072 10.6748 1.37553C10.9376 1.38233 11.1899 1.47199 11.454 1.47919C11.7641 1.48765 12.0742 1.4883 12.3843 1.50657C13.1853 1.55377 10.778 1.52748 9.9771 1.47723C8.88817 1.40891 7.79965 1.3816 6.71328 1.26797C6.09628 1.20343 5.44294 1.21113 4.84492 1.02546C4.61983 0.955565 5.31422 1.07048 5.54653 1.10955C5.71907 1.13857 5.89381 1.15909 6.06595 1.18974C6.17724 1.20956 5.84159 1.21935 5.72871 1.22494C5.21436 1.25042 4.69109 1.23904 4.19177 1.12911C3.95979 1.07803 3.7197 1.08345 3.48629 1.03719C3.27516 0.99534 3.07019 0.950353 2.8564 0.923756C2.69205 0.90331 1.59189 0.774082 1.57142 0.867039C1.50924 1.14939 2.46669 1.30954 2.66646 1.33642C3.12561 1.3982 3.60081 1.40878 4.06386 1.40878C4.46885 1.40878 4.85546 1.50251 5.25581 1.51439C5.80003 1.53054 4.16886 1.4424 3.62778 1.3814C2.97977 1.30835 2.35073 1.09195 1.69546 1.09195C1.58655 1.09195 1.47486 1.08503 1.36792 1.10955C1.30023 1.12507 1.31525 1.17294 1.26907 1.19365C1.23383 1.20945 1.11258 1.21355 1.23418 1.25037C1.34043 1.28253 1.45812 1.30317 1.56948 1.30317C1.81369 1.30317 2.05789 1.30317 2.3021 1.30317C2.72212 1.30317 3.12653 1.37358 3.54638 1.37358C3.91021 1.37358 4.24821 1.41156 4.60847 1.44007C5.23103 1.48935 3.3607 1.37358 2.73624 1.37358C2.67699 1.37358 2.22359 1.34825 2.47071 1.34033C3.1511 1.31854 3.85238 1.31057 4.53095 1.3814C5.2796 1.45955 6.02776 1.54153 6.77724 1.61609C7.29438 1.66754 7.81371 1.65971 8.32969 1.70606C9.37342 1.7998 10.4174 1.86563 11.4617 1.95248C11.9426 1.99247 12.425 2.06382 12.9076 2.07569C13.3483 2.08654 13.7853 2.07968 14.2255 2.11285C15.9579 2.24342 17.6799 2.54454 19.4158 2.61548C20.7518 2.67008 22.0894 2.66933 23.4258 2.725C24.2261 2.75834 24.9922 2.73522 25.7806 2.6057" stroke="#F2F9FA" stroke-linecap="round"/>
</svg>
