<svg width="29" height="21" viewBox="0 0 29 21" fill="none" xmlns="http://www.w3.org/2000/svg">
<g clip-path="url('#clip0_772_180')">
<path d="M27.3719 20.0061H1.93299C1.66094 20.0061 1.40003 19.8997 1.20767 19.7104C1.0153 19.521 0.907227 19.2642 0.907227 18.9965L0.907227 2.03471C0.907227 1.76694 1.0153 1.51014 1.20767 1.3208C1.40003 1.13146 1.66094 1.02509 1.93299 1.02509L27.3719 1.02509C27.644 1.02509 27.9049 1.13146 28.0972 1.3208C28.2896 1.51014 28.3977 1.76694 28.3977 2.03471V18.9965C28.3977 19.2642 28.2896 19.521 28.0972 19.7104C27.9049 19.8997 27.644 20.0061 27.3719 20.0061ZM2.95875 17.9868H26.3462V3.04434H2.95875V17.9868Z" fill="#63FFFF"></path>
<path d="M14.6526 15.2947C14.3845 15.2947 14.1269 15.1912 13.9353 15.0066L1.21583 2.75646C1.0214 2.56902 0.910591 2.31324 0.90777 2.04538C0.904949 1.77752 1.01035 1.51954 1.20078 1.32817C1.39122 1.1368 1.65109 1.02773 1.92322 1.02496C2.19536 1.02218 2.45747 1.12592 2.6519 1.31336L14.6526 12.8716L26.6547 1.31336C26.751 1.22055 26.8649 1.14731 26.9899 1.09783C27.115 1.04834 27.2487 1.02358 27.3834 1.02496C27.5182 1.02633 27.6513 1.05382 27.7753 1.10584C27.8992 1.15787 28.0116 1.23341 28.1059 1.32817C28.2001 1.42292 28.2746 1.53503 28.3248 1.65809C28.3751 1.78115 28.4003 1.91275 28.3989 2.04538C28.3975 2.17801 28.3695 2.30907 28.3167 2.43107C28.2638 2.55308 28.1871 2.66365 28.0908 2.75646L15.3714 15.0066C15.1794 15.1916 14.9213 15.295 14.6526 15.2947V15.2947Z" fill="#63FFFF"></path>
<path d="M1.93307 20.0063C1.7261 20.0055 1.52419 19.9431 1.3539 19.8274C1.1836 19.7116 1.05287 19.5478 0.978892 19.3575C0.904913 19.1673 0.891144 18.9594 0.939393 18.7613C0.987642 18.5632 1.09565 18.3841 1.24923 18.2475L10.4038 10.1059C10.5031 10.0134 10.6202 9.94141 10.7482 9.89412C10.8762 9.84683 11.0125 9.8252 11.1491 9.83049C11.2857 9.83579 11.4198 9.86791 11.5436 9.92496C11.6674 9.98201 11.7784 10.0628 11.87 10.1627C11.9617 10.2626 12.0321 10.3795 12.0771 10.5065C12.1222 10.6335 12.141 10.7681 12.1325 10.9024C12.1239 11.0367 12.0882 11.168 12.0274 11.2885C11.9666 11.409 11.8819 11.5163 11.7783 11.6042L2.62034 19.7485C2.4315 19.9151 2.18666 20.0069 1.93307 20.0063V20.0063ZM27.3713 20.0063C27.1184 20.0059 26.8748 19.913 26.6875 19.7458L17.5295 11.6015C17.3348 11.4202 17.2199 11.1712 17.2094 10.9077C17.1988 10.6442 17.2935 10.3871 17.473 10.1913C17.6526 9.99561 17.9028 9.8768 18.1703 9.86032C18.4377 9.84384 18.701 9.93101 18.904 10.1032L28.062 18.2475C28.216 18.3845 28.3242 18.5642 28.3722 18.7629C28.4203 18.9617 28.4059 19.1701 28.3311 19.3607C28.2563 19.5512 28.1245 19.7149 27.9531 19.8302C27.7817 19.9455 27.5789 20.0069 27.3713 20.0063V20.0063Z" fill="#63FFFF"></path>
</g>
<defs>
<clipPath id="clip0_772_180">
<rect width="27.4928" height="19.5937" fill="white" transform="translate(0.907227 0.71875)"></rect>
</clipPath>
</defs>
</svg>
