<svg width="25" height="22" viewBox="0 0 25 22" fill="none" xmlns="http://www.w3.org/2000/svg">
<g clip-path="url('#clip0_772_178')">
<path d="M12.4616 0C5.86611 0 0.518555 4.92529 0.518555 11C0.518555 15.8608 3.94024 19.9832 8.6864 21.4374C9.28341 21.5381 9.50138 21.1984 9.50138 20.9083C9.50138 20.6465 9.49044 19.7791 9.4846 18.8606C6.16352 19.5253 5.46154 17.5635 5.46154 17.5635C4.91776 16.2932 4.13558 15.9548 4.13558 15.9548C3.05018 15.2727 4.21792 15.2861 4.21792 15.2861C5.41703 15.3627 6.04834 16.4194 6.04834 16.4194C7.11407 18.1006 8.84458 17.6145 9.52396 17.3325C9.63252 16.6235 9.94159 16.1375 10.2821 15.8635C7.63089 15.5856 4.84195 14.6416 4.84195 10.4266C4.84195 9.22483 5.30775 8.24463 6.07022 7.47454C5.94848 7.19525 5.53735 6.07604 6.18829 4.56208C6.18829 4.56208 7.18988 4.26667 9.47292 5.69001C10.4249 5.44496 11.4462 5.32411 12.4616 5.32007C13.4763 5.32411 14.4983 5.44629 15.4518 5.69134C17.7305 4.26667 18.7335 4.56341 18.7335 4.56341C19.3866 6.07872 18.9755 7.19658 18.853 7.47454C19.6184 8.24463 20.0806 9.22485 20.0806 10.4266C20.0806 14.6523 17.2873 15.5829 14.6266 15.8555C15.0567 16.1965 15.4372 16.8652 15.4372 17.8911C15.4372 19.3615 15.4211 20.5471 15.4211 20.9097C15.4211 21.2024 15.6384 21.5448 16.2434 21.4374C20.9859 19.9805 24.4047 15.8582 24.4047 11C24.4047 4.92529 19.0571 0 12.4616 0Z" fill="#63FFFF"></path>
</g>
<defs>
<clipPath id="clip0_772_178">
<rect width="23.8861" height="22" fill="white" transform="translate(0.518555)"></rect>
</clipPath>
</defs>
</svg>
