<svg width="320" height="219" viewBox="0 0 320 219" fill="none" xmlns="http://www.w3.org/2000/svg">
<g clip-path="url('#clip0_860_271')">
<path d="M166.145 216.296L43.0161 133.504C39.0977 131.003 35.7359 126.886 39.5545 124.198L163.133 43.1688C164.988 41.8613 167.8 41.0086 169.685 42.2511L298.923 127.576C302.841 130.167 303.548 137.402 299.637 139.993L182.375 216.166C179.913 217.791 177.121 218.657 174.275 218.68C171.429 218.703 168.626 217.881 166.145 216.296Z" fill="#BCBCBC"></path>
<path opacity="0.32" d="M257.347 128.064C247.954 134.292 241.245 138.483 226.799 147.862C237.733 155.423 247.291 160.969 248.518 161.797L279.923 141.495C277.375 140.009 269.038 134.641 257.347 128.064Z" fill="url('#paint0_linear_860_271')"></path>
<path opacity="0.32" d="M135.089 145.824C123.769 153.335 115.683 158.378 98.2744 169.683C111.45 178.794 122.97 185.486 124.455 186.476L162.283 162.041C159.25 160.222 149.207 153.75 135.089 145.824Z" fill="url('#paint1_linear_860_271')"></path>
<path opacity="0.32" d="M66.0484 137.281C71.9225 132.83 77.8966 128.543 83.835 124.214L75.3985 117.206L42.7231 132.717C46.6702 135.072 52.0019 139.481 57.6119 143.972C60.4027 141.706 63.1934 139.441 66.0484 137.281Z" fill="url('#paint2_linear_860_271')"></path>
<path d="M87.04 99.3647C86.9914 99.135 86.9015 98.9193 86.7759 98.7313C86.5453 98.4119 86.2705 98.1376 85.9622 97.9192C81.8153 94.7277 76.0697 93.8588 71.6873 96.9691C70.688 97.6837 69.1963 99.2997 69.7887 100.826C70.1313 101.712 71.1734 102.231 71.9299 102.589C74.3358 103.683 76.8502 104.438 79.4171 104.838C80.345 105.017 81.2872 105.195 82.2222 105.293C82.869 105.364 83.5211 105.248 84.1185 104.958C84.716 104.667 85.2395 104.209 85.641 103.628C86.2905 102.662 87.3326 100.778 87.04 99.3647Z" fill="#383B30"></path>
<path d="M69.6675 100.128C69.6675 100.128 73.4503 104.026 79.9883 103.458C86.5262 102.889 87.0329 99.3972 87.0329 99.3972C87.0329 99.3972 85.3413 124.052 84.4492 124.474C83.557 124.896 80.2166 126.732 78.6036 126.87C76.9905 127.008 71.8944 124.685 71.7659 124.044C71.6374 123.402 69.6675 100.128 69.6675 100.128Z" fill="#001C27"></path>
<path d="M70.8523 64.2341C70.6524 63.7712 70.0315 64.1772 70.2385 64.6401C74.7137 74.9048 75.5844 86.4607 76.391 97.6836C76.4266 98.1952 77.1404 98.2034 77.1047 97.6836C76.2982 86.2739 75.3989 74.5962 70.8523 64.2341Z" fill="#00171F"></path>
<path d="M70.2883 64.2991C70.2883 64.2991 71.5373 69.6263 70.2454 72.2899C68.9536 74.9535 67.8901 75.4814 69.4318 78.7866C70.9735 82.0917 75.0989 82.5384 75.3701 85.072C75.6414 87.6057 73.4002 68.8224 70.2883 64.2991Z" fill="#00A99D"></path>
<path d="M84.5986 73.9142C81.152 82.1152 79.2092 91.0288 78.8887 100.112C78.8887 100.745 79.738 100.737 79.7594 100.112C80.062 91.2015 81.9537 82.4542 85.3195 74.4014C85.5907 73.8411 84.8413 73.3376 84.5986 73.9142Z" fill="#001C27"></path>
<path d="M85.2126 76.5046C85.2126 75.9687 85.1056 74.8805 85.1555 73.9791L84.6559 74.3364C82.9572 79.0383 80.4162 90.0826 79.6597 93.4608C80.6946 90.9272 84.9271 90.578 86.169 86.9642C86.7171 85.4303 86.7425 83.719 86.2404 82.1648C85.6279 80.3548 85.2806 78.4426 85.2126 76.5046Z" fill="#00A99D"></path>
<path opacity="0.32" d="M180.476 168.278C191.982 161.229 219.211 145.645 230.631 138.434L164.91 91.6499L117.488 128.283C129.522 135.445 163.825 156.559 180.476 168.278Z" fill="url('#paint3_linear_860_271')"></path>
<path d="M125.011 89.4085C125.061 106.73 125.147 122.322 125.147 122.322C125.147 122.322 125.468 123.735 127.759 122.582V88.3691C126.846 88.7183 125.932 89.0512 125.011 89.4085Z" fill="#5B434D"></path>
<path d="M188.67 131.507C188.72 148.828 188.806 164.42 188.806 164.42C188.806 164.42 189.127 165.833 191.418 164.68V130.5C190.505 130.825 189.591 131.182 188.67 131.507Z" fill="#3E4D2F"></path>
<path d="M227.876 105.26C227.926 122.582 228.012 138.174 228.012 138.174C228.012 138.174 228.333 139.587 230.624 138.434V104.253C229.718 104.594 228.804 104.936 227.876 105.26Z" fill="#3E4D2F"></path>
<path d="M124.476 88.3691V91.3169L190.169 134.56L230.567 104.375L230.632 101.078" fill="#A5DD73"></path>
<path opacity="0.76" d="M124.476 88.3691V91.3169L190.169 134.56L230.567 104.375L230.632 101.078" fill="#1E2019"></path>
<path d="M124.476 88.3691L166.744 60.9371L230.632 101.078L189.941 131.604L124.476 88.3691Z" fill="#001C27"></path>
<path d="M183.132 74.0928L174.231 78.9652C173.895 79.1485 173.61 79.4324 173.405 79.7865C173.201 80.1406 173.085 80.5515 173.07 80.975C173.055 81.3984 173.142 81.8184 173.322 82.1897C173.501 82.5611 173.766 82.8697 174.088 83.0825L195.194 97.0909C195.65 97.3932 196.191 97.4835 196.705 97.3428C197.218 97.202 197.664 96.8412 197.949 96.3356L203.074 87.2647" fill="#383C30"></path>
<path d="M227.876 48.1305L155.167 0.485815C154.807 0.24262 154.397 0.112607 153.978 0.109082C153.56 0.105558 153.148 0.228648 152.785 0.465755C152.421 0.702862 152.12 1.04547 151.912 1.45852C151.703 1.87156 151.595 2.3402 151.598 2.81648V53.4334C151.599 53.7973 151.684 54.1547 151.844 54.4696C152.005 54.7846 152.235 55.0461 152.512 55.2281L229.875 106.04C230.009 106.129 230.161 106.176 230.316 106.176C230.471 106.176 230.623 106.13 230.757 106.042C230.891 105.954 231.002 105.827 231.079 105.674C231.156 105.521 231.196 105.347 231.195 105.171V54.7571C231.2 53.4187 230.896 52.1024 230.313 50.9396C229.731 49.7768 228.891 48.8082 227.876 48.1305Z" fill="#BCBCBC"></path>
<path d="M156.43 4.95235L225.278 50.0228C226.014 50.5039 226.625 51.1972 227.05 52.0327C227.474 52.8682 227.698 53.8163 227.698 54.7815V91.0815C227.699 91.4298 227.619 91.7722 227.467 92.0742C227.314 92.3762 227.094 92.6271 226.829 92.8017C226.565 92.9763 226.264 93.0683 225.958 93.0686C225.652 93.0688 225.351 92.9773 225.086 92.8031L154.874 46.9693C154.612 46.7979 154.394 46.5507 154.242 46.2527C154.091 45.9547 154.011 45.6164 154.011 45.2721V6.57651C154.008 6.25235 154.08 5.93297 154.22 5.65056C154.359 5.36816 154.562 5.13272 154.808 4.968C155.053 4.80328 155.332 4.71509 155.617 4.71235C155.902 4.7096 156.183 4.79238 156.43 4.95235Z" fill="#00171F"></path>
<path d="M186.132 73.277C186.539 73.188 186.867 73.1122 186.867 73.1079C186.866 73.1035 186.536 73.1721 186.129 73.2611C185.723 73.3502 185.394 73.4259 185.395 73.4303C185.396 73.4347 185.726 73.3661 186.132 73.277Z" fill="#AB643C"></path>
<path d="M222.473 52.0764C222.887 52.0764 223.223 51.6621 223.223 51.1511C223.223 50.6401 222.887 50.2258 222.473 50.2258C222.059 50.2258 221.724 50.6401 221.724 51.1511C221.724 51.6621 222.059 52.0764 222.473 52.0764Z" fill="#659FE4"></path>
<path d="M220.082 50.7202C220.496 50.7202 220.832 50.3059 220.832 49.7949C220.832 49.2838 220.496 48.8696 220.082 48.8696C219.669 48.8696 219.333 49.2838 219.333 49.7949C219.333 50.3059 219.669 50.7202 220.082 50.7202Z" fill="#C5E9FF"></path>
<path d="M157.872 14.9815L200.09 42.2755" stroke="#00A99D" stroke-width="4.06" stroke-miterlimit="10"></path>
<path d="M158.022 22.1197L164.86 26.5374" stroke="#CCD1D2" stroke-width="4.06" stroke-miterlimit="10"></path>
<path d="M166.879 28.0316L204.879 51.8012" stroke="#D2CEDC" stroke-width="4.06" stroke-miterlimit="10"></path>
<path d="M157.872 28.6326L172.461 37.7847" stroke="#00A99D" stroke-width="4.06" stroke-miterlimit="10"></path>
<path d="M174.881 39.5225L206.878 58.9962" stroke="#00A99D" stroke-width="4.06" stroke-miterlimit="10"></path>
<path d="M253.271 45.2639V80.1833C253.272 80.872 253.113 81.5487 252.809 82.1443C252.505 82.7399 252.068 83.2331 251.542 83.5733C251.015 83.9136 250.419 84.0888 249.814 84.081C249.209 84.0732 248.616 83.8828 248.097 83.5291L218.897 63.7143C218.388 63.3693 217.966 62.8794 217.673 62.2929C217.38 61.7063 217.227 61.0432 217.227 60.3686V26.0663C217.226 25.3828 217.384 24.7112 217.684 24.1191C217.985 23.527 218.417 23.0353 218.937 22.6936C219.457 22.3519 220.047 22.1723 220.648 22.1727C221.249 22.1732 221.839 22.3537 222.359 22.6962L251.558 41.8775C252.081 42.2199 252.515 42.7135 252.816 43.3083C253.116 43.903 253.274 44.5777 253.271 45.2639Z" fill="#001C27"></path>
<path d="M232.43 41.3173L222.966 49.235L231.452 62.7886" stroke="#00A99D" stroke-width="4.06" stroke-miterlimit="10"></path>
<path d="M240.803 47.0343L247.769 62.5125L237.976 67.7098" stroke="#00A99D" stroke-width="4.06" stroke-miterlimit="10"></path>
<path d="M158.479 79.0302L143.14 89.0025C142.98 89.1082 142.847 89.2598 142.755 89.4423C142.663 89.6247 142.614 89.8315 142.614 90.042C142.614 90.2525 142.663 90.4593 142.755 90.6417C142.847 90.8241 142.98 90.9758 143.14 91.0814L185.765 118.96C186.282 119.299 186.868 119.477 187.464 119.477C188.06 119.477 188.646 119.299 189.163 118.96L203.516 109.532C203.684 109.422 203.823 109.264 203.92 109.074C204.016 108.884 204.067 108.668 204.067 108.448C204.067 108.228 204.016 108.012 203.92 107.822C203.823 107.631 203.684 107.473 203.516 107.364L160.406 79.0302C160.114 78.8353 159.781 78.7326 159.442 78.7326C159.104 78.7326 158.771 78.8353 158.479 79.0302Z" fill="#00171F"></path>
<path d="M181.654 94.9307L177.279 97.8867L180.526 100.031L184.923 97.0909L181.654 94.9307Z" fill="white" fill-opacity="0.8"></path>
<path d="M176.858 91.7555L172.482 94.7115L176.601 97.4319L180.997 94.4922L176.858 91.7555Z" fill="white" fill-opacity="0.8"></path>
<path d="M159.428 80.2402L154.981 83.1474L158.936 85.7623L163.332 82.8226L159.428 80.2402Z" fill="white" fill-opacity="0.8"></path>
<path d="M168.8 86.4364L164.424 89.4086L167.672 91.5525L172.069 88.6128L168.8 86.4364Z" fill="white" fill-opacity="0.8"></path>
<path d="M164.003 83.2611L159.628 86.2171L163.739 88.9376C164.224 88.6209 166.98 86.7693 168.136 85.9978L164.003 83.2611Z" fill="white" fill-opacity="0.8"></path>
<path d="M185.587 97.5294L181.211 100.485L184.323 102.54L188.713 99.6002L185.587 97.5294Z" fill="white" fill-opacity="0.8"></path>
<path d="M172.732 89.035L168.357 91.991L171.797 94.2648L176.194 91.3251L172.732 89.035Z" fill="white" fill-opacity="0.8"></path>
<path d="M189.384 100.031L185.009 102.987L189.127 105.707L193.524 102.767L189.384 100.031Z" fill="white" fill-opacity="0.8"></path>
<path d="M194.18 103.206L189.798 106.154L197.185 111.034L201.632 108.127L194.18 103.206Z" fill="white" fill-opacity="0.8"></path>
<path d="M154.418 84.0082L149.971 86.9155L155.724 90.716L160.121 87.7763L154.418 84.0082Z" fill="white" fill-opacity="0.8"></path>
<path d="M165.58 91.3819L161.205 94.3379L164.453 96.4818L168.849 93.542L165.58 91.3819Z" fill="white" fill-opacity="0.8"></path>
<path d="M173.632 96.7173L169.256 99.6733L173.375 102.394L177.771 99.454L173.632 96.7173Z" fill="white" fill-opacity="0.8"></path>
<path d="M169.513 93.9806L165.138 96.9366L168.578 99.2104L172.975 96.2707L169.513 93.9806Z" fill="white" fill-opacity="0.8"></path>
<path d="M178.435 99.8763L174.06 102.832L177.308 104.976L181.697 102.036L178.435 99.8763Z" fill="white" fill-opacity="0.8"></path>
<path d="M182.368 102.475L177.993 105.431L181.105 107.485L185.494 104.546L182.368 102.475Z" fill="white" fill-opacity="0.8"></path>
<path d="M160.784 88.2148L156.409 91.1708L160.52 93.8913L164.917 90.9515L160.784 88.2148Z" fill="white" fill-opacity="0.8"></path>
<path d="M186.158 104.984L181.783 107.94L185.901 110.661L190.291 107.721L186.158 104.984Z" fill="white" fill-opacity="0.8"></path>
<path d="M186.579 111.107L192.168 114.802L196.622 111.895L190.954 108.151L186.579 111.107Z" fill="white" fill-opacity="0.8"></path>
<path d="M183.303 110.596L180.048 112.805L183.824 115.29L187.129 113.129L183.303 110.596Z" fill="white" fill-opacity="0.8"></path>
<path d="M184.609 115.809L187.821 117.921L191.133 115.769L187.856 113.609L184.609 115.809Z" fill="white" fill-opacity="0.8"></path>
<path d="M148.929 87.8818L145.517 90.042L149.386 92.5838L152.733 90.3993L148.929 87.8818Z" fill="white" fill-opacity="0.8"></path>
<path d="M153.454 90.8784L150.164 93.1035L154.296 95.824L157.637 93.6395L153.454 90.8784Z" fill="white" fill-opacity="0.8"></path>
<path d="M158.365 94.1187L155.082 96.3437L179.263 112.285L182.575 110.117L158.365 94.1187Z" fill="white" fill-opacity="0.8"></path>
<path d="M269.766 143.858C277.189 143.858 283.206 140.474 283.206 136.298C283.206 132.122 277.189 128.738 269.766 128.738C262.343 128.738 256.326 132.122 256.326 136.298C256.326 140.474 262.343 143.858 269.766 143.858Z" fill="#00A99D"></path>
<path d="M283.213 116.159V136.72C283.213 136.72 273.221 147.277 256.326 136.891V116.159" fill="#00171F"></path>
<path opacity="0.21" d="M272.721 136.095C269.01 139.343 264.527 140.886 259.931 141.439C262.994 143.124 266.364 143.959 269.766 143.875C276.904 143.875 282.735 140.74 283.163 136.777L283.206 136.737V116.159H282.956C280.694 123.516 278.31 131.158 272.721 136.095Z" fill="#00171F"></path>
<path d="M258.339 123.516C258.339 123.516 256.112 119.642 254.014 121.892C251.916 124.141 253.75 131.88 259.91 132.627V135.697C259.91 135.697 252.18 134.503 251.13 126.602C250.081 118.7 255.063 117.482 257.554 119.659" fill="#00A99D"></path>
<path d="M269.766 123.8C277.189 123.8 283.206 120.415 283.206 116.24C283.206 112.064 277.189 108.679 269.766 108.679C262.343 108.679 256.326 112.064 256.326 116.24C256.326 120.415 262.343 123.8 269.766 123.8Z" fill="#CCD1D2"></path>
<path d="M143.276 116.207C139.964 113.576 136.067 112.147 131.856 113.186C127.374 114.307 123.491 117.515 118.923 118.302C118.209 118.424 115.319 118.213 114.876 118.692C102.164 132.384 137.716 130.914 137.716 130.914C141.163 127.666 144.411 124.539 147.837 121.291C146.795 118.692 145.082 117.653 143.276 116.207Z" fill="#682FC1"></path>
<path d="M126.524 136.087L125.261 177.389C125.211 178.957 127.352 178.957 127.402 177.389L128.666 136.087C128.737 134.52 126.603 134.528 126.524 136.087Z" fill="#CCD1D2"></path>
<path d="M119.13 132.27C114.105 143.06 109.373 154.015 104.934 165.135C104.37 166.548 106.211 167.79 106.782 166.361C111.222 155.241 115.954 144.286 120.979 133.496C121.621 132.116 119.78 130.881 119.13 132.27Z" fill="#CCD1D2"></path>
<path d="M144.161 88.5965C144.597 88.4746 148.258 87.4027 149.157 87.0616C150.057 86.7206 152.84 84.26 154.353 84.6254C155.867 84.9908 158.914 87.2728 159.057 88.0361C159.2 88.7995 158.343 89.7253 158.022 90.0582C157.701 90.3912 155.495 89.4735 154.639 89.3192C153.782 89.1649 152.419 91.4712 151.613 91.8772C150.806 92.2833 145.596 93.3471 145.596 93.3471" fill="#FCBF81"></path>
<path d="M154.003 98.715C154.439 98.5932 158.1 97.5213 159 97.1802C159.899 96.8391 162.683 94.3785 164.196 94.7439C165.709 95.1094 168.757 97.3913 168.899 98.1547C169.042 98.918 168.186 99.8438 167.864 100.177C167.543 100.51 165.338 99.5921 164.481 99.4378C163.625 99.2835 162.261 101.59 161.455 101.996C160.648 102.402 155.438 103.466 155.438 103.466" fill="#FCBF81"></path>
<path d="M152.583 151.2C153.247 150.388 153.683 149.576 153.454 148.723C153.047 147.204 151.234 146.587 149.993 146.668C148.751 146.749 147.466 147.48 146.21 147.886C144.896 148.423 143.494 148.62 142.106 148.463C141.882 148.426 141.679 148.295 141.535 148.098C141.15 148 140.794 147.79 140.502 147.488C140.21 147.186 139.993 146.803 139.872 146.376L135.76 144.703C135.76 144.703 134.711 154.586 134.747 155.26C135.054 160.595 142.056 157.55 142.056 157.55C142.056 157.55 142.306 155.114 142.37 154.813C142.434 154.513 145.118 155.439 146.224 155.244C146.733 155.082 147.215 154.827 147.651 154.489C148.479 153.969 149.293 153.417 150.1 152.864C150.906 152.312 151.748 151.768 152.583 151.2Z" fill="#383B30"></path>
<path d="M137.231 114.721C135.689 114.892 134.147 115.119 132.613 115.371C133.25 126.594 133.964 137.809 134.754 149.015C138.751 150.875 140.371 150.014 142.848 147.131C143.319 136.436 144.14 125.205 144.118 114.421C141.834 114.534 139.536 114.648 137.231 114.721Z" fill="#00171F"></path>
<path d="M120.622 111.643C120.622 111.643 119.958 123.93 125.383 126.667C130.807 129.404 141.934 128.039 147.409 124.385C150.239 122.424 153.209 120.737 156.288 119.342C156.288 119.342 157.715 113.966 154.282 111.643C150.849 109.321 143.326 106.446 136.631 111.643" fill="#00171F"></path>
<path d="M148.279 93.2497C148.857 90.7404 148.522 86.5987 148.522 86.5987C148.522 86.5987 141.748 87.9143 138.893 87.4108C136.039 86.9073 131.371 80.1021 131.371 80.1021L132.006 93.5826C137.416 94.8738 143.019 95.15 148.279 93.2497Z" fill="#E1E4E5"></path>
<path d="M165.109 158.898C165.773 158.086 166.209 157.274 165.98 156.421C165.573 154.903 163.76 154.286 162.518 154.367C161.277 154.448 159.992 155.179 158.736 155.585C157.422 156.121 156.02 156.318 154.632 156.162C154.408 156.124 154.205 155.994 154.061 155.796C153.676 155.699 153.32 155.489 153.028 155.187C152.736 154.885 152.519 154.501 152.398 154.075L148.286 152.402C148.286 152.402 147.237 162.285 147.273 162.959C147.58 168.294 154.582 165.249 154.582 165.249C154.582 165.249 154.831 162.813 154.896 162.512C154.96 162.212 157.644 163.137 158.75 162.942C159.259 162.781 159.741 162.526 160.177 162.187C161.005 161.667 161.819 161.115 162.626 160.563C163.432 160.011 164.281 159.467 165.109 158.898Z" fill="#383B30"></path>
<path d="M149.293 111.944C147.865 111.18 146.395 111.262 144.696 111.27C144.932 115.225 144.803 116.646 145.017 120.592L145.075 121.64C145.731 133.334 146.502 145.02 147.287 156.706C151.284 158.565 152.904 157.704 155.381 154.822C155.931 142.372 156.966 129.233 156.566 116.841C154.26 114.242 152.219 113.503 149.293 111.944Z" fill="#00171F"></path>
<path d="M120.529 109.102C120.529 109.402 120.579 110.417 120.622 111.643C122.87 115.013 125.618 116.987 129.9 116.841C133.391 116.727 136.324 114.989 139.036 112.845C138.694 105.658 137.673 93.3553 136.081 84.8041C135.946 84.0814 134.297 83.5941 133.812 83.2936C132.677 82.5871 133.341 81.369 132.227 80.6138C130.612 79.5438 128.93 78.6101 127.195 77.8202H127.152C124.376 77.7715 119.587 80.2077 119.301 84.4387C118.866 90.9353 119.494 94.8739 119.937 101.362C120.101 103.977 120.336 106.56 120.529 109.102Z" fill="#D2CEDC"></path>
<path d="M130.2 65.501C130.564 65.6066 133.648 73.6786 132.441 78.5836C131.235 83.4886 123.912 78.4456 122.071 74.71C120.229 70.9744 123.277 63.4221 130.2 65.501Z" fill="#FCBF81" fill-opacity="0.8"></path>
<path d="M130.093 66.6297C130.093 66.6297 130.093 69.2934 128.045 70.1542C125.996 71.015 124.29 71.5916 124.405 72.6716C124.519 73.7517 128.109 72.5173 128.123 74.986C128.124 76.649 127.928 78.3045 127.538 79.9072C127.309 81.1172 121.164 77.406 119.137 71.0881C117.11 64.7701 122.185 63.0891 122.435 63.0485C122.684 63.0079 123.148 61.2863 125.625 60.6691C128.102 60.0519 128.816 61.1563 128.816 61.1563C129.381 60.7688 130.042 60.6027 130.698 60.6833C131.354 60.764 131.969 61.087 132.448 61.603C134.74 63.6738 134.161 67.4581 131.563 68.9929L130.093 66.6297Z" fill="#34323D"></path>
<path d="M158.357 96.7173C155.167 97.4725 148.686 98.6744 146.395 97.5293C144.618 96.6442 138.687 82.1729 132.241 80.6218L131.371 91.6661C131.371 91.6661 140.485 104.822 144.696 106.178C147.758 107.161 156.002 105.845 159.621 104.416C159.777 101.769 159.343 99.121 158.357 96.7173Z" fill="#D2CEDC"></path>
<path d="M138.166 100.12C137.702 99.4378 132.42 92.6326 132.42 92.6326L138.765 107.42L138.166 100.12Z" fill="#34323D"></path>
<path d="M147.337 121.08C145.355 124.224 142.545 126.57 139.315 127.779C134.789 129.347 128.209 128.591 125.832 123.224C121.507 113.43 125.568 101.168 121 91.6418C120.472 90.4377 119.727 89.374 118.813 88.5203C117.9 87.6666 116.837 87.0423 115.697 86.6881C112.735 85.9492 110.7 88.4828 109.63 91.4632C107.703 96.8067 107.774 103.458 107.867 109.15C107.872 113.748 108.165 118.34 108.745 122.891C108.745 122.891 111.514 141.983 133.098 136.858C136.836 136.087 140.426 134.576 143.704 132.392C145.384 131.29 146.854 129.819 148.029 128.064C149.364 125.855 148.472 123.264 147.337 121.08Z" fill="#001C27"></path>
</g>
<defs>
<linearGradient id="paint0_linear_860_271" x1="284" y1="117.5" x2="234.549" y2="148.12" gradientUnits="userSpaceOnUse">
<stop stop-color="#E75D48"></stop>
<stop offset="1" stop-color="#502019"></stop>
</linearGradient>
<linearGradient id="paint1_linear_860_271" x1="8897.56" y1="9717.09" x2="9878.71" y2="8290.99" gradientUnits="userSpaceOnUse">
<stop stop-color="#E75D48"></stop>
<stop offset="1" stop-color="#502019"></stop>
</linearGradient>
<linearGradient id="paint2_linear_860_271" x1="1884.53" y1="5138.53" x2="2515.67" y2="4357.09" gradientUnits="userSpaceOnUse">
<stop stop-color="#E75D48"></stop>
<stop offset="1" stop-color="#502019"></stop>
</linearGradient>
<linearGradient id="paint3_linear_860_271" x1="21606.8" y1="16184.3" x2="23433.5" y2="12587.7" gradientUnits="userSpaceOnUse">
<stop stop-color="#E75D48"></stop>
<stop offset="1" stop-color="#502019"></stop>
</linearGradient>
<clipPath id="clip0_860_271">
<rect width="320" height="218.686" fill="white"></rect>
</clipPath>
</defs>
</svg>
