<svg width="135" height="102" viewBox="0 0 135 102" fill="none" xmlns="http://www.w3.org/2000/svg">
<path d="M63.9653 97.9726L3.58257 58.6482C1.66075 57.4598 0.0110792 55.505 1.88586 54.2278L62.487 15.7253C63.3975 15.1033 64.7784 14.6961 65.7024 15.2884L129.089 55.8419C131.011 57.0711 131.357 60.5067 129.425 61.7395L71.9348 97.9096C70.7263 98.6835 69.3554 99.0964 67.9577 99.1074C66.5599 99.1185 65.1838 98.7273 63.9653 97.9726Z" fill="#BCBCBC"></path>
<path d="M61.8028 58L60.7512 59.5563L31.6509 76L37.2694 79.5654L63.0795 63.0141C62.0749 61.1668 63.3618 59.4447 61.8028 58Z" fill="#998A88"></path>
<path d="M80.6071 79.2542L76.8743 78.5166L60.0752 89.2587L69.6406 94.2491L83.2445 81.2876C82.2265 79.4403 82.156 80.6988 80.6071 79.2542Z" fill="#998A88"></path>
<path d="M62.4066 6.44141L64.6476 7.44287L62.494 8.39359L61.9766 7.27371" fill="#68E1FD"></path>
<path d="M41.9891 72.7379L60.6059 61.8267C61.3559 61.3871 61.9783 60.7571 62.4111 59.9995C62.8438 59.242 63.0717 58.3835 63.072 57.5095L63.6734 7.88619C63.6734 6.58361 61.6575 5.92047 60.5521 6.58361L41.2902 18.026C40.8123 18.3102 40.4163 18.7149 40.1411 19.2002C39.866 19.6856 39.7212 20.2347 39.7212 20.7936V71.4286C39.7218 71.6955 39.7921 71.9575 39.9253 72.1883C40.0584 72.419 40.2495 72.6104 40.4794 72.7432C40.7093 72.8759 40.9699 72.9453 41.2349 72.9444C41.5 72.9435 41.7601 72.8723 41.9891 72.7379Z" fill="#00171F"></path>
<path d="M40.4976 72.7548L42.9334 74.0507L42.6512 72.3421L40.9579 72.0342" fill="#00171F"></path>
<path d="M44.324 73.9831L62.9408 63.0583C63.6909 62.6187 64.3133 61.9887 64.746 61.2311C65.1787 60.4736 65.4066 59.6151 65.4069 58.7411V8.64412C65.4074 8.40973 65.3463 8.1794 65.2296 7.97657C65.113 7.77374 64.945 7.60566 64.7429 7.48945C64.5408 7.37323 64.3117 7.31304 64.0789 7.31499C63.8462 7.31694 63.6181 7.38097 63.4179 7.50055L43.6252 19.2712C43.1473 19.5553 42.7512 19.96 42.4761 20.4453C42.2009 20.9307 42.0562 21.4799 42.0562 22.0387V72.6703C42.0561 72.9375 42.1261 73.1999 42.259 73.4312C42.3918 73.6624 42.5829 73.8543 42.8129 73.9874C43.0429 74.1206 43.3038 74.1903 43.5691 74.1895C43.8344 74.1887 44.0948 74.1175 44.324 73.9831Z" fill="#CCCCCC"></path>
<g filter="url('#filter0_d_860_55')">
<path d="M43.2358 25.0973L64.4464 12.8496V56.6739L43.2358 69.0197V25.0973Z" fill="#00171F"></path>
</g>
<path d="M56.7687 64.9006C56.938 64.1864 56.6496 63.505 56.1244 63.3787C55.5992 63.2524 55.0361 63.729 54.8667 64.4433C54.6974 65.1575 54.9858 65.8389 55.511 65.9652C56.0362 66.0915 56.5993 65.6149 56.7687 64.9006Z" fill="#BABABC"></path>
<path d="M56.6109 14.9574C56.6107 15.0413 56.5885 15.1236 56.5466 15.196C56.5047 15.2685 56.4446 15.3286 56.3724 15.3702L52.2734 17.7385C52.2014 17.78 52.1199 17.8017 52.0371 17.8015C51.9542 17.8013 51.8728 17.7792 51.8011 17.7374C51.7293 17.6956 51.6697 17.6356 51.6282 17.5634C51.5867 17.4912 51.5647 17.4092 51.5645 17.3258V17.2243C51.5648 17.1392 51.5877 17.0557 51.6308 16.9826C51.6739 16.9094 51.7357 16.8492 51.8097 16.8081L55.9087 14.5379C55.981 14.4978 56.0623 14.4775 56.1448 14.4788C56.2273 14.4802 56.308 14.5032 56.3789 14.5455C56.4498 14.5879 56.5085 14.6482 56.5492 14.7205C56.5899 14.7927 56.6112 14.8744 56.6109 14.9574Z" fill="#CCCCCC"></path>
<path d="M58.9331 13.8597C59.0542 13.5302 58.9577 13.1906 58.7176 13.1011C58.4774 13.0116 58.1846 13.2061 58.0635 13.5356C57.9424 13.865 58.0389 14.2046 58.2791 14.2941C58.5192 14.3836 58.8121 14.1891 58.9331 13.8597Z" fill="#CCCCCC"></path>
<path d="M47.0022 26.1291V34.9258C47.001 35.0637 46.9637 35.1989 46.8941 35.3177C46.8245 35.4365 46.725 35.5347 46.6057 35.6025L32.3769 43.7157C32.2588 43.7828 32.1253 43.8177 31.9898 43.817C31.8542 43.8163 31.7211 43.78 31.6037 43.7117C31.4863 43.6433 31.3887 43.5453 31.3204 43.4274C31.2521 43.3094 31.2156 43.1756 31.2144 43.039V34.6822C31.2139 34.5459 31.2486 34.4119 31.3152 34.2932C31.3818 34.1746 31.4779 34.0754 31.594 34.0055L45.8229 25.4559C45.9411 25.3847 46.076 25.3464 46.2138 25.3448C46.3516 25.3432 46.4873 25.3784 46.6071 25.4468C46.727 25.5153 46.8267 25.6145 46.8961 25.7343C46.9655 25.8542 47.0021 25.9904 47.0022 26.1291Z" fill="#00A99D"></path>
<path d="M70.7762 30.7407V31.194C70.7741 31.9627 70.5719 32.7173 70.1899 33.3828C69.8079 34.0482 69.2594 34.6012 68.599 34.9867L43.1047 49.9851C42.701 50.2218 42.2424 50.3471 41.7753 50.3485C41.3081 50.3499 40.8488 50.2272 40.4437 49.9929C40.0386 49.7586 39.702 49.4208 39.4679 49.0138C39.2337 48.6067 39.1102 48.1447 39.1099 47.6742V47.2073C39.1101 46.417 39.317 45.6407 39.7098 44.9565C40.1026 44.2723 40.6675 43.7043 41.3475 43.3097L66.8822 28.4874C67.2763 28.2598 67.7227 28.1402 68.177 28.1404C68.6312 28.1406 69.0775 28.2606 69.4714 28.4886C69.8653 28.7165 70.193 29.0443 70.422 29.4395C70.6509 29.8346 70.773 30.2832 70.7762 30.7407Z" fill="#00A99D"></path>
<path d="M66.8752 28.4703L63.5591 30.392V37.947L68.5988 34.9832C69.2567 34.596 69.8025 34.0422 70.1821 33.3769C70.5616 32.7116 70.7618 31.9578 70.7626 31.1905V30.7405C70.7616 30.2826 70.6415 29.833 70.4141 29.4364C70.1867 29.0399 69.86 28.7103 69.4667 28.4806C69.0733 28.2509 68.627 28.129 68.1723 28.1272C67.7176 28.1254 67.2704 28.2437 66.8752 28.4703Z" fill="#383B30"></path>
<path d="M67.1187 32.2931C67.4739 31.4078 67.2277 30.4728 66.5688 30.2047C65.9098 29.9366 65.0877 30.437 64.7325 31.3223C64.3773 32.2076 64.6235 33.1426 65.2825 33.4107C65.9414 33.6788 66.7635 33.1785 67.1187 32.2931Z" fill="#383B30" stroke="#BCBCBC" stroke-width="2.03" stroke-miterlimit="10"></path>
<path d="M47.6149 26.9488C48.0424 25.57 47.6194 24.2103 46.67 23.9118C45.7206 23.6133 44.6044 24.489 44.1769 25.8678C43.7494 27.2466 44.1725 28.6062 45.1219 28.9047C46.0712 29.2032 47.1874 28.3275 47.6149 26.9488Z" fill="#383B30"></path>
<path d="M51.464 25.043L61.3083 19.359C61.4186 19.2887 61.4975 19.1781 61.5285 19.0505C61.5594 18.9228 61.54 18.788 61.4743 18.6745C61.4086 18.561 61.3017 18.4775 61.1761 18.4418C61.0505 18.406 60.916 18.4207 60.801 18.4827L50.9567 24.1667C50.8464 24.237 50.7675 24.3476 50.7365 24.4752C50.7056 24.6029 50.725 24.7377 50.7908 24.8512C50.8565 24.9647 50.9634 25.0482 51.089 25.0839C51.2145 25.1197 51.349 25.105 51.464 25.043Z" fill="#FFEED9"></path>
<path d="M51.464 27.885L61.3083 22.201C61.4186 22.1308 61.4975 22.0202 61.5285 21.8925C61.5594 21.7648 61.54 21.6301 61.4743 21.5165C61.4086 21.403 61.3017 21.3196 61.1761 21.2838C61.0505 21.248 60.916 21.2627 60.801 21.3248L50.9567 27.0087C50.8464 27.079 50.7675 27.1896 50.7365 27.3173C50.7056 27.4449 50.725 27.5797 50.7908 27.6932C50.8565 27.8068 50.9634 27.8902 51.089 27.926C51.2145 27.9617 51.349 27.9471 51.464 27.885Z" fill="#FFEED9"></path>
<path d="M51.464 30.7271L61.3083 25.0431C61.4186 24.9728 61.4975 24.8622 61.5285 24.7346C61.5594 24.6069 61.54 24.4721 61.4743 24.3586C61.4086 24.2451 61.3017 24.1616 61.1761 24.1259C61.0505 24.0901 60.916 24.1048 60.801 24.1668L50.9567 29.8508C50.8464 29.921 50.7675 30.0316 50.7365 30.1593C50.7056 30.287 50.725 30.4218 50.7908 30.5353C50.8565 30.6488 50.9634 30.7322 51.089 30.768C51.2145 30.8038 51.349 30.7891 51.464 30.7271Z" fill="#FFEED9"></path>
<path d="M119.332 56.2476L118.281 57.8039L104.363 65.1665L111.846 69.3889L121.912 60.1012C120.911 58.2539 120.864 57.6922 119.332 56.2476Z" fill="#998A88"></path>
<path d="M115.814 54.0449L116.9 59.1199C116.936 59.2893 117.01 59.4482 117.116 59.5847C117.221 59.7213 117.357 59.8319 117.511 59.9082C118.143 60.2195 119.443 60.5443 121.916 60.0909C122.138 60.0503 122.343 59.9445 122.506 59.7868C122.668 59.629 122.781 59.4265 122.83 59.2045L123.942 54.0449" fill="#68E1FD"></path>
<path d="M119.876 55.7096C122.12 55.7096 123.938 54.9598 123.938 54.0349C123.938 53.1099 122.12 52.3601 119.876 52.3601C117.633 52.3601 115.814 53.1099 115.814 54.0349C115.814 54.9598 117.633 55.7096 119.876 55.7096Z" fill="#001C27"></path>
<path d="M117.514 50.2624C117.324 50.1575 117.162 50.0063 117.044 49.8225L114.756 46.2632C113.698 44.6122 113.311 32.7739 116.1 32.625C118.304 32.5066 120.572 37.7 121.361 39.2124C122.101 40.6334 122.91 42.1457 123.35 43.6953C124.022 46.0298 122.507 48.0733 121.079 49.9274C120.38 50.8104 118.432 50.7732 117.514 50.2624Z" fill="#00A99D"></path>
<path d="M118.879 52.5969C119.186 52.8225 119.487 53.048 119.783 53.2736C120.012 47.9975 119.284 42.7237 117.636 37.7102C117.596 37.5935 117.512 37.497 117.403 37.4414C117.294 37.3858 117.167 37.3754 117.05 37.4125C116.933 37.4495 116.835 37.5311 116.777 37.6398C116.719 37.7485 116.705 37.8757 116.739 37.9944C118.291 42.6993 119.016 47.641 118.879 52.5969Z" fill="#001C27"></path>
<path d="M122.107 49.3083C122.056 49.1785 122.037 49.0377 122.054 48.8989L122.366 46.2091C122.51 44.9641 127.1 38.9823 128.525 40.0447C129.657 40.8905 128.679 44.372 128.454 45.4411C128.278 46.4724 128 47.4834 127.624 48.4591C127.009 49.8801 125.44 50.2691 123.992 50.5939C123.293 50.7496 122.356 49.9376 122.107 49.3083Z" fill="#00A99D"></path>
<path d="M126.327 43.3199C124.282 46.7987 122.647 50.506 121.456 54.3665C121.689 54.4957 121.913 54.6403 122.128 54.7996C123.31 50.9142 124.948 47.1844 127.006 43.6887C127.258 43.259 126.579 42.8801 126.327 43.3199Z" fill="#001C27"></path>
<path d="M34.4396 36.4517L44.2839 30.7677C44.3942 30.6974 44.4731 30.5868 44.5041 30.4592C44.535 30.3315 44.5156 30.1967 44.4499 30.0832C44.3841 29.9697 44.2772 29.8862 44.1517 29.8505C44.0261 29.8147 43.8916 29.8294 43.7766 29.8914L33.9323 35.5754C33.822 35.6457 33.7431 35.7563 33.7121 35.8839C33.6812 36.0116 33.7006 36.1464 33.7663 36.2599C33.8321 36.3734 33.939 36.4569 34.0646 36.4926C34.1901 36.5284 34.3246 36.5137 34.4396 36.4517Z" fill="#FFEED9"></path>
<path d="M34.4396 39.2835L44.2839 33.5995C44.3829 33.5246 44.451 33.4156 44.4753 33.2934C44.4996 33.1711 44.4784 33.0442 44.4156 32.9367C44.3529 32.8292 44.2531 32.7487 44.1353 32.7106C44.0174 32.6725 43.8897 32.6794 43.7766 32.73L33.9323 38.414C33.822 38.4842 33.7431 38.5948 33.7121 38.7225C33.6812 38.8501 33.7006 38.9849 33.7663 39.0985C33.8321 39.212 33.939 39.2954 34.0646 39.3312C34.1901 39.3669 34.3246 39.3523 34.4396 39.2902V39.2835Z" fill="#FFEED9"></path>
<path d="M46.4074 53.1991L52.5122 49.765C53.6445 49.1289 52.6298 47.373 51.5043 48.0124L45.3995 51.4465C44.2672 52.0826 45.2819 53.8385 46.4074 53.1991Z" fill="#FFEED9"></path>
<path d="M45.5038 56.2713L58.3249 49.0648C58.7482 48.8246 58.3686 48.1682 57.9419 48.4085L45.1208 55.615C44.6974 55.8552 45.0771 56.5115 45.5038 56.2713Z" fill="#FFEED9"></path>
<path d="M67.0201 32.9804L68.5152 33.9954C69.0528 34.3642 69.5601 33.4845 69.0226 33.1191L67.5274 32.1041C66.9899 31.7354 66.4825 32.615 67.0201 32.9804Z" fill="#BCBCBC"></path>
<path d="M43.041 47.1801L62.0845 36.4922" stroke="#BCBCBC" stroke-width="1.015" stroke-miterlimit="10"></path>
<path d="M65.239 43.2183L63.2936 49.8564C63.2936 49.8564 61.6137 50.7192 61.103 49.0783L62.6956 42.606L65.239 43.2183Z" fill="#FFEED9"></path>
<path d="M60.6128 48.503L57.5117 59.7019C57.5117 59.7019 57.7738 62.7469 61.7014 61.4747L64.3893 49.6601C64.3893 49.6601 63.7879 47.038 60.6128 48.503Z" fill="#68E1FD"></path>
<path d="M65.2393 43.2183C64.2144 43.4789 63.1365 43.4367 62.1348 43.0965C58.2374 41.7431 56.7087 36.2148 58.6541 30.4902C60.5994 24.7656 65.1822 21.3349 69.0695 22.6814C71.0149 23.3581 72.4294 25.0938 73.0476 27.5873C73.6255 29.9082 73.4474 32.642 72.5469 35.2844C71.6465 37.9267 70.1212 40.2003 68.2531 41.6755C67.3696 42.4008 66.3419 42.9269 65.2393 43.2183ZM66.5026 24.7588C64.2818 25.2968 61.9299 27.8241 60.7909 31.2244C59.3025 35.6024 60.2567 40.0616 62.8774 40.965C64.0802 41.3811 65.5081 41.0022 66.9092 39.906C68.4412 38.6948 69.7045 36.7967 70.4639 34.5603C71.2232 32.3239 71.3844 30.0436 70.9107 28.132C70.4807 26.4031 69.5668 25.2257 68.3774 24.8096C67.7735 24.6167 67.1271 24.6038 66.5161 24.7723L66.5026 24.7588Z" fill="#001C27"></path>
<path d="M65.9548 25.8008C66.5361 25.3711 67.8531 26.0783 68.2698 26.4775C71.727 29.7356 70.0639 35.8324 67.0703 38.9383C65.9481 40.1022 63.3039 41.6957 62.3296 41.0292C62.3296 41.0292 66.6537 43.9727 69.7414 40.7213C72.829 37.47 73.5816 31.1837 73.5816 31.1837L73.3901 27.8647L72.2579 25.6249L71.1088 24.39L68.263 24.0889L65.9548 25.8008Z" fill="#001C27"></path>
<path d="M66.3043 43.5566C65.2793 43.8173 64.2015 43.775 63.1998 43.4348C59.3024 42.0815 57.7737 36.5531 59.719 30.8285C61.6643 25.1039 66.2471 21.6732 70.1345 23.0198C72.0798 23.6965 73.4943 25.4321 74.1125 27.9256C74.6904 30.2466 74.5123 32.9803 73.6119 35.6227C72.7114 38.2651 71.1995 40.5116 69.3315 42.0003C68.4452 42.7322 67.4127 43.263 66.3043 43.5566ZM67.5675 25.0972C65.3467 25.6351 62.9948 28.1625 61.8558 31.5627C60.3674 35.9408 61.3216 40.4 63.9423 41.3033C65.1451 41.7195 66.573 41.3406 67.9741 40.2444C69.5062 39.0331 70.7695 37.1351 71.5288 34.8987C72.2881 32.6623 72.4494 30.3819 71.9756 28.4704C71.5456 26.7415 70.6317 25.5641 69.4423 25.1479C68.8372 24.9424 68.1857 24.9189 67.5675 25.0803V25.0972Z" fill="#00A99D"></path>
<path d="M71.3137 42.3216C71.4381 42.2844 70.3495 40.7754 70.2621 40.63C69.7376 39.7918 69.2587 38.9255 68.8275 38.0349C68.8127 38.0061 68.7907 37.9816 68.7636 37.9639C68.6841 37.7928 68.5944 37.6267 68.4949 37.4665C68.47 37.4262 68.4331 37.3948 68.3894 37.3771C68.3456 37.3593 68.2974 37.356 68.2517 37.3677C68.206 37.3794 68.1652 37.4055 68.1352 37.4421C68.1053 37.4787 68.0876 37.524 68.085 37.5714C68.0533 38.0769 68.1701 38.5805 68.4209 39.0195C68.3134 39.1379 68.1958 39.2665 68.085 39.4018C68.1004 39.413 68.112 39.4289 68.1181 39.4471C68.1241 39.4653 68.1243 39.485 68.1186 39.5033C68.0945 39.5767 68.0581 39.6453 68.011 39.7063C67.9851 39.7508 67.9522 39.7908 67.9136 39.8247C67.8974 39.8383 67.8775 39.8465 67.8565 39.8484C67.8335 39.9503 67.8343 40.0562 67.8588 40.1578C67.8833 40.2593 67.9308 40.3538 67.9976 40.4337C67.9065 40.6322 67.8922 40.8578 67.9573 41.0664V41.0935H67.9909C68.2636 41.2543 68.5242 41.4352 68.7704 41.6348C68.7814 41.6464 68.7895 41.6605 68.7939 41.6759C68.7983 41.6913 68.7988 41.7076 68.7955 41.7233C68.7922 41.739 68.7851 41.7536 68.7749 41.7659C68.7646 41.7782 68.7515 41.7878 68.7368 41.7938C68.9452 41.8947 69.1595 41.9829 69.3785 42.0577C69.4018 42.068 69.427 42.0733 69.4524 42.0733C69.4778 42.0733 69.503 42.068 69.5263 42.0577C69.5566 42.0848 69.5801 42.1152 69.6103 42.1389C69.6373 42.1656 69.6707 42.1848 69.7071 42.1948C69.7436 42.2048 69.782 42.2052 69.8187 42.1961C69.8554 42.1869 69.8892 42.1685 69.9168 42.1425C69.9444 42.1165 69.965 42.0838 69.9765 42.0476C69.9805 42.0218 69.9805 41.9955 69.9765 41.9698L70.0538 42.0611C70.0438 42.0974 70.0418 42.1354 70.0482 42.1726C70.0546 42.2097 70.069 42.2449 70.0906 42.2756C70.1121 42.3064 70.1402 42.332 70.1728 42.3505C70.2054 42.3689 70.2416 42.3799 70.2789 42.3825C70.3427 42.3907 70.4072 42.3743 70.4595 42.3367C70.5118 42.2991 70.5481 42.2429 70.5611 42.1795C70.5669 42.1459 70.5669 42.1116 70.5611 42.078L70.7291 42.3352C70.7355 42.3456 70.7449 42.3539 70.756 42.3589C70.7671 42.3639 70.7795 42.3654 70.7915 42.3632C70.8034 42.361 70.8145 42.3552 70.8232 42.3466C70.8318 42.338 70.8377 42.3269 70.84 42.3149C70.8419 42.3071 70.8419 42.299 70.84 42.2912C70.9286 42.4385 71.0061 42.5923 71.0718 42.7513C72.2377 44.4531 71.344 42.3791 71.3137 42.3216ZM70.3461 42.2743C70.3113 42.2744 70.2777 42.2611 70.2521 42.2373C70.2265 42.2134 70.2109 42.1807 70.2084 42.1457C70.2405 42.1538 70.274 42.1547 70.3066 42.1483C70.3391 42.1418 70.3698 42.1283 70.3965 42.1085C70.4019 42.1149 70.4086 42.12 70.4161 42.1236C70.4237 42.1271 70.4319 42.1289 70.4402 42.1289C70.4485 42.1289 70.4567 42.1271 70.4643 42.1236C70.4718 42.12 70.4785 42.1149 70.4839 42.1085C70.4879 42.1288 70.4873 42.1498 70.4822 42.1699C70.4771 42.19 70.4676 42.2087 70.4544 42.2246C70.4412 42.2405 70.4246 42.2532 70.4059 42.2618C70.3871 42.2704 70.3667 42.2747 70.3461 42.2743Z" fill="#FCBF81"></path>
<path d="M71.0216 42.2812C70.7849 42.0951 70.5854 41.8655 70.4336 41.6045C70.4042 41.5502 70.3643 41.5023 70.3162 41.4637C70.2681 41.4252 70.2129 41.3967 70.1537 41.38C70.0945 41.3633 70.0326 41.3586 69.9716 41.3664C69.9106 41.3742 69.8518 41.3942 69.7986 41.4252C69.7814 41.3042 69.7725 41.1821 69.7717 41.0598C69.7717 40.4373 68.7974 40.4271 68.8074 41.0598C68.7861 41.55 68.9164 42.0347 69.1804 42.447C69.4717 42.8187 69.8267 43.1349 70.2286 43.3808C70.2995 43.4209 70.3792 43.4428 70.4605 43.4444C70.5418 43.4461 70.6222 43.4276 70.6947 43.3904C70.7671 43.3533 70.8294 43.2987 70.8758 43.2315C70.9223 43.1643 70.9516 43.0866 70.9611 43.0053L71.0048 42.9714C71.051 42.9273 71.0881 42.8744 71.114 42.8158C71.1398 42.7571 71.154 42.694 71.1555 42.6298C71.1571 42.5657 71.1461 42.5019 71.1231 42.4421C71.1001 42.3822 71.0656 42.3276 71.0216 42.2812Z" fill="#FCBF81"></path>
<path d="M69.5398 42.5417C69.2297 42.3497 68.99 42.0614 68.8567 41.7203C68.7234 41.3793 68.7037 41.0038 68.8006 40.6505C68.8042 40.6431 68.8061 40.635 68.8061 40.6268C68.8061 40.6186 68.8042 40.6105 68.8006 40.6031L68.4647 40.0279C68.4176 39.9433 68.3639 39.8554 68.3235 39.7674C68.2563 39.6152 68.1723 39.0163 68.599 39.2667C68.7537 39.4282 68.8839 39.6117 68.9854 39.8114C69.1064 39.9907 69.224 40.1734 69.3382 40.3595C69.3785 40.4272 69.486 40.3595 69.4424 40.302C69.2296 39.9614 69.0056 39.6231 68.7704 39.287C68.6595 39.1347 68.5453 38.9791 68.3403 39.0738C68.2617 39.1065 68.1965 39.1652 68.1556 39.2403C68.1146 39.3153 68.1004 39.4023 68.1152 39.4866C68.0413 39.6287 67.8834 39.7403 67.8565 39.9095C67.8542 40.0808 67.9047 40.2487 68.001 40.3899L68.0548 40.4813C68.0444 40.4877 68.0362 40.4972 68.0312 40.5084C67.964 40.6944 67.8364 40.9008 67.9741 41.0801C68.0361 41.1508 68.1086 41.2113 68.1891 41.2595L68.5722 41.52C68.5782 41.5243 68.5851 41.5273 68.5924 41.5287C68.5997 41.5302 68.6072 41.5302 68.6145 41.5286C68.6217 41.527 68.6286 41.5239 68.6346 41.5195C68.6406 41.5151 68.6457 41.5095 68.6494 41.5031C68.7705 41.9752 69.0615 42.3852 69.4659 42.6534C69.5398 42.6974 69.607 42.5925 69.5398 42.5417ZM68.0413 40.1734C68.0053 40.1109 67.9883 40.039 67.9925 39.9669C67.9967 39.8947 68.0218 39.8253 68.0648 39.7674C68.0951 39.7234 68.1253 39.6862 68.1555 39.649C68.2897 39.9985 68.4657 40.3303 68.6797 40.6369V40.6775C68.6704 40.6707 68.6593 40.667 68.6478 40.667C68.6363 40.667 68.6251 40.6707 68.6158 40.6775C68.3403 40.8332 68.1186 40.3696 68.0413 40.1734ZM68.1791 41.0903C68.1323 41.0653 68.0947 41.0258 68.0717 40.9777C68.0487 40.9297 68.0416 40.8754 68.0514 40.823C68.0718 40.7405 68.1 40.66 68.1354 40.5828C68.2631 40.752 68.4378 40.8873 68.6461 40.7858C68.6078 40.9915 68.6078 41.2026 68.6461 41.4083C68.4882 41.3136 68.3269 41.2121 68.1791 41.1004V41.0903Z" fill="#34323D"></path>
<path d="M76.3532 44.609C76.3532 44.609 73.5444 44.7443 72.812 44.0677C72.0795 43.391 71.0279 41.2561 71.0279 41.2561C71.0279 41.2561 69.0927 42.5079 69.012 43.232C68.9314 43.956 71.0279 47.4375 71.9754 47.6743" fill="#00A99D"></path>
<path d="M80.6172 79.4843C80.6172 79.4843 78.2418 78.405 77.6707 78.378C77.0995 78.3509 76.1453 78.5336 76.9785 79.5892C76.9785 79.5892 79.4749 81.2335 79.8041 81.2808C80.1334 81.3282 80.933 81.0812 80.9532 81.1658C80.9734 81.2504 81.0473 81.8865 81.0473 81.8865C81.0473 81.8865 83.1337 82.6883 83.2278 81.2808C83.2278 81.0981 82.9254 78.4896 82.9254 78.4896" fill="#34323D"></path>
<path d="M83.342 73.3301C82.9287 70.6234 82.1728 68.0081 81.8603 65.2744C81.6621 63.5523 81.5243 61.8234 81.3093 60.1046C81.0943 58.3859 80.4626 56.7213 80.0527 55.0296C80.0419 54.9902 80.0443 54.9484 80.0594 54.9104C80.0746 54.8725 80.1018 54.8407 80.1367 54.8199C80.1166 54.759 80.0998 54.7015 80.0796 54.6406C79.8679 54.4376 79.6529 54.2447 79.4446 54.062L76.5249 56.0413C76.5249 56.0413 76.5417 57.8412 76.6324 60.4396C76.9684 61.9587 77.2305 63.3154 77.6135 64.7567C77.5724 64.8016 77.5427 64.8558 77.527 64.9147C77.5112 64.9736 77.5097 65.0355 77.5228 65.0951C78.4727 69.635 79.1648 74.2257 79.5958 78.8449C79.6029 78.9206 79.6314 78.9926 79.6778 79.0526C79.7243 79.1125 79.7867 79.1578 79.8578 79.1833L79.9385 79.8937C82.4785 80.8817 83.0362 79.163 83.0362 79.163C83.0362 79.163 83.1505 77.698 83.2949 75.6646C83.3453 74.883 83.3588 74.1015 83.342 73.3301Z" fill="#00171F"></path>
<path d="M61.8526 45.749C62.0038 45.8404 62.1651 45.9419 62.3532 46.0704C62.0994 45.7531 61.8745 45.4134 61.6812 45.0554C61.4931 44.7374 61.9601 44.4803 62.1886 44.7171C62.8358 45.4255 63.5331 46.0859 64.275 46.693C64.309 46.7199 64.3376 46.7532 64.359 46.7911H64.816C64.9504 46.7911 65.0814 46.7911 65.2057 46.7911H65.3132C65.3588 46.7815 65.4061 46.7837 65.4507 46.7972C65.4953 46.8108 65.5358 46.8355 65.5686 46.8689C65.6284 46.8897 65.6858 46.9169 65.7399 46.9501C65.757 46.9619 65.7728 46.9755 65.7869 46.9907C65.9348 47.0076 66.086 47.0178 66.2338 47.0381C66.2837 47.0474 66.3309 47.0681 66.3717 47.0984C66.4125 47.1288 66.446 47.1681 66.4696 47.2133C66.4932 47.2586 66.5063 47.3087 66.508 47.3598C66.5096 47.4109 66.4997 47.4617 66.4791 47.5083L66.5429 47.4711C66.8789 47.2614 67.1477 47.8095 66.8117 48.0294C66.1047 48.469 65.2907 48.7032 64.4598 48.7061C64.4224 48.7345 64.3781 48.7527 64.3316 48.7586C64.285 48.7645 64.2377 48.7581 64.1944 48.7399L64.0533 48.6858C63.3453 48.6504 62.647 48.5043 61.9836 48.2527C61.8073 48.1831 61.6215 48.1409 61.4326 48.1275C61.5435 47.3155 61.7048 46.5339 61.8526 45.749Z" fill="#FCBF81"></path>
<path d="M75.4195 83.4158L74.0084 83.9233C73.967 84.0533 73.8925 84.1702 73.7923 84.2622C73.692 84.3542 73.5696 84.4181 73.4372 84.4477C73.3874 84.5086 73.3166 84.5485 73.239 84.5593C72.6655 84.6008 72.0903 84.507 71.5591 84.2853C70.8871 84.0721 68.2463 83.0571 68.9787 84.962C69.4592 85.3003 69.9867 85.5946 70.4907 85.8991C70.7662 86.0683 71.045 86.2375 71.3306 86.3965C71.4817 86.4997 71.6486 86.5774 71.8245 86.6266C72.2042 86.6841 73.1248 86.3965 73.1483 86.4946C73.1718 86.5927 73.2558 87.3235 73.2558 87.3235C73.2558 87.3235 75.6581 88.2472 75.7622 86.6266C75.7824 86.4168 75.4195 83.4158 75.4195 83.4158Z" fill="#34323D"></path>
<path d="M77.4049 68.881C77.7005 64.1037 77.8618 59.296 78.863 54.5999C78.9067 53.3785 79.6929 54.1601 79.6392 53.6763C79.2125 49.7448 73.5276 54.424 73.5276 54.424C73.2958 54.6134 73.2689 55.8179 73.2219 56.092C72.9643 57.6009 72.7403 59.1155 72.5499 60.6358C71.6092 68.3092 71.9552 75.9453 72.3416 83.6424C73.5478 84.8841 74.3407 85.2563 76.286 84.4544C76.6758 79.4167 77.0454 74.3755 77.3645 69.3343L77.4049 68.881Z" fill="#00171F"></path>
<path d="M74.3646 45.1299C74.4183 44.8795 75.0567 44.7137 75.2448 44.6122C75.685 44.372 75.4263 43.9356 75.8597 43.692C76.4862 43.3251 77.1386 43.0051 77.8117 42.7345H77.8285C78.907 42.7345 80.7146 42.6736 80.8255 44.125C80.9935 46.3614 80.7986 48.5843 80.6273 50.8105C80.5567 51.7037 80.4794 52.5901 80.4022 53.463C80.3753 53.7811 80.3316 56.3626 80.1434 56.4404C78.0032 57.3336 75.265 57.0189 73.1685 56.1832C73.2824 52.4732 73.6823 48.7776 74.3646 45.1299Z" fill="#D2CEDC"></path>
<path d="M76.2865 47.3866C76.2222 48.1299 75.9328 48.8355 75.4576 49.4079C74.9823 49.9803 74.3439 50.3919 73.6288 50.5873C73.6288 50.7361 73.5852 51.6429 73.5684 51.7917C75.2785 51.379 76.5385 49.217 76.7165 47.3934C76.7434 47.1092 76.3268 47.1126 76.2865 47.3866Z" fill="#34323D"></path>
<path d="M77.3346 38.2145C77.1934 38.2517 75.9906 41.0226 76.4677 42.7041C76.9448 44.3857 79.7738 42.6568 80.4995 41.3745C81.2252 40.0922 80.0224 37.5141 77.3346 38.2145Z" fill="#FCBF81"></path>
<path d="M77.3713 38.6002C77.3728 38.8577 77.4485 39.1093 77.5893 39.3243C77.73 39.5393 77.9298 39.7085 78.1642 39.8114C78.9605 40.1058 79.619 40.3054 79.5753 40.6775C79.5317 41.0497 78.1373 40.6268 78.134 41.4726C78.1337 42.0443 78.2106 42.6134 78.3624 43.1643C78.4498 43.5805 80.8353 42.3083 81.6181 40.1362C82.4009 37.9641 80.4354 37.3923 80.3414 37.3754C80.2473 37.3585 80.0692 36.7698 79.105 36.56C78.1407 36.3503 77.8685 36.7258 77.8685 36.7258C77.6497 36.5927 77.3934 36.5355 77.1392 36.563C76.8849 36.5905 76.6466 36.7012 76.4608 36.8781C75.5704 37.5886 75.7888 38.8878 76.7968 39.4156L77.3713 38.6002Z" fill="#34323D"></path>
<path d="M76.293 43.4485C76.293 43.4485 71.3843 46.2803 69.617 46.2837C68.3403 46.2837 65.8137 45.8676 64.5134 45.6341C63.2972 46.6728 63.2165 48.4896 63.9725 49.8768C66.1161 50.2151 72.4628 51.1489 74.4551 50.1542C76.8675 48.9498 79.515 47.3393 79.515 47.3393C79.515 47.3393 81.9072 44.9744 76.293 43.4485Z" fill="#D2CEDC"></path>
<path d="M62.3531 46.0706C62.3531 46.0706 61.6173 45.4616 61.4291 45.5868C61.241 45.712 60.7908 46.7439 60.8512 47.3563C60.9117 47.9687 61.2242 48.4863 62.7327 48.4694" fill="#FCBF81"></path>
<path d="M46.488 59.6647L52.5928 56.2306C53.7251 55.5945 52.7104 53.8386 51.5849 54.478L45.4801 57.9121C44.3478 58.5482 45.3625 60.3041 46.488 59.6647Z" fill="#FFEED9"></path>
<path d="M45.5878 62.7369L58.4088 55.5304C58.8322 55.2902 58.4525 54.6338 58.0258 54.874L45.2047 62.0805C44.7814 62.3207 45.1611 62.9771 45.5878 62.7369Z" fill="#FFEED9"></path>
<defs>
<filter id="filter0_d_860_55" x="39.2358" y="12.8496" width="29.2104" height="64.1702" filterUnits="userSpaceOnUse" color-interpolation-filters="sRGB">
<feFlood flood-opacity="0" result="BackgroundImageFix"></feFlood>
<feColorMatrix in="SourceAlpha" type="matrix" values="0 0 0 0 0 0 0 0 0 0 0 0 0 0 0 0 0 0 127 0" result="hardAlpha"></feColorMatrix>
<feOffset dy="4"></feOffset>
<feGaussianBlur stdDeviation="2"></feGaussianBlur>
<feComposite in2="hardAlpha" operator="out"></feComposite>
<feColorMatrix type="matrix" values="0 0 0 0 0 0 0 0 0 0 0 0 0 0 0 0 0 0 0.25 0"></feColorMatrix>
<feBlend mode="normal" in2="BackgroundImageFix" result="effect1_dropShadow_860_55"></feBlend>
<feBlend mode="normal" in="SourceGraphic" in2="effect1_dropShadow_860_55" result="shape"></feBlend>
</filter>
</defs>
</svg>
